<mxfile host="Electron" modified="2023-05-14T17:05:02.446Z" agent="Mozilla/5.0 (Windows NT 10.0; Win64; x64) AppleWebKit/537.36 (KHTML, like Gecko) draw.io/21.2.8 Chrome/112.0.5615.165 Electron/24.2.0 Safari/537.36" etag="-YMABtK5g0jDDKT_a4UJ" version="21.2.8" type="device" pages="3">
  <diagram name="Dijkstra" id="Oy0knX79zAl_vPmtlWKk">
    <mxGraphModel dx="1418" dy="820" grid="1" gridSize="10" guides="1" tooltips="1" connect="1" arrows="1" fold="1" page="1" pageScale="1" pageWidth="1654" pageHeight="1169" math="0" shadow="0">
      <root>
        <mxCell id="0" />
        <mxCell id="1" parent="0" />
        <mxCell id="8lVyGrlgalNdbQosUur5-1" value="" style="group" parent="1" vertex="1" connectable="0">
          <mxGeometry width="1653.54" height="1169.289" as="geometry" />
        </mxCell>
        <mxCell id="8lVyGrlgalNdbQosUur5-2" value="" style="rounded=0;whiteSpace=wrap;html=1;aspect=fixed;fillColor=none;strokeColor=none;" parent="8lVyGrlgalNdbQosUur5-1" vertex="1">
          <mxGeometry width="1653.54" height="1169.289" as="geometry" />
        </mxCell>
        <mxCell id="8lVyGrlgalNdbQosUur5-3" value="" style="rounded=0;whiteSpace=wrap;html=1;aspect=fixed;fillColor=none;" parent="8lVyGrlgalNdbQosUur5-1" vertex="1">
          <mxGeometry x="78.74" y="19.685" width="1555.115" height="1129.92" as="geometry" />
        </mxCell>
        <mxCell id="8lVyGrlgalNdbQosUur5-69" value="" style="group" parent="8lVyGrlgalNdbQosUur5-1" vertex="1" connectable="0">
          <mxGeometry x="905.51" y="992.0000000000001" width="728.3499999999999" height="157.4550000000005" as="geometry" />
        </mxCell>
        <mxCell id="8lVyGrlgalNdbQosUur5-70" value="Утв." style="rounded=0;whiteSpace=wrap;html=1;fontFamily=Helvetica;fontStyle=2;align=left;" parent="8lVyGrlgalNdbQosUur5-69" vertex="1">
          <mxGeometry y="137.77000000000032" width="66.929" height="19.685" as="geometry" />
        </mxCell>
        <mxCell id="8lVyGrlgalNdbQosUur5-71" value="Н.контр" style="rounded=0;whiteSpace=wrap;html=1;fontFamily=Helvetica;fontStyle=2;align=left;" parent="8lVyGrlgalNdbQosUur5-69" vertex="1">
          <mxGeometry y="118.09000000000026" width="66.929" height="19.685" as="geometry" />
        </mxCell>
        <mxCell id="8lVyGrlgalNdbQosUur5-72" value="Т.контр." style="rounded=0;whiteSpace=wrap;html=1;fontFamily=Helvetica;fontStyle=2;align=left;" parent="8lVyGrlgalNdbQosUur5-69" vertex="1">
          <mxGeometry y="98.4100000000002" width="66.929" height="19.685" as="geometry" />
        </mxCell>
        <mxCell id="8lVyGrlgalNdbQosUur5-73" value="Пров." style="rounded=0;whiteSpace=wrap;html=1;fontFamily=Helvetica;fontStyle=2;align=left;" parent="8lVyGrlgalNdbQosUur5-69" vertex="1">
          <mxGeometry y="78.73000000000013" width="66.929" height="19.685" as="geometry" />
        </mxCell>
        <mxCell id="8lVyGrlgalNdbQosUur5-74" value="Разраб." style="rounded=0;whiteSpace=wrap;html=1;fontFamily=Helvetica;fontStyle=2;align=left;" parent="8lVyGrlgalNdbQosUur5-69" vertex="1">
          <mxGeometry y="59.05000000000007" width="66.929" height="19.685" as="geometry" />
        </mxCell>
        <mxCell id="8lVyGrlgalNdbQosUur5-75" value="&lt;font style=&quot;font-size: 11px;&quot;&gt;Буйновский М.В.&lt;/font&gt;" style="rounded=0;whiteSpace=wrap;html=1;fontFamily=Helvetica;fontStyle=2;align=left;" parent="8lVyGrlgalNdbQosUur5-69" vertex="1">
          <mxGeometry x="66.93" y="59.04000000000008" width="90.551" height="19.685" as="geometry" />
        </mxCell>
        <mxCell id="8lVyGrlgalNdbQosUur5-76" value="&lt;font style=&quot;font-size: 11px;&quot;&gt;Савенко А.Г.&lt;/font&gt;" style="rounded=0;whiteSpace=wrap;html=1;fontFamily=Helvetica;fontStyle=2;align=left;" parent="8lVyGrlgalNdbQosUur5-69" vertex="1">
          <mxGeometry x="66.93" y="78.72000000000014" width="90.551" height="19.685" as="geometry" />
        </mxCell>
        <mxCell id="8lVyGrlgalNdbQosUur5-77" value="" style="rounded=0;whiteSpace=wrap;html=1;fontFamily=Helvetica;fontStyle=2;align=left;" parent="8lVyGrlgalNdbQosUur5-69" vertex="1">
          <mxGeometry x="66.93" y="98.42000000000019" width="90.551" height="19.685" as="geometry" />
        </mxCell>
        <mxCell id="8lVyGrlgalNdbQosUur5-78" value="" style="rounded=0;whiteSpace=wrap;html=1;fontSize=10;fontFamily=Helvetica;fontStyle=2;align=left;" parent="8lVyGrlgalNdbQosUur5-69" vertex="1">
          <mxGeometry x="66.93" y="118.10000000000025" width="90.551" height="19.685" as="geometry" />
        </mxCell>
        <mxCell id="8lVyGrlgalNdbQosUur5-79" value="" style="rounded=0;whiteSpace=wrap;html=1;fontFamily=Helvetica;fontStyle=2;align=left;" parent="8lVyGrlgalNdbQosUur5-69" vertex="1">
          <mxGeometry x="66.93" y="137.77000000000032" width="90.551" height="19.685" as="geometry" />
        </mxCell>
        <mxCell id="8lVyGrlgalNdbQosUur5-80" value="" style="rounded=0;whiteSpace=wrap;html=1;fontFamily=Helvetica;fontStyle=2;align=left;" parent="8lVyGrlgalNdbQosUur5-69" vertex="1">
          <mxGeometry x="157.48000000000002" y="137.77000000000032" width="59.055" height="19.685" as="geometry" />
        </mxCell>
        <mxCell id="8lVyGrlgalNdbQosUur5-81" value="" style="rounded=0;whiteSpace=wrap;html=1;fontFamily=Helvetica;fontStyle=2;align=left;" parent="8lVyGrlgalNdbQosUur5-69" vertex="1">
          <mxGeometry x="157.48000000000002" y="59.04000000000008" width="59.055" height="19.685" as="geometry" />
        </mxCell>
        <mxCell id="8lVyGrlgalNdbQosUur5-82" value="" style="rounded=0;whiteSpace=wrap;html=1;fontFamily=Helvetica;fontStyle=2;align=left;" parent="8lVyGrlgalNdbQosUur5-69" vertex="1">
          <mxGeometry x="157.48000000000002" y="78.72000000000014" width="59.055" height="19.685" as="geometry" />
        </mxCell>
        <mxCell id="8lVyGrlgalNdbQosUur5-83" value="" style="rounded=0;whiteSpace=wrap;html=1;fontFamily=Helvetica;fontStyle=2;align=left;" parent="8lVyGrlgalNdbQosUur5-69" vertex="1">
          <mxGeometry x="157.48000000000002" y="98.42000000000019" width="59.055" height="19.685" as="geometry" />
        </mxCell>
        <mxCell id="8lVyGrlgalNdbQosUur5-84" value="" style="rounded=0;whiteSpace=wrap;html=1;fontFamily=Helvetica;fontStyle=2;align=left;" parent="8lVyGrlgalNdbQosUur5-69" vertex="1">
          <mxGeometry x="157.48000000000002" y="118.10000000000025" width="59.055" height="19.685" as="geometry" />
        </mxCell>
        <mxCell id="8lVyGrlgalNdbQosUur5-85" value="" style="rounded=0;whiteSpace=wrap;html=1;fontFamily=Helvetica;fontStyle=2;align=left;" parent="8lVyGrlgalNdbQosUur5-69" vertex="1">
          <mxGeometry x="216.53000000000003" y="137.77000000000032" width="39.37" height="19.685" as="geometry" />
        </mxCell>
        <mxCell id="8lVyGrlgalNdbQosUur5-86" value="" style="rounded=0;whiteSpace=wrap;html=1;fontFamily=Helvetica;fontStyle=2;align=left;" parent="8lVyGrlgalNdbQosUur5-69" vertex="1">
          <mxGeometry x="216.53000000000003" y="59.04000000000008" width="39.37" height="19.685" as="geometry" />
        </mxCell>
        <mxCell id="8lVyGrlgalNdbQosUur5-87" value="" style="rounded=0;whiteSpace=wrap;html=1;fontFamily=Helvetica;fontStyle=2;align=left;" parent="8lVyGrlgalNdbQosUur5-69" vertex="1">
          <mxGeometry x="216.53000000000003" y="78.72000000000014" width="39.37" height="19.685" as="geometry" />
        </mxCell>
        <mxCell id="8lVyGrlgalNdbQosUur5-88" value="" style="rounded=0;whiteSpace=wrap;html=1;fontFamily=Helvetica;fontStyle=2;align=left;" parent="8lVyGrlgalNdbQosUur5-69" vertex="1">
          <mxGeometry x="216.53000000000003" y="98.42000000000019" width="39.37" height="19.685" as="geometry" />
        </mxCell>
        <mxCell id="8lVyGrlgalNdbQosUur5-89" value="" style="rounded=0;whiteSpace=wrap;html=1;fontFamily=Helvetica;fontStyle=2;align=left;" parent="8lVyGrlgalNdbQosUur5-69" vertex="1">
          <mxGeometry x="216.53000000000003" y="118.10000000000025" width="39.37" height="19.685" as="geometry" />
        </mxCell>
        <mxCell id="8lVyGrlgalNdbQosUur5-90" value="№ докум." style="rounded=0;whiteSpace=wrap;html=1;fontFamily=Helvetica;fontStyle=2;align=center;" parent="8lVyGrlgalNdbQosUur5-69" vertex="1">
          <mxGeometry x="66.93" y="39.360000000000014" width="90.551" height="19.685" as="geometry" />
        </mxCell>
        <mxCell id="8lVyGrlgalNdbQosUur5-91" value="Подп." style="rounded=0;whiteSpace=wrap;html=1;fontFamily=Helvetica;fontStyle=2;align=center;" parent="8lVyGrlgalNdbQosUur5-69" vertex="1">
          <mxGeometry x="157.48000000000002" y="39.360000000000014" width="59.055" height="19.685" as="geometry" />
        </mxCell>
        <mxCell id="8lVyGrlgalNdbQosUur5-92" value="Дата" style="rounded=0;whiteSpace=wrap;html=1;fontFamily=Helvetica;fontStyle=2;align=center;" parent="8lVyGrlgalNdbQosUur5-69" vertex="1">
          <mxGeometry x="216.53000000000003" y="39.360000000000014" width="39.37" height="19.685" as="geometry" />
        </mxCell>
        <mxCell id="8lVyGrlgalNdbQosUur5-93" value="" style="rounded=0;whiteSpace=wrap;html=1;fontFamily=Helvetica;fontStyle=2;align=left;" parent="8lVyGrlgalNdbQosUur5-69" vertex="1">
          <mxGeometry x="66.93" y="19.67999999999995" width="90.551" height="19.685" as="geometry" />
        </mxCell>
        <mxCell id="8lVyGrlgalNdbQosUur5-94" value="" style="rounded=0;whiteSpace=wrap;html=1;fontFamily=Helvetica;fontStyle=2;align=left;" parent="8lVyGrlgalNdbQosUur5-69" vertex="1">
          <mxGeometry x="157.48000000000002" y="19.67999999999995" width="59.055" height="19.685" as="geometry" />
        </mxCell>
        <mxCell id="8lVyGrlgalNdbQosUur5-95" value="" style="rounded=0;whiteSpace=wrap;html=1;fontFamily=Helvetica;fontStyle=2;align=left;" parent="8lVyGrlgalNdbQosUur5-69" vertex="1">
          <mxGeometry x="216.53000000000003" y="19.67999999999995" width="39.37" height="19.685" as="geometry" />
        </mxCell>
        <mxCell id="8lVyGrlgalNdbQosUur5-96" value="" style="rounded=0;whiteSpace=wrap;html=1;fontFamily=Helvetica;fontStyle=2;align=left;" parent="8lVyGrlgalNdbQosUur5-69" vertex="1">
          <mxGeometry x="66.93" width="90.551" height="19.685" as="geometry" />
        </mxCell>
        <mxCell id="8lVyGrlgalNdbQosUur5-97" value="" style="rounded=0;whiteSpace=wrap;html=1;fontFamily=Helvetica;fontStyle=2;align=left;" parent="8lVyGrlgalNdbQosUur5-69" vertex="1">
          <mxGeometry x="157.48000000000002" width="59.055" height="19.685" as="geometry" />
        </mxCell>
        <mxCell id="8lVyGrlgalNdbQosUur5-98" value="" style="rounded=0;whiteSpace=wrap;html=1;fontFamily=Helvetica;fontStyle=2;align=left;" parent="8lVyGrlgalNdbQosUur5-69" vertex="1">
          <mxGeometry x="216.53000000000003" width="39.37" height="19.685" as="geometry" />
        </mxCell>
        <mxCell id="8lVyGrlgalNdbQosUur5-99" value="Изм." style="rounded=0;whiteSpace=wrap;html=1;fontFamily=Helvetica;fontStyle=2;align=center;" parent="8lVyGrlgalNdbQosUur5-69" vertex="1">
          <mxGeometry y="39.360000000000014" width="27.558999999999997" height="19.685" as="geometry" />
        </mxCell>
        <mxCell id="8lVyGrlgalNdbQosUur5-100" value="Л." style="rounded=0;whiteSpace=wrap;html=1;fontFamily=Helvetica;fontStyle=2;align=center;" parent="8lVyGrlgalNdbQosUur5-69" vertex="1">
          <mxGeometry x="27.56" y="39.360000000000014" width="39.37" height="19.685" as="geometry" />
        </mxCell>
        <mxCell id="8lVyGrlgalNdbQosUur5-101" value="" style="rounded=0;whiteSpace=wrap;html=1;fontFamily=Helvetica;fontStyle=2;align=left;" parent="8lVyGrlgalNdbQosUur5-69" vertex="1">
          <mxGeometry y="19.67999999999995" width="27.558999999999997" height="19.685" as="geometry" />
        </mxCell>
        <mxCell id="8lVyGrlgalNdbQosUur5-102" value="" style="rounded=0;whiteSpace=wrap;html=1;fontFamily=Helvetica;fontStyle=2;align=left;" parent="8lVyGrlgalNdbQosUur5-69" vertex="1">
          <mxGeometry x="27.56" y="19.67999999999995" width="39.37" height="19.685" as="geometry" />
        </mxCell>
        <mxCell id="8lVyGrlgalNdbQosUur5-103" value="" style="rounded=0;whiteSpace=wrap;html=1;fontFamily=Helvetica;fontStyle=2;align=left;" parent="8lVyGrlgalNdbQosUur5-69" vertex="1">
          <mxGeometry width="27.558999999999997" height="19.685" as="geometry" />
        </mxCell>
        <mxCell id="8lVyGrlgalNdbQosUur5-104" value="" style="rounded=0;whiteSpace=wrap;html=1;fontFamily=Helvetica;fontStyle=2;align=left;" parent="8lVyGrlgalNdbQosUur5-69" vertex="1">
          <mxGeometry x="27.56" width="39.37" height="19.685" as="geometry" />
        </mxCell>
        <mxCell id="8lVyGrlgalNdbQosUur5-105" value="Блок-схема алгоритма&lt;br&gt;&quot;Алгоритм Дейкстры&quot;" style="rounded=0;whiteSpace=wrap;html=1;fontFamily=Helvetica;fontStyle=2;align=center;" parent="8lVyGrlgalNdbQosUur5-69" vertex="1">
          <mxGeometry x="255.9" y="59.030000000000314" width="275.59" height="98.425" as="geometry" />
        </mxCell>
        <mxCell id="8lVyGrlgalNdbQosUur5-106" value="ГУИР.281073.002" style="rounded=0;whiteSpace=wrap;html=1;fontFamily=Helvetica;fontStyle=2;align=center;" parent="8lVyGrlgalNdbQosUur5-69" vertex="1">
          <mxGeometry x="255.9" y="3.410605131648481e-13" width="275.59" height="59.055" as="geometry" />
        </mxCell>
        <mxCell id="8lVyGrlgalNdbQosUur5-107" value="" style="rounded=0;whiteSpace=wrap;html=1;fontFamily=Helvetica;fontStyle=2;align=center;" parent="8lVyGrlgalNdbQosUur5-69" vertex="1">
          <mxGeometry x="531.49" y="3.410605131648481e-13" width="196.85" height="59.055" as="geometry" />
        </mxCell>
        <mxCell id="8lVyGrlgalNdbQosUur5-108" value="ФКТ, гр. 281073" style="rounded=0;whiteSpace=wrap;html=1;fontFamily=Helvetica;fontStyle=2;align=center;" parent="8lVyGrlgalNdbQosUur5-69" vertex="1">
          <mxGeometry x="531.49" y="98.40000000000043" width="196.85" height="59.055" as="geometry" />
        </mxCell>
        <mxCell id="8lVyGrlgalNdbQosUur5-109" value="Лит." style="rounded=0;whiteSpace=wrap;html=1;fontFamily=Helvetica;fontStyle=2;align=center;" parent="8lVyGrlgalNdbQosUur5-69" vertex="1">
          <mxGeometry x="531.49" y="59.050000000000296" width="59.055" height="19.685" as="geometry" />
        </mxCell>
        <mxCell id="8lVyGrlgalNdbQosUur5-110" value="Лист." style="rounded=0;whiteSpace=wrap;html=1;fontFamily=Helvetica;fontStyle=2;align=center;" parent="8lVyGrlgalNdbQosUur5-69" vertex="1">
          <mxGeometry x="590.54" y="59.030000000000314" width="59.055" height="19.685" as="geometry" />
        </mxCell>
        <mxCell id="8lVyGrlgalNdbQosUur5-111" value="Листов" style="rounded=0;whiteSpace=wrap;html=1;fontFamily=Helvetica;fontStyle=2;align=center;" parent="8lVyGrlgalNdbQosUur5-69" vertex="1">
          <mxGeometry x="649.5899999999999" y="59.030000000000314" width="78.74" height="19.685" as="geometry" />
        </mxCell>
        <mxCell id="8lVyGrlgalNdbQosUur5-112" value="2" style="rounded=0;whiteSpace=wrap;html=1;fontFamily=Helvetica;fontStyle=2;align=center;" parent="8lVyGrlgalNdbQosUur5-69" vertex="1">
          <mxGeometry x="590.55" y="78.71000000000038" width="59.055" height="19.685" as="geometry" />
        </mxCell>
        <mxCell id="8lVyGrlgalNdbQosUur5-113" value="3" style="rounded=0;whiteSpace=wrap;html=1;fontFamily=Helvetica;fontStyle=2;align=center;" parent="8lVyGrlgalNdbQosUur5-69" vertex="1">
          <mxGeometry x="649.6099999999999" y="78.71000000000038" width="78.74" height="19.685" as="geometry" />
        </mxCell>
        <mxCell id="8lVyGrlgalNdbQosUur5-114" value="" style="rounded=0;whiteSpace=wrap;html=1;fontFamily=Helvetica;fontStyle=2;align=center;" parent="8lVyGrlgalNdbQosUur5-69" vertex="1">
          <mxGeometry x="531.49" y="78.73000000000036" width="19.685" height="19.685" as="geometry" />
        </mxCell>
        <mxCell id="8lVyGrlgalNdbQosUur5-115" value="Т" style="rounded=0;whiteSpace=wrap;html=1;fontFamily=Helvetica;fontStyle=2;align=center;" parent="8lVyGrlgalNdbQosUur5-69" vertex="1">
          <mxGeometry x="551.17" y="78.71000000000038" width="19.685" height="19.685" as="geometry" />
        </mxCell>
        <mxCell id="8lVyGrlgalNdbQosUur5-116" value="" style="rounded=0;whiteSpace=wrap;html=1;fontFamily=Helvetica;fontStyle=2;align=center;" parent="8lVyGrlgalNdbQosUur5-69" vertex="1">
          <mxGeometry x="570.8499999999999" y="78.73000000000036" width="19.685" height="19.685" as="geometry" />
        </mxCell>
        <mxCell id="8lVyGrlgalNdbQosUur5-216" value="" style="group;aspect=fixed;" parent="8lVyGrlgalNdbQosUur5-1" vertex="1" connectable="0">
          <mxGeometry x="310" y="80" width="1078.74" height="940.0000000000001" as="geometry" />
        </mxCell>
        <mxCell id="W7sxkVH239xzY6D_1Smx-1" value="" style="group" parent="8lVyGrlgalNdbQosUur5-216" vertex="1" connectable="0">
          <mxGeometry width="1078.74" height="900" as="geometry" />
        </mxCell>
        <mxCell id="W7sxkVH239xzY6D_1Smx-3" value="" style="group" parent="W7sxkVH239xzY6D_1Smx-1" vertex="1" connectable="0">
          <mxGeometry y="0.6300000000001091" width="569.37" height="899.3699999999999" as="geometry" />
        </mxCell>
        <mxCell id="8lVyGrlgalNdbQosUur5-117" value="Начало" style="strokeWidth=1;html=1;shape=stencil(xVXBboMwDP0ajkxAtK49Tqw79rJJO7vUpVFDgpysdH+/0IBaoDCayyQO+Bne83NsJWCpPkCJQRJJKDBgb0GSfCIVXIJRZAObOTh4EbmwcuFq6ULQJWbGYScgDluBLqMNqSNWfGcaBi4PSNzUWbYOolf7Tf2wNFNSWhKupO5kbvKWDLi0/0ZnRxY9PTuZnyZ2UWkVCjRIHfRqbuOAIHn3VornKX14KHUdtbp/KX09rhT7Ka19uhf3xeKZHdx4GLsjt1zNPDAvuZb9cXdezRzIzXY3IsdSi4wtIEu3kB1zUt9yd7fIEurlHiTadKFOeK2+P99T/lsGweUNw8vycQagzL5QrwZqKFgTn0M4cx2SMlC3ocMvgHIMLU+4F5B3UrpCLG/g5uzvl7vwcNzr2TyKf7Tsc8aZUBonNsHigzm7oCPDydK9IpyY2j0Xwt1OYwsxILig7q68AL8=);whiteSpace=wrap;aspect=fixed;" parent="W7sxkVH239xzY6D_1Smx-3" vertex="1">
          <mxGeometry y="0.6300000000001091" width="118.11" height="39.37" as="geometry" />
        </mxCell>
        <mxCell id="8lVyGrlgalNdbQosUur5-118" value="&amp;nbsp;dijkstra_search(graph, start, goal)" style="strokeWidth=1;html=1;shape=mxgraph.flowchart.annotation_2;align=left;labelPosition=right;pointerEvents=1;" parent="W7sxkVH239xzY6D_1Smx-3" vertex="1">
          <mxGeometry x="150" width="39.37" height="40" as="geometry" />
        </mxCell>
        <mxCell id="8lVyGrlgalNdbQosUur5-120" style="edgeStyle=orthogonalEdgeStyle;rounded=0;orthogonalLoop=1;jettySize=auto;html=1;endArrow=none;endFill=0;dashed=1;" parent="W7sxkVH239xzY6D_1Smx-3" source="8lVyGrlgalNdbQosUur5-117" target="8lVyGrlgalNdbQosUur5-118" edge="1">
          <mxGeometry relative="1" as="geometry" />
        </mxCell>
        <mxCell id="8lVyGrlgalNdbQosUur5-121" value="Создать очередь с приоритетами frontier" style="rounded=0;whiteSpace=wrap;html=1;aspect=fixed;" parent="W7sxkVH239xzY6D_1Smx-3" vertex="1">
          <mxGeometry y="80" width="118.11" height="78.74" as="geometry" />
        </mxCell>
        <mxCell id="8lVyGrlgalNdbQosUur5-125" style="edgeStyle=orthogonalEdgeStyle;rounded=0;orthogonalLoop=1;jettySize=auto;html=1;endArrow=none;endFill=0;" parent="W7sxkVH239xzY6D_1Smx-3" source="8lVyGrlgalNdbQosUur5-117" target="8lVyGrlgalNdbQosUur5-121" edge="1">
          <mxGeometry relative="1" as="geometry" />
        </mxCell>
        <mxCell id="8lVyGrlgalNdbQosUur5-122" value="Добавить в frontier start с весом 0" style="rounded=0;whiteSpace=wrap;html=1;aspect=fixed;" parent="W7sxkVH239xzY6D_1Smx-3" vertex="1">
          <mxGeometry y="200" width="118.11" height="78.74" as="geometry" />
        </mxCell>
        <mxCell id="8lVyGrlgalNdbQosUur5-126" style="edgeStyle=orthogonalEdgeStyle;rounded=0;orthogonalLoop=1;jettySize=auto;html=1;endArrow=none;endFill=0;" parent="W7sxkVH239xzY6D_1Smx-3" source="8lVyGrlgalNdbQosUur5-121" target="8lVyGrlgalNdbQosUur5-122" edge="1">
          <mxGeometry relative="1" as="geometry" />
        </mxCell>
        <mxCell id="8lVyGrlgalNdbQosUur5-128" value="Создать ассоциативный массив came_from" style="rounded=0;whiteSpace=wrap;html=1;aspect=fixed;" parent="W7sxkVH239xzY6D_1Smx-3" vertex="1">
          <mxGeometry y="320" width="118.11" height="78.74" as="geometry" />
        </mxCell>
        <mxCell id="8lVyGrlgalNdbQosUur5-133" style="edgeStyle=orthogonalEdgeStyle;rounded=0;orthogonalLoop=1;jettySize=auto;html=1;endArrow=none;endFill=0;" parent="W7sxkVH239xzY6D_1Smx-3" source="8lVyGrlgalNdbQosUur5-122" target="8lVyGrlgalNdbQosUur5-128" edge="1">
          <mxGeometry relative="1" as="geometry" />
        </mxCell>
        <mxCell id="8lVyGrlgalNdbQosUur5-129" value="Добавить в came_from элемент start со значением start" style="rounded=0;whiteSpace=wrap;html=1;aspect=fixed;" parent="W7sxkVH239xzY6D_1Smx-3" vertex="1">
          <mxGeometry y="440" width="118.11" height="78.74" as="geometry" />
        </mxCell>
        <mxCell id="8lVyGrlgalNdbQosUur5-127" style="edgeStyle=orthogonalEdgeStyle;rounded=0;orthogonalLoop=1;jettySize=auto;html=1;endArrow=none;endFill=0;" parent="W7sxkVH239xzY6D_1Smx-3" source="8lVyGrlgalNdbQosUur5-128" target="8lVyGrlgalNdbQosUur5-129" edge="1">
          <mxGeometry relative="1" as="geometry" />
        </mxCell>
        <mxCell id="8lVyGrlgalNdbQosUur5-131" value="Создать ассоциативный массив cost_so_far" style="rounded=0;whiteSpace=wrap;html=1;aspect=fixed;" parent="W7sxkVH239xzY6D_1Smx-3" vertex="1">
          <mxGeometry y="560" width="118.11" height="78.74" as="geometry" />
        </mxCell>
        <mxCell id="8lVyGrlgalNdbQosUur5-134" style="edgeStyle=orthogonalEdgeStyle;rounded=0;orthogonalLoop=1;jettySize=auto;html=1;endArrow=none;endFill=0;" parent="W7sxkVH239xzY6D_1Smx-3" source="8lVyGrlgalNdbQosUur5-129" target="8lVyGrlgalNdbQosUur5-131" edge="1">
          <mxGeometry relative="1" as="geometry" />
        </mxCell>
        <mxCell id="8lVyGrlgalNdbQosUur5-132" value="Добавить в cost_so_far элемент start со значением 0" style="rounded=0;whiteSpace=wrap;html=1;aspect=fixed;" parent="W7sxkVH239xzY6D_1Smx-3" vertex="1">
          <mxGeometry y="680" width="118.11" height="78.74" as="geometry" />
        </mxCell>
        <mxCell id="8lVyGrlgalNdbQosUur5-130" style="edgeStyle=orthogonalEdgeStyle;rounded=0;orthogonalLoop=1;jettySize=auto;html=1;endArrow=none;endFill=0;" parent="W7sxkVH239xzY6D_1Smx-3" source="8lVyGrlgalNdbQosUur5-131" target="8lVyGrlgalNdbQosUur5-132" edge="1">
          <mxGeometry relative="1" as="geometry" />
        </mxCell>
        <mxCell id="8lVyGrlgalNdbQosUur5-135" value="1" style="ellipse;whiteSpace=wrap;html=1;aspect=fixed;" parent="W7sxkVH239xzY6D_1Smx-3" vertex="1">
          <mxGeometry x="39" y="800" width="39.37" height="39.37" as="geometry" />
        </mxCell>
        <mxCell id="8lVyGrlgalNdbQosUur5-136" style="edgeStyle=orthogonalEdgeStyle;rounded=0;orthogonalLoop=1;jettySize=auto;html=1;endArrow=none;endFill=0;" parent="W7sxkVH239xzY6D_1Smx-3" source="8lVyGrlgalNdbQosUur5-132" target="8lVyGrlgalNdbQosUur5-135" edge="1">
          <mxGeometry relative="1" as="geometry" />
        </mxCell>
        <mxCell id="8lVyGrlgalNdbQosUur5-137" value="frontier пока не пустой" style="shape=loopLimit;whiteSpace=wrap;html=1;aspect=fixed;" parent="W7sxkVH239xzY6D_1Smx-3" vertex="1">
          <mxGeometry x="199.63" y="140" width="118.11" height="78.74" as="geometry" />
        </mxCell>
        <mxCell id="8lVyGrlgalNdbQosUur5-139" style="edgeStyle=orthogonalEdgeStyle;rounded=0;orthogonalLoop=1;jettySize=auto;html=1;endArrow=none;endFill=0;" parent="W7sxkVH239xzY6D_1Smx-3" source="8lVyGrlgalNdbQosUur5-138" target="8lVyGrlgalNdbQosUur5-137" edge="1">
          <mxGeometry relative="1" as="geometry" />
        </mxCell>
        <mxCell id="8lVyGrlgalNdbQosUur5-138" value="1" style="ellipse;whiteSpace=wrap;html=1;aspect=fixed;" parent="W7sxkVH239xzY6D_1Smx-3" vertex="1">
          <mxGeometry x="239" y="60" width="39.37" height="39.37" as="geometry" />
        </mxCell>
        <mxCell id="8lVyGrlgalNdbQosUur5-140" value="current = достать первый элемент frontier" style="rounded=0;whiteSpace=wrap;html=1;aspect=fixed;" parent="W7sxkVH239xzY6D_1Smx-3" vertex="1">
          <mxGeometry x="199.63" y="260" width="118.11" height="78.74" as="geometry" />
        </mxCell>
        <mxCell id="8lVyGrlgalNdbQosUur5-147" style="edgeStyle=orthogonalEdgeStyle;rounded=0;orthogonalLoop=1;jettySize=auto;html=1;endArrow=none;endFill=0;" parent="W7sxkVH239xzY6D_1Smx-3" source="8lVyGrlgalNdbQosUur5-137" target="8lVyGrlgalNdbQosUur5-140" edge="1">
          <mxGeometry relative="1" as="geometry" />
        </mxCell>
        <mxCell id="8lVyGrlgalNdbQosUur5-153" value="Да" style="edgeStyle=orthogonalEdgeStyle;rounded=0;orthogonalLoop=1;jettySize=auto;html=1;endArrow=none;endFill=0;" parent="W7sxkVH239xzY6D_1Smx-3" source="8lVyGrlgalNdbQosUur5-141" edge="1">
          <mxGeometry x="-0.9576" y="9" relative="1" as="geometry">
            <mxPoint x="259.05500000000006" y="880" as="targetPoint" />
            <Array as="points">
              <mxPoint x="340" y="419" />
              <mxPoint x="340" y="880" />
            </Array>
            <mxPoint as="offset" />
          </mxGeometry>
        </mxCell>
        <mxCell id="8lVyGrlgalNdbQosUur5-141" value="current = goal" style="rhombus;whiteSpace=wrap;html=1;aspect=fixed;" parent="W7sxkVH239xzY6D_1Smx-3" vertex="1">
          <mxGeometry x="200" y="380" width="118.11" height="78.74" as="geometry" />
        </mxCell>
        <mxCell id="8lVyGrlgalNdbQosUur5-148" style="edgeStyle=orthogonalEdgeStyle;rounded=0;orthogonalLoop=1;jettySize=auto;html=1;endArrow=none;endFill=0;" parent="W7sxkVH239xzY6D_1Smx-3" source="8lVyGrlgalNdbQosUur5-140" target="8lVyGrlgalNdbQosUur5-141" edge="1">
          <mxGeometry relative="1" as="geometry" />
        </mxCell>
        <mxCell id="8lVyGrlgalNdbQosUur5-142" value="neighbors = соседи current" style="shape=process;whiteSpace=wrap;html=1;backgroundOutline=1;aspect=fixed;" parent="W7sxkVH239xzY6D_1Smx-3" vertex="1">
          <mxGeometry x="200" y="500" width="118.11" height="78.74" as="geometry" />
        </mxCell>
        <mxCell id="8lVyGrlgalNdbQosUur5-149" value="Нет" style="edgeStyle=orthogonalEdgeStyle;rounded=0;orthogonalLoop=1;jettySize=auto;html=1;endArrow=none;endFill=0;" parent="W7sxkVH239xzY6D_1Smx-3" source="8lVyGrlgalNdbQosUur5-141" target="8lVyGrlgalNdbQosUur5-142" edge="1">
          <mxGeometry x="-0.4542" relative="1" as="geometry">
            <mxPoint as="offset" />
          </mxGeometry>
        </mxCell>
        <mxCell id="8lVyGrlgalNdbQosUur5-143" value="2" style="ellipse;whiteSpace=wrap;html=1;aspect=fixed;" parent="W7sxkVH239xzY6D_1Smx-3" vertex="1">
          <mxGeometry x="239" y="620" width="39.37" height="39.37" as="geometry" />
        </mxCell>
        <mxCell id="8lVyGrlgalNdbQosUur5-150" style="edgeStyle=orthogonalEdgeStyle;rounded=0;orthogonalLoop=1;jettySize=auto;html=1;endArrow=none;endFill=0;" parent="W7sxkVH239xzY6D_1Smx-3" source="8lVyGrlgalNdbQosUur5-142" target="8lVyGrlgalNdbQosUur5-143" edge="1">
          <mxGeometry relative="1" as="geometry" />
        </mxCell>
        <mxCell id="8lVyGrlgalNdbQosUur5-144" value="Конец 2" style="ellipse;whiteSpace=wrap;html=1;aspect=fixed;fontSize=11;" parent="W7sxkVH239xzY6D_1Smx-3" vertex="1">
          <mxGeometry x="239" y="700" width="39.37" height="39.37" as="geometry" />
        </mxCell>
        <mxCell id="8lVyGrlgalNdbQosUur5-145" value="frontier" style="shape=loopLimit;whiteSpace=wrap;html=1;aspect=fixed;direction=west;" parent="W7sxkVH239xzY6D_1Smx-3" vertex="1">
          <mxGeometry x="199" y="781" width="118.11" height="78.74" as="geometry" />
        </mxCell>
        <mxCell id="8lVyGrlgalNdbQosUur5-151" style="edgeStyle=orthogonalEdgeStyle;rounded=0;orthogonalLoop=1;jettySize=auto;html=1;endArrow=none;endFill=0;" parent="W7sxkVH239xzY6D_1Smx-3" source="8lVyGrlgalNdbQosUur5-144" target="8lVyGrlgalNdbQosUur5-145" edge="1">
          <mxGeometry relative="1" as="geometry">
            <Array as="points">
              <mxPoint x="259" y="760" />
              <mxPoint x="258" y="760" />
            </Array>
          </mxGeometry>
        </mxCell>
        <mxCell id="8lVyGrlgalNdbQosUur5-156" value="1" style="ellipse;whiteSpace=wrap;html=1;aspect=fixed;" parent="W7sxkVH239xzY6D_1Smx-3" vertex="1">
          <mxGeometry x="419.37" width="39.37" height="39.37" as="geometry" />
        </mxCell>
        <mxCell id="8lVyGrlgalNdbQosUur5-157" value="next = начало neighbors; конец neighbors;&lt;br&gt;1" style="shape=hexagon;perimeter=hexagonPerimeter2;whiteSpace=wrap;html=1;fixedSize=1;aspect=fixed;fontFamily=Helvetica;fontSize=11;fontColor=default;" parent="W7sxkVH239xzY6D_1Smx-3" vertex="1">
          <mxGeometry x="380" y="80" width="118.11" height="78.74" as="geometry" />
        </mxCell>
        <mxCell id="8lVyGrlgalNdbQosUur5-158" style="edgeStyle=orthogonalEdgeStyle;shape=connector;rounded=0;orthogonalLoop=1;jettySize=auto;html=1;labelBackgroundColor=default;strokeColor=default;fontFamily=Helvetica;fontSize=11;fontColor=default;endArrow=none;endFill=0;" parent="W7sxkVH239xzY6D_1Smx-3" source="8lVyGrlgalNdbQosUur5-156" target="8lVyGrlgalNdbQosUur5-157" edge="1">
          <mxGeometry relative="1" as="geometry" />
        </mxCell>
        <mxCell id="8lVyGrlgalNdbQosUur5-159" value="Конец 2" style="ellipse;whiteSpace=wrap;html=1;aspect=fixed;fontFamily=Helvetica;fontSize=11;fontColor=default;" parent="W7sxkVH239xzY6D_1Smx-3" vertex="1">
          <mxGeometry x="520" y="159.69000000000005" width="39.37" height="39.37" as="geometry" />
        </mxCell>
        <mxCell id="8lVyGrlgalNdbQosUur5-160" style="edgeStyle=orthogonalEdgeStyle;shape=connector;rounded=0;orthogonalLoop=1;jettySize=auto;html=1;labelBackgroundColor=default;strokeColor=default;fontFamily=Helvetica;fontSize=11;fontColor=default;endArrow=none;endFill=0;" parent="W7sxkVH239xzY6D_1Smx-3" source="8lVyGrlgalNdbQosUur5-157" target="8lVyGrlgalNdbQosUur5-159" edge="1">
          <mxGeometry relative="1" as="geometry" />
        </mxCell>
        <mxCell id="8lVyGrlgalNdbQosUur5-161" value="graph_cost = вес между current и next" style="shape=process;whiteSpace=wrap;html=1;backgroundOutline=1;aspect=fixed;fontFamily=Helvetica;fontSize=11;fontColor=default;" parent="W7sxkVH239xzY6D_1Smx-3" vertex="1">
          <mxGeometry x="380" y="200" width="118.11" height="78.74" as="geometry" />
        </mxCell>
        <mxCell id="8lVyGrlgalNdbQosUur5-162" style="edgeStyle=orthogonalEdgeStyle;shape=connector;rounded=0;orthogonalLoop=1;jettySize=auto;html=1;labelBackgroundColor=default;strokeColor=default;fontFamily=Helvetica;fontSize=11;fontColor=default;endArrow=none;endFill=0;" parent="W7sxkVH239xzY6D_1Smx-3" source="8lVyGrlgalNdbQosUur5-157" target="8lVyGrlgalNdbQosUur5-161" edge="1">
          <mxGeometry relative="1" as="geometry" />
        </mxCell>
        <mxCell id="8lVyGrlgalNdbQosUur5-164" value="new_cost = cost_so_far[current] + graph_cost" style="rounded=0;whiteSpace=wrap;html=1;aspect=fixed;fontFamily=Helvetica;fontSize=11;fontColor=default;" parent="W7sxkVH239xzY6D_1Smx-3" vertex="1">
          <mxGeometry x="380" y="320" width="118.11" height="78.74" as="geometry" />
        </mxCell>
        <mxCell id="8lVyGrlgalNdbQosUur5-170" style="edgeStyle=orthogonalEdgeStyle;shape=connector;rounded=0;orthogonalLoop=1;jettySize=auto;html=1;labelBackgroundColor=default;strokeColor=default;fontFamily=Helvetica;fontSize=11;fontColor=default;endArrow=none;endFill=0;" parent="W7sxkVH239xzY6D_1Smx-3" source="8lVyGrlgalNdbQosUur5-161" target="8lVyGrlgalNdbQosUur5-164" edge="1">
          <mxGeometry relative="1" as="geometry" />
        </mxCell>
        <mxCell id="8lVyGrlgalNdbQosUur5-176" value="Нет" style="edgeStyle=orthogonalEdgeStyle;shape=connector;rounded=0;orthogonalLoop=1;jettySize=auto;html=1;labelBackgroundColor=default;strokeColor=default;fontFamily=Helvetica;fontSize=11;fontColor=default;endArrow=none;endFill=0;" parent="W7sxkVH239xzY6D_1Smx-3" source="8lVyGrlgalNdbQosUur5-165" edge="1">
          <mxGeometry x="-0.0497" y="-9" relative="1" as="geometry">
            <mxPoint x="360" y="479.3699999999999" as="targetPoint" />
            <mxPoint as="offset" />
          </mxGeometry>
        </mxCell>
        <mxCell id="8lVyGrlgalNdbQosUur5-165" value="Условие" style="rhombus;whiteSpace=wrap;html=1;aspect=fixed;fontFamily=Helvetica;fontSize=11;fontColor=default;" parent="W7sxkVH239xzY6D_1Smx-3" vertex="1">
          <mxGeometry x="380" y="440" width="118.11" height="78.74" as="geometry" />
        </mxCell>
        <mxCell id="8lVyGrlgalNdbQosUur5-171" style="edgeStyle=orthogonalEdgeStyle;shape=connector;rounded=0;orthogonalLoop=1;jettySize=auto;html=1;labelBackgroundColor=default;strokeColor=default;fontFamily=Helvetica;fontSize=11;fontColor=default;endArrow=none;endFill=0;" parent="W7sxkVH239xzY6D_1Smx-3" source="8lVyGrlgalNdbQosUur5-164" target="8lVyGrlgalNdbQosUur5-165" edge="1">
          <mxGeometry relative="1" as="geometry" />
        </mxCell>
        <mxCell id="8lVyGrlgalNdbQosUur5-166" value="Добавить в cost_so_far элемент next со значением new_cost" style="rounded=0;whiteSpace=wrap;html=1;aspect=fixed;fontFamily=Helvetica;fontSize=11;fontColor=default;" parent="W7sxkVH239xzY6D_1Smx-3" vertex="1">
          <mxGeometry x="380" y="560" width="118.11" height="78.74" as="geometry" />
        </mxCell>
        <mxCell id="8lVyGrlgalNdbQosUur5-172" value="Да" style="edgeStyle=orthogonalEdgeStyle;shape=connector;rounded=0;orthogonalLoop=1;jettySize=auto;html=1;labelBackgroundColor=default;strokeColor=default;fontFamily=Helvetica;fontSize=11;fontColor=default;endArrow=none;endFill=0;" parent="W7sxkVH239xzY6D_1Smx-3" source="8lVyGrlgalNdbQosUur5-165" target="8lVyGrlgalNdbQosUur5-166" edge="1">
          <mxGeometry x="-0.4542" relative="1" as="geometry">
            <mxPoint as="offset" />
          </mxGeometry>
        </mxCell>
        <mxCell id="8lVyGrlgalNdbQosUur5-167" value="Добавить в came_from элемент next со значением current" style="rounded=0;whiteSpace=wrap;html=1;aspect=fixed;fontFamily=Helvetica;fontSize=11;fontColor=default;" parent="W7sxkVH239xzY6D_1Smx-3" vertex="1">
          <mxGeometry x="380" y="680" width="118.11" height="78.74" as="geometry" />
        </mxCell>
        <mxCell id="8lVyGrlgalNdbQosUur5-173" style="edgeStyle=orthogonalEdgeStyle;shape=connector;rounded=0;orthogonalLoop=1;jettySize=auto;html=1;labelBackgroundColor=default;strokeColor=default;fontFamily=Helvetica;fontSize=11;fontColor=default;endArrow=none;endFill=0;" parent="W7sxkVH239xzY6D_1Smx-3" source="8lVyGrlgalNdbQosUur5-166" target="8lVyGrlgalNdbQosUur5-167" edge="1">
          <mxGeometry relative="1" as="geometry" />
        </mxCell>
        <mxCell id="8lVyGrlgalNdbQosUur5-168" value="Добавить в frontier next с весом new_cost" style="rounded=0;whiteSpace=wrap;html=1;aspect=fixed;fontFamily=Helvetica;fontSize=11;fontColor=default;" parent="W7sxkVH239xzY6D_1Smx-3" vertex="1">
          <mxGeometry x="380" y="800" width="118.11" height="78.74" as="geometry" />
        </mxCell>
        <mxCell id="8lVyGrlgalNdbQosUur5-174" style="edgeStyle=orthogonalEdgeStyle;shape=connector;rounded=0;orthogonalLoop=1;jettySize=auto;html=1;labelBackgroundColor=default;strokeColor=default;fontFamily=Helvetica;fontSize=11;fontColor=default;endArrow=none;endFill=0;" parent="W7sxkVH239xzY6D_1Smx-3" source="8lVyGrlgalNdbQosUur5-167" target="8lVyGrlgalNdbQosUur5-168" edge="1">
          <mxGeometry relative="1" as="geometry" />
        </mxCell>
        <mxCell id="8lVyGrlgalNdbQosUur5-169" value="Не нашел cost_so_far[next]&lt;br&gt;или new_cost &amp;lt; cost_so_far[next]" style="strokeWidth=1;html=1;shape=mxgraph.flowchart.annotation_2;align=left;labelPosition=right;pointerEvents=1;fontFamily=Helvetica;fontSize=11;fontColor=default;" parent="W7sxkVH239xzY6D_1Smx-3" vertex="1">
          <mxGeometry x="540" y="460" width="39.37" height="38.74" as="geometry" />
        </mxCell>
        <mxCell id="8lVyGrlgalNdbQosUur5-177" style="edgeStyle=orthogonalEdgeStyle;shape=connector;rounded=0;orthogonalLoop=1;jettySize=auto;html=1;labelBackgroundColor=default;strokeColor=default;fontFamily=Helvetica;fontSize=11;fontColor=default;endArrow=none;endFill=0;dashed=1;" parent="W7sxkVH239xzY6D_1Smx-3" source="8lVyGrlgalNdbQosUur5-165" target="8lVyGrlgalNdbQosUur5-169" edge="1">
          <mxGeometry relative="1" as="geometry" />
        </mxCell>
        <mxCell id="8lVyGrlgalNdbQosUur5-175" style="edgeStyle=orthogonalEdgeStyle;shape=connector;rounded=0;orthogonalLoop=1;jettySize=auto;html=1;labelBackgroundColor=default;strokeColor=default;fontFamily=Helvetica;fontSize=11;fontColor=default;endArrow=none;endFill=0;" parent="W7sxkVH239xzY6D_1Smx-3" source="8lVyGrlgalNdbQosUur5-168" target="8lVyGrlgalNdbQosUur5-157" edge="1">
          <mxGeometry relative="1" as="geometry">
            <Array as="points">
              <mxPoint x="439" y="899.3699999999999" />
              <mxPoint x="360" y="899.3699999999999" />
              <mxPoint x="360" y="119.36999999999989" />
            </Array>
          </mxGeometry>
        </mxCell>
        <mxCell id="W7sxkVH239xzY6D_1Smx-4" value="" style="group" parent="W7sxkVH239xzY6D_1Smx-1" vertex="1" connectable="0">
          <mxGeometry x="559.37" width="519.37" height="879.37" as="geometry" />
        </mxCell>
        <mxCell id="8lVyGrlgalNdbQosUur5-180" value="Конец 1" style="ellipse;whiteSpace=wrap;html=1;aspect=fixed;fontFamily=Helvetica;fontSize=11;fontColor=default;" parent="W7sxkVH239xzY6D_1Smx-4" vertex="1">
          <mxGeometry x="39.370000000000005" y="639.3699999999999" width="39.37" height="39.37" as="geometry" />
        </mxCell>
        <mxCell id="8lVyGrlgalNdbQosUur5-181" value="результат = reconstruct_path (start, goal, came_from)" style="shape=process;whiteSpace=wrap;html=1;backgroundOutline=1;aspect=fixed;fontFamily=Helvetica;fontSize=11;fontColor=default;" parent="W7sxkVH239xzY6D_1Smx-4" vertex="1">
          <mxGeometry y="720" width="118.11" height="78.74" as="geometry" />
        </mxCell>
        <mxCell id="8lVyGrlgalNdbQosUur5-183" style="edgeStyle=orthogonalEdgeStyle;shape=connector;rounded=0;orthogonalLoop=1;jettySize=auto;html=1;labelBackgroundColor=default;strokeColor=default;fontFamily=Helvetica;fontSize=11;fontColor=default;endArrow=none;endFill=0;" parent="W7sxkVH239xzY6D_1Smx-4" source="8lVyGrlgalNdbQosUur5-180" target="8lVyGrlgalNdbQosUur5-181" edge="1">
          <mxGeometry relative="1" as="geometry" />
        </mxCell>
        <mxCell id="8lVyGrlgalNdbQosUur5-182" value="Конец" style="strokeWidth=1;html=1;shape=stencil(xVXBboMwDP0ajkxAtK49Tqw79rJJO7vUpVFDgpysdH+/0IBaoDCayyQO+Bne83NsJWCpPkCJQRJJKDBgb0GSfCIVXIJRZAObOTh4EbmwcuFq6ULQJWbGYScgDluBLqMNqSNWfGcaBi4PSNzUWbYOolf7Tf2wNFNSWhKupO5kbvKWDLi0/0ZnRxY9PTuZnyZ2UWkVCjRIHfRqbuOAIHn3VornKX14KHUdtbp/KX09rhT7Ka19uhf3xeKZHdx4GLsjt1zNPDAvuZb9cXdezRzIzXY3IsdSi4wtIEu3kB1zUt9yd7fIEurlHiTadKFOeK2+P99T/lsGweUNw8vycQagzL5QrwZqKFgTn0M4cx2SMlC3ocMvgHIMLU+4F5B3UrpCLG/g5uzvl7vwcNzr2TyKf7Tsc8aZUBonNsHigzm7oCPDydK9IpyY2j0Xwt1OYwsxILig7q68AL8=);whiteSpace=wrap;aspect=fixed;fontFamily=Helvetica;fontSize=11;fontColor=default;" parent="W7sxkVH239xzY6D_1Smx-4" vertex="1">
          <mxGeometry y="840" width="118.11" height="39.37" as="geometry" />
        </mxCell>
        <mxCell id="8lVyGrlgalNdbQosUur5-184" style="edgeStyle=orthogonalEdgeStyle;shape=connector;rounded=0;orthogonalLoop=1;jettySize=auto;html=1;labelBackgroundColor=default;strokeColor=default;fontFamily=Helvetica;fontSize=11;fontColor=default;endArrow=none;endFill=0;" parent="W7sxkVH239xzY6D_1Smx-4" source="8lVyGrlgalNdbQosUur5-181" target="8lVyGrlgalNdbQosUur5-182" edge="1">
          <mxGeometry relative="1" as="geometry" />
        </mxCell>
        <mxCell id="8lVyGrlgalNdbQosUur5-186" value="Начало" style="strokeWidth=1;html=1;shape=stencil(xVXBboMwDP0ajkxAtK49Tqw79rJJO7vUpVFDgpysdH+/0IBaoDCayyQO+Bne83NsJWCpPkCJQRJJKDBgb0GSfCIVXIJRZAObOTh4EbmwcuFq6ULQJWbGYScgDluBLqMNqSNWfGcaBi4PSNzUWbYOolf7Tf2wNFNSWhKupO5kbvKWDLi0/0ZnRxY9PTuZnyZ2UWkVCjRIHfRqbuOAIHn3VornKX14KHUdtbp/KX09rhT7Ka19uhf3xeKZHdx4GLsjt1zNPDAvuZb9cXdezRzIzXY3IsdSi4wtIEu3kB1zUt9yd7fIEurlHiTadKFOeK2+P99T/lsGweUNw8vycQagzL5QrwZqKFgTn0M4cx2SMlC3ocMvgHIMLU+4F5B3UrpCLG/g5uzvl7vwcNzr2TyKf7Tsc8aZUBonNsHigzm7oCPDydK9IpyY2j0Xwt1OYwsxILig7q68AL8=);whiteSpace=wrap;aspect=fixed;" parent="W7sxkVH239xzY6D_1Smx-4" vertex="1">
          <mxGeometry x="240.63" y="1.2600000000002183" width="118.11" height="39.37" as="geometry" />
        </mxCell>
        <mxCell id="8lVyGrlgalNdbQosUur5-189" value="Создать массив path" style="rounded=0;whiteSpace=wrap;html=1;aspect=fixed;fontFamily=Helvetica;fontSize=11;fontColor=default;" parent="W7sxkVH239xzY6D_1Smx-4" vertex="1">
          <mxGeometry x="240.63" y="81.58000000000015" width="118.11" height="78.74" as="geometry" />
        </mxCell>
        <mxCell id="8lVyGrlgalNdbQosUur5-202" style="edgeStyle=orthogonalEdgeStyle;shape=connector;rounded=0;orthogonalLoop=1;jettySize=auto;html=1;labelBackgroundColor=default;strokeColor=default;fontFamily=Helvetica;fontSize=11;fontColor=default;endArrow=none;endFill=0;" parent="W7sxkVH239xzY6D_1Smx-4" source="8lVyGrlgalNdbQosUur5-186" target="8lVyGrlgalNdbQosUur5-189" edge="1">
          <mxGeometry relative="1" as="geometry" />
        </mxCell>
        <mxCell id="8lVyGrlgalNdbQosUur5-190" value="Создать элемент current и присвоить ему goal" style="rounded=0;whiteSpace=wrap;html=1;aspect=fixed;fontFamily=Helvetica;fontSize=11;fontColor=default;" parent="W7sxkVH239xzY6D_1Smx-4" vertex="1">
          <mxGeometry x="240.63" y="200.6300000000001" width="118.11" height="78.74" as="geometry" />
        </mxCell>
        <mxCell id="8lVyGrlgalNdbQosUur5-204" style="edgeStyle=orthogonalEdgeStyle;shape=connector;rounded=0;orthogonalLoop=1;jettySize=auto;html=1;labelBackgroundColor=default;strokeColor=default;fontFamily=Helvetica;fontSize=11;fontColor=default;endArrow=none;endFill=0;" parent="W7sxkVH239xzY6D_1Smx-4" source="8lVyGrlgalNdbQosUur5-189" target="8lVyGrlgalNdbQosUur5-190" edge="1">
          <mxGeometry relative="1" as="geometry" />
        </mxCell>
        <mxCell id="8lVyGrlgalNdbQosUur5-209" value="Да" style="edgeStyle=orthogonalEdgeStyle;shape=connector;rounded=0;orthogonalLoop=1;jettySize=auto;html=1;labelBackgroundColor=default;strokeColor=default;fontFamily=Helvetica;fontSize=11;fontColor=default;endArrow=none;endFill=0;" parent="W7sxkVH239xzY6D_1Smx-4" source="8lVyGrlgalNdbQosUur5-191" edge="1">
          <mxGeometry x="-0.9436" y="9" relative="1" as="geometry">
            <mxPoint x="300.63" y="680.6300000000001" as="targetPoint" />
            <Array as="points">
              <mxPoint x="380.63" y="359.6300000000001" />
              <mxPoint x="380.63" y="680.6300000000001" />
            </Array>
            <mxPoint as="offset" />
          </mxGeometry>
        </mxCell>
        <mxCell id="8lVyGrlgalNdbQosUur5-191" value="Нашел goal в came_from" style="rhombus;whiteSpace=wrap;html=1;aspect=fixed;fontFamily=Helvetica;fontSize=11;fontColor=default;" parent="W7sxkVH239xzY6D_1Smx-4" vertex="1">
          <mxGeometry x="240.63" y="320.6300000000001" width="118.11" height="78.74" as="geometry" />
        </mxCell>
        <mxCell id="8lVyGrlgalNdbQosUur5-205" style="edgeStyle=orthogonalEdgeStyle;shape=connector;rounded=0;orthogonalLoop=1;jettySize=auto;html=1;labelBackgroundColor=default;strokeColor=default;fontFamily=Helvetica;fontSize=11;fontColor=default;endArrow=none;endFill=0;" parent="W7sxkVH239xzY6D_1Smx-4" source="8lVyGrlgalNdbQosUur5-190" target="8lVyGrlgalNdbQosUur5-191" edge="1">
          <mxGeometry relative="1" as="geometry" />
        </mxCell>
        <mxCell id="8lVyGrlgalNdbQosUur5-192" value="3" style="ellipse;whiteSpace=wrap;html=1;aspect=fixed;fontFamily=Helvetica;fontSize=11;fontColor=default;" parent="W7sxkVH239xzY6D_1Smx-4" vertex="1">
          <mxGeometry x="440.63" y="80.63000000000011" width="39.37" height="39.37" as="geometry" />
        </mxCell>
        <mxCell id="8lVyGrlgalNdbQosUur5-193" value="Конец 3" style="ellipse;whiteSpace=wrap;html=1;aspect=fixed;fontFamily=Helvetica;fontSize=11;fontColor=default;" parent="W7sxkVH239xzY6D_1Smx-4" vertex="1">
          <mxGeometry x="280.63" y="500.6300000000001" width="39.37" height="39.37" as="geometry" />
        </mxCell>
        <mxCell id="8lVyGrlgalNdbQosUur5-194" value="reverse(path)" style="shape=process;whiteSpace=wrap;html=1;backgroundOutline=1;aspect=fixed;fontFamily=Helvetica;fontSize=11;fontColor=default;" parent="W7sxkVH239xzY6D_1Smx-4" vertex="1">
          <mxGeometry x="241.63" y="579.6300000000001" width="118.11" height="78.74" as="geometry" />
        </mxCell>
        <mxCell id="8lVyGrlgalNdbQosUur5-207" style="edgeStyle=orthogonalEdgeStyle;shape=connector;rounded=0;orthogonalLoop=1;jettySize=auto;html=1;labelBackgroundColor=default;strokeColor=default;fontFamily=Helvetica;fontSize=11;fontColor=default;endArrow=none;endFill=0;" parent="W7sxkVH239xzY6D_1Smx-4" source="8lVyGrlgalNdbQosUur5-193" target="8lVyGrlgalNdbQosUur5-194" edge="1">
          <mxGeometry relative="1" as="geometry" />
        </mxCell>
        <mxCell id="8lVyGrlgalNdbQosUur5-195" value="Конец" style="strokeWidth=1;html=1;shape=stencil(xVXBboMwDP0ajkxAtK49Tqw79rJJO7vUpVFDgpysdH+/0IBaoDCayyQO+Bne83NsJWCpPkCJQRJJKDBgb0GSfCIVXIJRZAObOTh4EbmwcuFq6ULQJWbGYScgDluBLqMNqSNWfGcaBi4PSNzUWbYOolf7Tf2wNFNSWhKupO5kbvKWDLi0/0ZnRxY9PTuZnyZ2UWkVCjRIHfRqbuOAIHn3VornKX14KHUdtbp/KX09rhT7Ka19uhf3xeKZHdx4GLsjt1zNPDAvuZb9cXdezRzIzXY3IsdSi4wtIEu3kB1zUt9yd7fIEurlHiTadKFOeK2+P99T/lsGweUNw8vycQagzL5QrwZqKFgTn0M4cx2SMlC3ocMvgHIMLU+4F5B3UrpCLG/g5uzvl7vwcNzr2TyKf7Tsc8aZUBonNsHigzm7oCPDydK9IpyY2j0Xwt1OYwsxILig7q68AL8=);whiteSpace=wrap;aspect=fixed;fontFamily=Helvetica;fontSize=11;fontColor=default;" parent="W7sxkVH239xzY6D_1Smx-4" vertex="1">
          <mxGeometry x="241.63" y="700.6300000000001" width="118.11" height="39.37" as="geometry" />
        </mxCell>
        <mxCell id="8lVyGrlgalNdbQosUur5-208" style="edgeStyle=orthogonalEdgeStyle;shape=connector;rounded=0;orthogonalLoop=1;jettySize=auto;html=1;labelBackgroundColor=default;strokeColor=default;fontFamily=Helvetica;fontSize=11;fontColor=default;endArrow=none;endFill=0;" parent="W7sxkVH239xzY6D_1Smx-4" source="8lVyGrlgalNdbQosUur5-194" target="8lVyGrlgalNdbQosUur5-195" edge="1">
          <mxGeometry relative="1" as="geometry" />
        </mxCell>
        <mxCell id="8lVyGrlgalNdbQosUur5-196" value="current пока не равняется start" style="shape=loopLimit;whiteSpace=wrap;html=1;aspect=fixed;" parent="W7sxkVH239xzY6D_1Smx-4" vertex="1">
          <mxGeometry x="401.2600000000001" y="159.37000000000012" width="118.11" height="78.74" as="geometry" />
        </mxCell>
        <mxCell id="8lVyGrlgalNdbQosUur5-211" style="edgeStyle=orthogonalEdgeStyle;shape=connector;rounded=0;orthogonalLoop=1;jettySize=auto;html=1;labelBackgroundColor=default;strokeColor=default;fontFamily=Helvetica;fontSize=11;fontColor=default;endArrow=none;endFill=0;" parent="W7sxkVH239xzY6D_1Smx-4" source="8lVyGrlgalNdbQosUur5-192" target="8lVyGrlgalNdbQosUur5-196" edge="1">
          <mxGeometry relative="1" as="geometry" />
        </mxCell>
        <mxCell id="8lVyGrlgalNdbQosUur5-197" value="Добавить в path элемент current" style="rounded=0;whiteSpace=wrap;html=1;aspect=fixed;fontFamily=Helvetica;fontSize=11;fontColor=default;" parent="W7sxkVH239xzY6D_1Smx-4" vertex="1">
          <mxGeometry x="401.2600000000001" y="279.3700000000001" width="118.11" height="78.74" as="geometry" />
        </mxCell>
        <mxCell id="8lVyGrlgalNdbQosUur5-212" style="edgeStyle=orthogonalEdgeStyle;shape=connector;rounded=0;orthogonalLoop=1;jettySize=auto;html=1;labelBackgroundColor=default;strokeColor=default;fontFamily=Helvetica;fontSize=11;fontColor=default;endArrow=none;endFill=0;" parent="W7sxkVH239xzY6D_1Smx-4" source="8lVyGrlgalNdbQosUur5-196" target="8lVyGrlgalNdbQosUur5-197" edge="1">
          <mxGeometry relative="1" as="geometry" />
        </mxCell>
        <mxCell id="8lVyGrlgalNdbQosUur5-198" value="current = came_from[current]" style="rounded=0;whiteSpace=wrap;html=1;aspect=fixed;fontFamily=Helvetica;fontSize=11;fontColor=default;" parent="W7sxkVH239xzY6D_1Smx-4" vertex="1">
          <mxGeometry x="401.2600000000001" y="399.3700000000001" width="118.11" height="78.74" as="geometry" />
        </mxCell>
        <mxCell id="8lVyGrlgalNdbQosUur5-213" style="edgeStyle=orthogonalEdgeStyle;shape=connector;rounded=0;orthogonalLoop=1;jettySize=auto;html=1;labelBackgroundColor=default;strokeColor=default;fontFamily=Helvetica;fontSize=11;fontColor=default;endArrow=none;endFill=0;" parent="W7sxkVH239xzY6D_1Smx-4" source="8lVyGrlgalNdbQosUur5-197" target="8lVyGrlgalNdbQosUur5-198" edge="1">
          <mxGeometry relative="1" as="geometry" />
        </mxCell>
        <mxCell id="8lVyGrlgalNdbQosUur5-199" value="current" style="shape=loopLimit;whiteSpace=wrap;html=1;aspect=fixed;direction=west;" parent="W7sxkVH239xzY6D_1Smx-4" vertex="1">
          <mxGeometry x="401.2600000000001" y="519.3700000000001" width="118.11" height="78.74" as="geometry" />
        </mxCell>
        <mxCell id="8lVyGrlgalNdbQosUur5-214" style="edgeStyle=orthogonalEdgeStyle;shape=connector;rounded=0;orthogonalLoop=1;jettySize=auto;html=1;labelBackgroundColor=default;strokeColor=default;fontFamily=Helvetica;fontSize=11;fontColor=default;endArrow=none;endFill=0;" parent="W7sxkVH239xzY6D_1Smx-4" source="8lVyGrlgalNdbQosUur5-198" target="8lVyGrlgalNdbQosUur5-199" edge="1">
          <mxGeometry relative="1" as="geometry" />
        </mxCell>
        <mxCell id="8lVyGrlgalNdbQosUur5-200" value="Конец 3" style="ellipse;whiteSpace=wrap;html=1;aspect=fixed;fontFamily=Helvetica;fontSize=11;fontColor=default;" parent="W7sxkVH239xzY6D_1Smx-4" vertex="1">
          <mxGeometry x="440.63" y="641.2600000000002" width="39.37" height="39.37" as="geometry" />
        </mxCell>
        <mxCell id="8lVyGrlgalNdbQosUur5-215" style="edgeStyle=orthogonalEdgeStyle;shape=connector;rounded=0;orthogonalLoop=1;jettySize=auto;html=1;labelBackgroundColor=default;strokeColor=default;fontFamily=Helvetica;fontSize=11;fontColor=default;endArrow=none;endFill=0;" parent="W7sxkVH239xzY6D_1Smx-4" source="8lVyGrlgalNdbQosUur5-199" target="8lVyGrlgalNdbQosUur5-200" edge="1">
          <mxGeometry relative="1" as="geometry" />
        </mxCell>
        <mxCell id="8lVyGrlgalNdbQosUur5-201" value="3" style="ellipse;whiteSpace=wrap;html=1;aspect=fixed;fontFamily=Helvetica;fontSize=11;fontColor=default;" parent="W7sxkVH239xzY6D_1Smx-4" vertex="1">
          <mxGeometry x="280" y="434.7600000000002" width="39.37" height="39.37" as="geometry" />
        </mxCell>
        <mxCell id="8lVyGrlgalNdbQosUur5-206" value="Нет" style="edgeStyle=orthogonalEdgeStyle;shape=connector;rounded=0;orthogonalLoop=1;jettySize=auto;html=1;labelBackgroundColor=default;strokeColor=default;fontFamily=Helvetica;fontSize=11;fontColor=default;endArrow=none;endFill=0;" parent="W7sxkVH239xzY6D_1Smx-4" source="8lVyGrlgalNdbQosUur5-191" target="8lVyGrlgalNdbQosUur5-201" edge="1">
          <mxGeometry x="-0.3628" y="1" relative="1" as="geometry">
            <mxPoint as="offset" />
          </mxGeometry>
        </mxCell>
        <mxCell id="W7sxkVH239xzY6D_1Smx-2" value="" style="group" parent="8lVyGrlgalNdbQosUur5-216" vertex="1" connectable="0">
          <mxGeometry x="239" y="900.6300000000001" width="39.37" height="39.37" as="geometry" />
        </mxCell>
        <mxCell id="8lVyGrlgalNdbQosUur5-146" value="Конец 1" style="ellipse;whiteSpace=wrap;html=1;aspect=fixed;fontSize=11;" parent="W7sxkVH239xzY6D_1Smx-2" vertex="1">
          <mxGeometry width="39.37" height="39.37" as="geometry" />
        </mxCell>
        <mxCell id="8lVyGrlgalNdbQosUur5-152" style="edgeStyle=orthogonalEdgeStyle;rounded=0;orthogonalLoop=1;jettySize=auto;html=1;endArrow=none;endFill=0;" parent="8lVyGrlgalNdbQosUur5-216" source="8lVyGrlgalNdbQosUur5-145" target="8lVyGrlgalNdbQosUur5-146" edge="1">
          <mxGeometry relative="1" as="geometry" />
        </mxCell>
        <mxCell id="8lVyGrlgalNdbQosUur5-187" value="&amp;nbsp;dijkstra_search(graph, start, goal)" style="strokeWidth=1;html=1;shape=mxgraph.flowchart.annotation_2;align=left;labelPosition=right;pointerEvents=1;" parent="8lVyGrlgalNdbQosUur5-1" vertex="1">
          <mxGeometry x="1260" y="80.95" width="39.37" height="40" as="geometry" />
        </mxCell>
        <mxCell id="8lVyGrlgalNdbQosUur5-188" style="edgeStyle=orthogonalEdgeStyle;shape=connector;rounded=0;orthogonalLoop=1;jettySize=auto;html=1;labelBackgroundColor=default;strokeColor=default;fontFamily=Helvetica;fontSize=11;fontColor=default;endArrow=none;endFill=0;dashed=1;" parent="8lVyGrlgalNdbQosUur5-1" source="8lVyGrlgalNdbQosUur5-186" target="8lVyGrlgalNdbQosUur5-187" edge="1">
          <mxGeometry relative="1" as="geometry" />
        </mxCell>
      </root>
    </mxGraphModel>
  </diagram>
  <diagram id="IIG8nGeqUwLkTFCrU_6H" name="A*">
    <mxGraphModel dx="1830" dy="1367" grid="1" gridSize="10" guides="1" tooltips="1" connect="1" arrows="1" fold="1" page="1" pageScale="1" pageWidth="1654" pageHeight="1169" math="0" shadow="0">
      <root>
        <mxCell id="0" />
        <mxCell id="1" parent="0" />
        <mxCell id="aPuClwsA_Py8r6cv8OrV-1" value="" style="group" parent="1" vertex="1" connectable="0">
          <mxGeometry width="1653.54" height="1169.289" as="geometry" />
        </mxCell>
        <mxCell id="aPuClwsA_Py8r6cv8OrV-2" value="" style="rounded=0;whiteSpace=wrap;html=1;aspect=fixed;fillColor=none;strokeColor=none;" parent="aPuClwsA_Py8r6cv8OrV-1" vertex="1">
          <mxGeometry width="1653.54" height="1169.289" as="geometry" />
        </mxCell>
        <mxCell id="aPuClwsA_Py8r6cv8OrV-3" value="" style="rounded=0;whiteSpace=wrap;html=1;aspect=fixed;fillColor=none;" parent="aPuClwsA_Py8r6cv8OrV-1" vertex="1">
          <mxGeometry x="78.74" y="19.685" width="1555.115" height="1129.9189999999999" as="geometry" />
        </mxCell>
        <mxCell id="aPuClwsA_Py8r6cv8OrV-4" value="" style="group" parent="aPuClwsA_Py8r6cv8OrV-1" vertex="1" connectable="0">
          <mxGeometry x="905.51" y="992.0000000000001" width="728.3499999999999" height="157.4550000000005" as="geometry" />
        </mxCell>
        <mxCell id="aPuClwsA_Py8r6cv8OrV-5" value="Утв." style="rounded=0;whiteSpace=wrap;html=1;fontFamily=Helvetica;fontStyle=2;align=left;" parent="aPuClwsA_Py8r6cv8OrV-4" vertex="1">
          <mxGeometry y="137.77000000000032" width="66.929" height="19.685" as="geometry" />
        </mxCell>
        <mxCell id="aPuClwsA_Py8r6cv8OrV-6" value="Н.контр" style="rounded=0;whiteSpace=wrap;html=1;fontFamily=Helvetica;fontStyle=2;align=left;" parent="aPuClwsA_Py8r6cv8OrV-4" vertex="1">
          <mxGeometry y="118.09000000000026" width="66.929" height="19.685" as="geometry" />
        </mxCell>
        <mxCell id="aPuClwsA_Py8r6cv8OrV-7" value="Т.контр." style="rounded=0;whiteSpace=wrap;html=1;fontFamily=Helvetica;fontStyle=2;align=left;" parent="aPuClwsA_Py8r6cv8OrV-4" vertex="1">
          <mxGeometry y="98.4100000000002" width="66.929" height="19.685" as="geometry" />
        </mxCell>
        <mxCell id="aPuClwsA_Py8r6cv8OrV-8" value="Пров." style="rounded=0;whiteSpace=wrap;html=1;fontFamily=Helvetica;fontStyle=2;align=left;" parent="aPuClwsA_Py8r6cv8OrV-4" vertex="1">
          <mxGeometry y="78.73000000000013" width="66.929" height="19.685" as="geometry" />
        </mxCell>
        <mxCell id="aPuClwsA_Py8r6cv8OrV-9" value="Разраб." style="rounded=0;whiteSpace=wrap;html=1;fontFamily=Helvetica;fontStyle=2;align=left;" parent="aPuClwsA_Py8r6cv8OrV-4" vertex="1">
          <mxGeometry y="59.05000000000007" width="66.929" height="19.685" as="geometry" />
        </mxCell>
        <mxCell id="aPuClwsA_Py8r6cv8OrV-10" value="&lt;font style=&quot;font-size: 11px;&quot;&gt;Буйновский М.В.&lt;/font&gt;" style="rounded=0;whiteSpace=wrap;html=1;fontFamily=Helvetica;fontStyle=2;align=left;" parent="aPuClwsA_Py8r6cv8OrV-4" vertex="1">
          <mxGeometry x="66.93" y="59.04000000000008" width="90.551" height="19.685" as="geometry" />
        </mxCell>
        <mxCell id="aPuClwsA_Py8r6cv8OrV-11" value="&lt;font style=&quot;font-size: 11px;&quot;&gt;Савенко А.Г.&lt;/font&gt;" style="rounded=0;whiteSpace=wrap;html=1;fontFamily=Helvetica;fontStyle=2;align=left;" parent="aPuClwsA_Py8r6cv8OrV-4" vertex="1">
          <mxGeometry x="66.93" y="78.72000000000014" width="90.551" height="19.685" as="geometry" />
        </mxCell>
        <mxCell id="aPuClwsA_Py8r6cv8OrV-12" value="" style="rounded=0;whiteSpace=wrap;html=1;fontFamily=Helvetica;fontStyle=2;align=left;" parent="aPuClwsA_Py8r6cv8OrV-4" vertex="1">
          <mxGeometry x="66.93" y="98.42000000000019" width="90.551" height="19.685" as="geometry" />
        </mxCell>
        <mxCell id="aPuClwsA_Py8r6cv8OrV-13" value="" style="rounded=0;whiteSpace=wrap;html=1;fontSize=10;fontFamily=Helvetica;fontStyle=2;align=left;" parent="aPuClwsA_Py8r6cv8OrV-4" vertex="1">
          <mxGeometry x="66.93" y="118.10000000000025" width="90.551" height="19.685" as="geometry" />
        </mxCell>
        <mxCell id="aPuClwsA_Py8r6cv8OrV-14" value="" style="rounded=0;whiteSpace=wrap;html=1;fontFamily=Helvetica;fontStyle=2;align=left;" parent="aPuClwsA_Py8r6cv8OrV-4" vertex="1">
          <mxGeometry x="66.93" y="137.77000000000032" width="90.551" height="19.685" as="geometry" />
        </mxCell>
        <mxCell id="aPuClwsA_Py8r6cv8OrV-15" value="" style="rounded=0;whiteSpace=wrap;html=1;fontFamily=Helvetica;fontStyle=2;align=left;" parent="aPuClwsA_Py8r6cv8OrV-4" vertex="1">
          <mxGeometry x="157.48000000000002" y="137.77000000000032" width="59.055" height="19.685" as="geometry" />
        </mxCell>
        <mxCell id="aPuClwsA_Py8r6cv8OrV-16" value="" style="rounded=0;whiteSpace=wrap;html=1;fontFamily=Helvetica;fontStyle=2;align=left;" parent="aPuClwsA_Py8r6cv8OrV-4" vertex="1">
          <mxGeometry x="157.48000000000002" y="59.04000000000008" width="59.055" height="19.685" as="geometry" />
        </mxCell>
        <mxCell id="aPuClwsA_Py8r6cv8OrV-17" value="" style="rounded=0;whiteSpace=wrap;html=1;fontFamily=Helvetica;fontStyle=2;align=left;" parent="aPuClwsA_Py8r6cv8OrV-4" vertex="1">
          <mxGeometry x="157.48000000000002" y="78.72000000000014" width="59.055" height="19.685" as="geometry" />
        </mxCell>
        <mxCell id="aPuClwsA_Py8r6cv8OrV-18" value="" style="rounded=0;whiteSpace=wrap;html=1;fontFamily=Helvetica;fontStyle=2;align=left;" parent="aPuClwsA_Py8r6cv8OrV-4" vertex="1">
          <mxGeometry x="157.48000000000002" y="98.42000000000019" width="59.055" height="19.685" as="geometry" />
        </mxCell>
        <mxCell id="aPuClwsA_Py8r6cv8OrV-19" value="" style="rounded=0;whiteSpace=wrap;html=1;fontFamily=Helvetica;fontStyle=2;align=left;" parent="aPuClwsA_Py8r6cv8OrV-4" vertex="1">
          <mxGeometry x="157.48000000000002" y="118.10000000000025" width="59.055" height="19.685" as="geometry" />
        </mxCell>
        <mxCell id="aPuClwsA_Py8r6cv8OrV-20" value="" style="rounded=0;whiteSpace=wrap;html=1;fontFamily=Helvetica;fontStyle=2;align=left;" parent="aPuClwsA_Py8r6cv8OrV-4" vertex="1">
          <mxGeometry x="216.53000000000003" y="137.77000000000032" width="39.37" height="19.685" as="geometry" />
        </mxCell>
        <mxCell id="aPuClwsA_Py8r6cv8OrV-21" value="" style="rounded=0;whiteSpace=wrap;html=1;fontFamily=Helvetica;fontStyle=2;align=left;" parent="aPuClwsA_Py8r6cv8OrV-4" vertex="1">
          <mxGeometry x="216.53000000000003" y="59.04000000000008" width="39.37" height="19.685" as="geometry" />
        </mxCell>
        <mxCell id="aPuClwsA_Py8r6cv8OrV-22" value="" style="rounded=0;whiteSpace=wrap;html=1;fontFamily=Helvetica;fontStyle=2;align=left;" parent="aPuClwsA_Py8r6cv8OrV-4" vertex="1">
          <mxGeometry x="216.53000000000003" y="78.72000000000014" width="39.37" height="19.685" as="geometry" />
        </mxCell>
        <mxCell id="aPuClwsA_Py8r6cv8OrV-23" value="" style="rounded=0;whiteSpace=wrap;html=1;fontFamily=Helvetica;fontStyle=2;align=left;" parent="aPuClwsA_Py8r6cv8OrV-4" vertex="1">
          <mxGeometry x="216.53000000000003" y="98.42000000000019" width="39.37" height="19.685" as="geometry" />
        </mxCell>
        <mxCell id="aPuClwsA_Py8r6cv8OrV-24" value="" style="rounded=0;whiteSpace=wrap;html=1;fontFamily=Helvetica;fontStyle=2;align=left;" parent="aPuClwsA_Py8r6cv8OrV-4" vertex="1">
          <mxGeometry x="216.53000000000003" y="118.10000000000025" width="39.37" height="19.685" as="geometry" />
        </mxCell>
        <mxCell id="aPuClwsA_Py8r6cv8OrV-25" value="№ докум." style="rounded=0;whiteSpace=wrap;html=1;fontFamily=Helvetica;fontStyle=2;align=center;" parent="aPuClwsA_Py8r6cv8OrV-4" vertex="1">
          <mxGeometry x="66.93" y="39.360000000000014" width="90.551" height="19.685" as="geometry" />
        </mxCell>
        <mxCell id="aPuClwsA_Py8r6cv8OrV-26" value="Подп." style="rounded=0;whiteSpace=wrap;html=1;fontFamily=Helvetica;fontStyle=2;align=center;" parent="aPuClwsA_Py8r6cv8OrV-4" vertex="1">
          <mxGeometry x="157.48000000000002" y="39.360000000000014" width="59.055" height="19.685" as="geometry" />
        </mxCell>
        <mxCell id="aPuClwsA_Py8r6cv8OrV-27" value="Дата" style="rounded=0;whiteSpace=wrap;html=1;fontFamily=Helvetica;fontStyle=2;align=center;" parent="aPuClwsA_Py8r6cv8OrV-4" vertex="1">
          <mxGeometry x="216.53000000000003" y="39.360000000000014" width="39.37" height="19.685" as="geometry" />
        </mxCell>
        <mxCell id="aPuClwsA_Py8r6cv8OrV-28" value="" style="rounded=0;whiteSpace=wrap;html=1;fontFamily=Helvetica;fontStyle=2;align=left;" parent="aPuClwsA_Py8r6cv8OrV-4" vertex="1">
          <mxGeometry x="66.93" y="19.67999999999995" width="90.551" height="19.685" as="geometry" />
        </mxCell>
        <mxCell id="aPuClwsA_Py8r6cv8OrV-29" value="" style="rounded=0;whiteSpace=wrap;html=1;fontFamily=Helvetica;fontStyle=2;align=left;" parent="aPuClwsA_Py8r6cv8OrV-4" vertex="1">
          <mxGeometry x="157.48000000000002" y="19.67999999999995" width="59.055" height="19.685" as="geometry" />
        </mxCell>
        <mxCell id="aPuClwsA_Py8r6cv8OrV-30" value="" style="rounded=0;whiteSpace=wrap;html=1;fontFamily=Helvetica;fontStyle=2;align=left;" parent="aPuClwsA_Py8r6cv8OrV-4" vertex="1">
          <mxGeometry x="216.53000000000003" y="19.67999999999995" width="39.37" height="19.685" as="geometry" />
        </mxCell>
        <mxCell id="aPuClwsA_Py8r6cv8OrV-31" value="" style="rounded=0;whiteSpace=wrap;html=1;fontFamily=Helvetica;fontStyle=2;align=left;" parent="aPuClwsA_Py8r6cv8OrV-4" vertex="1">
          <mxGeometry x="66.93" width="90.551" height="19.685" as="geometry" />
        </mxCell>
        <mxCell id="aPuClwsA_Py8r6cv8OrV-32" value="" style="rounded=0;whiteSpace=wrap;html=1;fontFamily=Helvetica;fontStyle=2;align=left;" parent="aPuClwsA_Py8r6cv8OrV-4" vertex="1">
          <mxGeometry x="157.48000000000002" width="59.055" height="19.685" as="geometry" />
        </mxCell>
        <mxCell id="aPuClwsA_Py8r6cv8OrV-33" value="" style="rounded=0;whiteSpace=wrap;html=1;fontFamily=Helvetica;fontStyle=2;align=left;" parent="aPuClwsA_Py8r6cv8OrV-4" vertex="1">
          <mxGeometry x="216.53000000000003" width="39.37" height="19.685" as="geometry" />
        </mxCell>
        <mxCell id="aPuClwsA_Py8r6cv8OrV-34" value="Изм." style="rounded=0;whiteSpace=wrap;html=1;fontFamily=Helvetica;fontStyle=2;align=center;" parent="aPuClwsA_Py8r6cv8OrV-4" vertex="1">
          <mxGeometry y="39.360000000000014" width="27.558999999999997" height="19.685" as="geometry" />
        </mxCell>
        <mxCell id="aPuClwsA_Py8r6cv8OrV-35" value="Л." style="rounded=0;whiteSpace=wrap;html=1;fontFamily=Helvetica;fontStyle=2;align=center;" parent="aPuClwsA_Py8r6cv8OrV-4" vertex="1">
          <mxGeometry x="27.56" y="39.360000000000014" width="39.37" height="19.685" as="geometry" />
        </mxCell>
        <mxCell id="aPuClwsA_Py8r6cv8OrV-36" value="" style="rounded=0;whiteSpace=wrap;html=1;fontFamily=Helvetica;fontStyle=2;align=left;" parent="aPuClwsA_Py8r6cv8OrV-4" vertex="1">
          <mxGeometry y="19.67999999999995" width="27.558999999999997" height="19.685" as="geometry" />
        </mxCell>
        <mxCell id="aPuClwsA_Py8r6cv8OrV-37" value="" style="rounded=0;whiteSpace=wrap;html=1;fontFamily=Helvetica;fontStyle=2;align=left;" parent="aPuClwsA_Py8r6cv8OrV-4" vertex="1">
          <mxGeometry x="27.56" y="19.67999999999995" width="39.37" height="19.685" as="geometry" />
        </mxCell>
        <mxCell id="aPuClwsA_Py8r6cv8OrV-38" value="" style="rounded=0;whiteSpace=wrap;html=1;fontFamily=Helvetica;fontStyle=2;align=left;" parent="aPuClwsA_Py8r6cv8OrV-4" vertex="1">
          <mxGeometry width="27.558999999999997" height="19.685" as="geometry" />
        </mxCell>
        <mxCell id="aPuClwsA_Py8r6cv8OrV-39" value="" style="rounded=0;whiteSpace=wrap;html=1;fontFamily=Helvetica;fontStyle=2;align=left;" parent="aPuClwsA_Py8r6cv8OrV-4" vertex="1">
          <mxGeometry x="27.56" width="39.37" height="19.685" as="geometry" />
        </mxCell>
        <mxCell id="aPuClwsA_Py8r6cv8OrV-40" value="Блок-схема алгоритма&lt;br&gt;&quot;Алгоритм A*" style="rounded=0;whiteSpace=wrap;html=1;fontFamily=Helvetica;fontStyle=2;align=center;" parent="aPuClwsA_Py8r6cv8OrV-4" vertex="1">
          <mxGeometry x="255.9" y="59.030000000000314" width="275.59" height="98.425" as="geometry" />
        </mxCell>
        <mxCell id="aPuClwsA_Py8r6cv8OrV-41" value="ГУИР.281073.003" style="rounded=0;whiteSpace=wrap;html=1;fontFamily=Helvetica;fontStyle=2;align=center;" parent="aPuClwsA_Py8r6cv8OrV-4" vertex="1">
          <mxGeometry x="255.9" y="3.410605131648481e-13" width="275.59" height="59.055" as="geometry" />
        </mxCell>
        <mxCell id="aPuClwsA_Py8r6cv8OrV-42" value="" style="rounded=0;whiteSpace=wrap;html=1;fontFamily=Helvetica;fontStyle=2;align=center;" parent="aPuClwsA_Py8r6cv8OrV-4" vertex="1">
          <mxGeometry x="531.49" y="3.410605131648481e-13" width="196.85" height="59.055" as="geometry" />
        </mxCell>
        <mxCell id="aPuClwsA_Py8r6cv8OrV-43" value="ФКТ, гр. 281073" style="rounded=0;whiteSpace=wrap;html=1;fontFamily=Helvetica;fontStyle=2;align=center;" parent="aPuClwsA_Py8r6cv8OrV-4" vertex="1">
          <mxGeometry x="531.49" y="98.40000000000043" width="196.85" height="59.055" as="geometry" />
        </mxCell>
        <mxCell id="aPuClwsA_Py8r6cv8OrV-44" value="Лит." style="rounded=0;whiteSpace=wrap;html=1;fontFamily=Helvetica;fontStyle=2;align=center;" parent="aPuClwsA_Py8r6cv8OrV-4" vertex="1">
          <mxGeometry x="531.49" y="59.050000000000296" width="59.055" height="19.685" as="geometry" />
        </mxCell>
        <mxCell id="aPuClwsA_Py8r6cv8OrV-45" value="Лист." style="rounded=0;whiteSpace=wrap;html=1;fontFamily=Helvetica;fontStyle=2;align=center;" parent="aPuClwsA_Py8r6cv8OrV-4" vertex="1">
          <mxGeometry x="590.54" y="59.030000000000314" width="59.055" height="19.685" as="geometry" />
        </mxCell>
        <mxCell id="aPuClwsA_Py8r6cv8OrV-46" value="Листов" style="rounded=0;whiteSpace=wrap;html=1;fontFamily=Helvetica;fontStyle=2;align=center;" parent="aPuClwsA_Py8r6cv8OrV-4" vertex="1">
          <mxGeometry x="649.5899999999999" y="59.030000000000314" width="78.74" height="19.685" as="geometry" />
        </mxCell>
        <mxCell id="aPuClwsA_Py8r6cv8OrV-47" value="3" style="rounded=0;whiteSpace=wrap;html=1;fontFamily=Helvetica;fontStyle=2;align=center;" parent="aPuClwsA_Py8r6cv8OrV-4" vertex="1">
          <mxGeometry x="590.55" y="78.71000000000038" width="59.055" height="19.685" as="geometry" />
        </mxCell>
        <mxCell id="aPuClwsA_Py8r6cv8OrV-48" value="3" style="rounded=0;whiteSpace=wrap;html=1;fontFamily=Helvetica;fontStyle=2;align=center;" parent="aPuClwsA_Py8r6cv8OrV-4" vertex="1">
          <mxGeometry x="649.6099999999999" y="78.71000000000038" width="78.74" height="19.685" as="geometry" />
        </mxCell>
        <mxCell id="aPuClwsA_Py8r6cv8OrV-49" value="" style="rounded=0;whiteSpace=wrap;html=1;fontFamily=Helvetica;fontStyle=2;align=center;" parent="aPuClwsA_Py8r6cv8OrV-4" vertex="1">
          <mxGeometry x="531.49" y="78.73000000000036" width="19.685" height="19.685" as="geometry" />
        </mxCell>
        <mxCell id="aPuClwsA_Py8r6cv8OrV-50" value="Т" style="rounded=0;whiteSpace=wrap;html=1;fontFamily=Helvetica;fontStyle=2;align=center;" parent="aPuClwsA_Py8r6cv8OrV-4" vertex="1">
          <mxGeometry x="551.17" y="78.71000000000038" width="19.685" height="19.685" as="geometry" />
        </mxCell>
        <mxCell id="aPuClwsA_Py8r6cv8OrV-51" value="" style="rounded=0;whiteSpace=wrap;html=1;fontFamily=Helvetica;fontStyle=2;align=center;" parent="aPuClwsA_Py8r6cv8OrV-4" vertex="1">
          <mxGeometry x="570.8499999999999" y="78.73000000000036" width="19.685" height="19.685" as="geometry" />
        </mxCell>
        <mxCell id="aPuClwsA_Py8r6cv8OrV-52" value="" style="group;aspect=fixed;" parent="aPuClwsA_Py8r6cv8OrV-1" vertex="1" connectable="0">
          <mxGeometry x="310" y="80" width="1078.74" height="940" as="geometry" />
        </mxCell>
        <mxCell id="aPuClwsA_Py8r6cv8OrV-53" value="Начало" style="strokeWidth=1;html=1;shape=stencil(xVXBboMwDP0ajkxAtK49Tqw79rJJO7vUpVFDgpysdH+/0IBaoDCayyQO+Bne83NsJWCpPkCJQRJJKDBgb0GSfCIVXIJRZAObOTh4EbmwcuFq6ULQJWbGYScgDluBLqMNqSNWfGcaBi4PSNzUWbYOolf7Tf2wNFNSWhKupO5kbvKWDLi0/0ZnRxY9PTuZnyZ2UWkVCjRIHfRqbuOAIHn3VornKX14KHUdtbp/KX09rhT7Ka19uhf3xeKZHdx4GLsjt1zNPDAvuZb9cXdezRzIzXY3IsdSi4wtIEu3kB1zUt9yd7fIEurlHiTadKFOeK2+P99T/lsGweUNw8vycQagzL5QrwZqKFgTn0M4cx2SMlC3ocMvgHIMLU+4F5B3UrpCLG/g5uzvl7vwcNzr2TyKf7Tsc8aZUBonNsHigzm7oCPDydK9IpyY2j0Xwt1OYwsxILig7q68AL8=);whiteSpace=wrap;aspect=fixed;" parent="aPuClwsA_Py8r6cv8OrV-52" vertex="1">
          <mxGeometry y="1.2600000000002183" width="118.11" height="39.37" as="geometry" />
        </mxCell>
        <mxCell id="aPuClwsA_Py8r6cv8OrV-56" value="Создать очередь с приоритетами frontier" style="rounded=0;whiteSpace=wrap;html=1;aspect=fixed;" parent="aPuClwsA_Py8r6cv8OrV-52" vertex="1">
          <mxGeometry y="80.63000000000011" width="118.11" height="78.74" as="geometry" />
        </mxCell>
        <mxCell id="aPuClwsA_Py8r6cv8OrV-57" style="edgeStyle=orthogonalEdgeStyle;rounded=0;orthogonalLoop=1;jettySize=auto;html=1;endArrow=none;endFill=0;" parent="aPuClwsA_Py8r6cv8OrV-52" source="aPuClwsA_Py8r6cv8OrV-53" target="aPuClwsA_Py8r6cv8OrV-56" edge="1">
          <mxGeometry relative="1" as="geometry" />
        </mxCell>
        <mxCell id="aPuClwsA_Py8r6cv8OrV-58" value="Добавить в frontier start с весом 0" style="rounded=0;whiteSpace=wrap;html=1;aspect=fixed;" parent="aPuClwsA_Py8r6cv8OrV-52" vertex="1">
          <mxGeometry y="200.6300000000001" width="118.11" height="78.74" as="geometry" />
        </mxCell>
        <mxCell id="aPuClwsA_Py8r6cv8OrV-59" style="edgeStyle=orthogonalEdgeStyle;rounded=0;orthogonalLoop=1;jettySize=auto;html=1;endArrow=none;endFill=0;" parent="aPuClwsA_Py8r6cv8OrV-52" source="aPuClwsA_Py8r6cv8OrV-56" target="aPuClwsA_Py8r6cv8OrV-58" edge="1">
          <mxGeometry relative="1" as="geometry" />
        </mxCell>
        <mxCell id="aPuClwsA_Py8r6cv8OrV-60" value="Создать ассоциативный массив came_from" style="rounded=0;whiteSpace=wrap;html=1;aspect=fixed;" parent="aPuClwsA_Py8r6cv8OrV-52" vertex="1">
          <mxGeometry y="320.6300000000001" width="118.11" height="78.74" as="geometry" />
        </mxCell>
        <mxCell id="aPuClwsA_Py8r6cv8OrV-61" style="edgeStyle=orthogonalEdgeStyle;rounded=0;orthogonalLoop=1;jettySize=auto;html=1;endArrow=none;endFill=0;" parent="aPuClwsA_Py8r6cv8OrV-52" source="aPuClwsA_Py8r6cv8OrV-58" target="aPuClwsA_Py8r6cv8OrV-60" edge="1">
          <mxGeometry relative="1" as="geometry" />
        </mxCell>
        <mxCell id="aPuClwsA_Py8r6cv8OrV-62" value="Добавить в came_from элемент start со значением start" style="rounded=0;whiteSpace=wrap;html=1;aspect=fixed;" parent="aPuClwsA_Py8r6cv8OrV-52" vertex="1">
          <mxGeometry y="440.6300000000001" width="118.11" height="78.74" as="geometry" />
        </mxCell>
        <mxCell id="aPuClwsA_Py8r6cv8OrV-63" style="edgeStyle=orthogonalEdgeStyle;rounded=0;orthogonalLoop=1;jettySize=auto;html=1;endArrow=none;endFill=0;" parent="aPuClwsA_Py8r6cv8OrV-52" source="aPuClwsA_Py8r6cv8OrV-60" target="aPuClwsA_Py8r6cv8OrV-62" edge="1">
          <mxGeometry relative="1" as="geometry" />
        </mxCell>
        <mxCell id="aPuClwsA_Py8r6cv8OrV-64" value="Создать ассоциативный массив cost_so_far" style="rounded=0;whiteSpace=wrap;html=1;aspect=fixed;" parent="aPuClwsA_Py8r6cv8OrV-52" vertex="1">
          <mxGeometry y="560.6300000000001" width="118.11" height="78.74" as="geometry" />
        </mxCell>
        <mxCell id="aPuClwsA_Py8r6cv8OrV-65" style="edgeStyle=orthogonalEdgeStyle;rounded=0;orthogonalLoop=1;jettySize=auto;html=1;endArrow=none;endFill=0;" parent="aPuClwsA_Py8r6cv8OrV-52" source="aPuClwsA_Py8r6cv8OrV-62" target="aPuClwsA_Py8r6cv8OrV-64" edge="1">
          <mxGeometry relative="1" as="geometry" />
        </mxCell>
        <mxCell id="aPuClwsA_Py8r6cv8OrV-66" value="Добавить в cost_so_far элемент start со значением 0" style="rounded=0;whiteSpace=wrap;html=1;aspect=fixed;" parent="aPuClwsA_Py8r6cv8OrV-52" vertex="1">
          <mxGeometry y="680.6300000000001" width="118.11" height="78.74" as="geometry" />
        </mxCell>
        <mxCell id="aPuClwsA_Py8r6cv8OrV-67" style="edgeStyle=orthogonalEdgeStyle;rounded=0;orthogonalLoop=1;jettySize=auto;html=1;endArrow=none;endFill=0;" parent="aPuClwsA_Py8r6cv8OrV-52" source="aPuClwsA_Py8r6cv8OrV-64" target="aPuClwsA_Py8r6cv8OrV-66" edge="1">
          <mxGeometry relative="1" as="geometry" />
        </mxCell>
        <mxCell id="aPuClwsA_Py8r6cv8OrV-68" value="1" style="ellipse;whiteSpace=wrap;html=1;aspect=fixed;" parent="aPuClwsA_Py8r6cv8OrV-52" vertex="1">
          <mxGeometry x="39" y="800.6300000000001" width="39.37" height="39.37" as="geometry" />
        </mxCell>
        <mxCell id="aPuClwsA_Py8r6cv8OrV-69" style="edgeStyle=orthogonalEdgeStyle;rounded=0;orthogonalLoop=1;jettySize=auto;html=1;endArrow=none;endFill=0;" parent="aPuClwsA_Py8r6cv8OrV-52" source="aPuClwsA_Py8r6cv8OrV-66" target="aPuClwsA_Py8r6cv8OrV-68" edge="1">
          <mxGeometry relative="1" as="geometry" />
        </mxCell>
        <mxCell id="aPuClwsA_Py8r6cv8OrV-70" value="frontier пока не пустой" style="shape=loopLimit;whiteSpace=wrap;html=1;aspect=fixed;" parent="aPuClwsA_Py8r6cv8OrV-52" vertex="1">
          <mxGeometry x="199.63" y="140.6300000000001" width="118.11" height="78.74" as="geometry" />
        </mxCell>
        <mxCell id="aPuClwsA_Py8r6cv8OrV-71" style="edgeStyle=orthogonalEdgeStyle;rounded=0;orthogonalLoop=1;jettySize=auto;html=1;endArrow=none;endFill=0;" parent="aPuClwsA_Py8r6cv8OrV-52" source="aPuClwsA_Py8r6cv8OrV-72" target="aPuClwsA_Py8r6cv8OrV-70" edge="1">
          <mxGeometry relative="1" as="geometry" />
        </mxCell>
        <mxCell id="aPuClwsA_Py8r6cv8OrV-72" value="1" style="ellipse;whiteSpace=wrap;html=1;aspect=fixed;" parent="aPuClwsA_Py8r6cv8OrV-52" vertex="1">
          <mxGeometry x="239" y="60.63000000000011" width="39.37" height="39.37" as="geometry" />
        </mxCell>
        <mxCell id="aPuClwsA_Py8r6cv8OrV-73" value="current = достать первый элемент frontier" style="rounded=0;whiteSpace=wrap;html=1;aspect=fixed;" parent="aPuClwsA_Py8r6cv8OrV-52" vertex="1">
          <mxGeometry x="199.63" y="260.6300000000001" width="118.11" height="78.74" as="geometry" />
        </mxCell>
        <mxCell id="aPuClwsA_Py8r6cv8OrV-74" style="edgeStyle=orthogonalEdgeStyle;rounded=0;orthogonalLoop=1;jettySize=auto;html=1;endArrow=none;endFill=0;" parent="aPuClwsA_Py8r6cv8OrV-52" source="aPuClwsA_Py8r6cv8OrV-70" target="aPuClwsA_Py8r6cv8OrV-73" edge="1">
          <mxGeometry relative="1" as="geometry" />
        </mxCell>
        <mxCell id="aPuClwsA_Py8r6cv8OrV-75" value="Да" style="edgeStyle=orthogonalEdgeStyle;rounded=0;orthogonalLoop=1;jettySize=auto;html=1;endArrow=none;endFill=0;" parent="aPuClwsA_Py8r6cv8OrV-52" source="aPuClwsA_Py8r6cv8OrV-76" edge="1">
          <mxGeometry x="-0.9576" y="9" relative="1" as="geometry">
            <mxPoint x="259.05500000000006" y="880.6300000000001" as="targetPoint" />
            <Array as="points">
              <mxPoint x="340" y="419.6300000000001" />
              <mxPoint x="340" y="880.6300000000001" />
            </Array>
            <mxPoint as="offset" />
          </mxGeometry>
        </mxCell>
        <mxCell id="aPuClwsA_Py8r6cv8OrV-76" value="current = goal" style="rhombus;whiteSpace=wrap;html=1;aspect=fixed;" parent="aPuClwsA_Py8r6cv8OrV-52" vertex="1">
          <mxGeometry x="200" y="380.6300000000001" width="118.11" height="78.74" as="geometry" />
        </mxCell>
        <mxCell id="aPuClwsA_Py8r6cv8OrV-77" style="edgeStyle=orthogonalEdgeStyle;rounded=0;orthogonalLoop=1;jettySize=auto;html=1;endArrow=none;endFill=0;" parent="aPuClwsA_Py8r6cv8OrV-52" source="aPuClwsA_Py8r6cv8OrV-73" target="aPuClwsA_Py8r6cv8OrV-76" edge="1">
          <mxGeometry relative="1" as="geometry" />
        </mxCell>
        <mxCell id="aPuClwsA_Py8r6cv8OrV-78" value="neighbors = соседи current" style="shape=process;whiteSpace=wrap;html=1;backgroundOutline=1;aspect=fixed;" parent="aPuClwsA_Py8r6cv8OrV-52" vertex="1">
          <mxGeometry x="200" y="500.6300000000001" width="118.11" height="78.74" as="geometry" />
        </mxCell>
        <mxCell id="aPuClwsA_Py8r6cv8OrV-79" value="Нет" style="edgeStyle=orthogonalEdgeStyle;rounded=0;orthogonalLoop=1;jettySize=auto;html=1;endArrow=none;endFill=0;" parent="aPuClwsA_Py8r6cv8OrV-52" source="aPuClwsA_Py8r6cv8OrV-76" target="aPuClwsA_Py8r6cv8OrV-78" edge="1">
          <mxGeometry x="-0.4542" relative="1" as="geometry">
            <mxPoint as="offset" />
          </mxGeometry>
        </mxCell>
        <mxCell id="aPuClwsA_Py8r6cv8OrV-80" value="2" style="ellipse;whiteSpace=wrap;html=1;aspect=fixed;" parent="aPuClwsA_Py8r6cv8OrV-52" vertex="1">
          <mxGeometry x="239" y="620.6300000000001" width="39.37" height="39.37" as="geometry" />
        </mxCell>
        <mxCell id="aPuClwsA_Py8r6cv8OrV-81" style="edgeStyle=orthogonalEdgeStyle;rounded=0;orthogonalLoop=1;jettySize=auto;html=1;endArrow=none;endFill=0;" parent="aPuClwsA_Py8r6cv8OrV-52" source="aPuClwsA_Py8r6cv8OrV-78" target="aPuClwsA_Py8r6cv8OrV-80" edge="1">
          <mxGeometry relative="1" as="geometry" />
        </mxCell>
        <mxCell id="aPuClwsA_Py8r6cv8OrV-82" value="Конец 2" style="ellipse;whiteSpace=wrap;html=1;aspect=fixed;" parent="aPuClwsA_Py8r6cv8OrV-52" vertex="1">
          <mxGeometry x="239" y="700.6300000000001" width="39.37" height="39.37" as="geometry" />
        </mxCell>
        <mxCell id="aPuClwsA_Py8r6cv8OrV-83" value="frontier" style="shape=loopLimit;whiteSpace=wrap;html=1;aspect=fixed;direction=west;" parent="aPuClwsA_Py8r6cv8OrV-52" vertex="1">
          <mxGeometry x="199" y="781.6300000000001" width="118.11" height="78.74" as="geometry" />
        </mxCell>
        <mxCell id="aPuClwsA_Py8r6cv8OrV-84" style="edgeStyle=orthogonalEdgeStyle;rounded=0;orthogonalLoop=1;jettySize=auto;html=1;endArrow=none;endFill=0;" parent="aPuClwsA_Py8r6cv8OrV-52" source="aPuClwsA_Py8r6cv8OrV-82" target="aPuClwsA_Py8r6cv8OrV-83" edge="1">
          <mxGeometry relative="1" as="geometry">
            <Array as="points">
              <mxPoint x="259" y="760.6300000000001" />
              <mxPoint x="258" y="760.6300000000001" />
            </Array>
          </mxGeometry>
        </mxCell>
        <mxCell id="aPuClwsA_Py8r6cv8OrV-85" value="Конец 1" style="ellipse;whiteSpace=wrap;html=1;aspect=fixed;" parent="aPuClwsA_Py8r6cv8OrV-52" vertex="1">
          <mxGeometry x="239" y="900.6300000000001" width="39.37" height="39.37" as="geometry" />
        </mxCell>
        <mxCell id="aPuClwsA_Py8r6cv8OrV-86" style="edgeStyle=orthogonalEdgeStyle;rounded=0;orthogonalLoop=1;jettySize=auto;html=1;endArrow=none;endFill=0;" parent="aPuClwsA_Py8r6cv8OrV-52" source="aPuClwsA_Py8r6cv8OrV-83" target="aPuClwsA_Py8r6cv8OrV-85" edge="1">
          <mxGeometry relative="1" as="geometry" />
        </mxCell>
        <mxCell id="aPuClwsA_Py8r6cv8OrV-87" value="1" style="ellipse;whiteSpace=wrap;html=1;aspect=fixed;" parent="aPuClwsA_Py8r6cv8OrV-52" vertex="1">
          <mxGeometry x="419.37" y="0.6300000000001091" width="39.37" height="39.37" as="geometry" />
        </mxCell>
        <mxCell id="aPuClwsA_Py8r6cv8OrV-88" value="next = начало neighbors; конец neighbors;&lt;br&gt;1" style="shape=hexagon;perimeter=hexagonPerimeter2;whiteSpace=wrap;html=1;fixedSize=1;aspect=fixed;fontFamily=Helvetica;fontSize=11;fontColor=default;" parent="aPuClwsA_Py8r6cv8OrV-52" vertex="1">
          <mxGeometry x="380" y="80.63000000000011" width="118.11" height="78.74" as="geometry" />
        </mxCell>
        <mxCell id="aPuClwsA_Py8r6cv8OrV-89" style="edgeStyle=orthogonalEdgeStyle;shape=connector;rounded=0;orthogonalLoop=1;jettySize=auto;html=1;labelBackgroundColor=default;strokeColor=default;fontFamily=Helvetica;fontSize=11;fontColor=default;endArrow=none;endFill=0;" parent="aPuClwsA_Py8r6cv8OrV-52" source="aPuClwsA_Py8r6cv8OrV-87" target="aPuClwsA_Py8r6cv8OrV-88" edge="1">
          <mxGeometry relative="1" as="geometry" />
        </mxCell>
        <mxCell id="aPuClwsA_Py8r6cv8OrV-90" value="Конец 2" style="ellipse;whiteSpace=wrap;html=1;aspect=fixed;fontFamily=Helvetica;fontSize=11;fontColor=default;" parent="aPuClwsA_Py8r6cv8OrV-52" vertex="1">
          <mxGeometry x="520" y="160.32000000000016" width="39.37" height="39.37" as="geometry" />
        </mxCell>
        <mxCell id="aPuClwsA_Py8r6cv8OrV-91" style="edgeStyle=orthogonalEdgeStyle;shape=connector;rounded=0;orthogonalLoop=1;jettySize=auto;html=1;labelBackgroundColor=default;strokeColor=default;fontFamily=Helvetica;fontSize=11;fontColor=default;endArrow=none;endFill=0;" parent="aPuClwsA_Py8r6cv8OrV-52" source="aPuClwsA_Py8r6cv8OrV-88" target="aPuClwsA_Py8r6cv8OrV-90" edge="1">
          <mxGeometry relative="1" as="geometry" />
        </mxCell>
        <mxCell id="aPuClwsA_Py8r6cv8OrV-92" value="graph_cost = вес между current и next" style="shape=process;whiteSpace=wrap;html=1;backgroundOutline=1;aspect=fixed;fontFamily=Helvetica;fontSize=11;fontColor=default;" parent="aPuClwsA_Py8r6cv8OrV-52" vertex="1">
          <mxGeometry x="380" y="200.6300000000001" width="118.11" height="78.74" as="geometry" />
        </mxCell>
        <mxCell id="aPuClwsA_Py8r6cv8OrV-93" style="edgeStyle=orthogonalEdgeStyle;shape=connector;rounded=0;orthogonalLoop=1;jettySize=auto;html=1;labelBackgroundColor=default;strokeColor=default;fontFamily=Helvetica;fontSize=11;fontColor=default;endArrow=none;endFill=0;" parent="aPuClwsA_Py8r6cv8OrV-52" source="aPuClwsA_Py8r6cv8OrV-88" target="aPuClwsA_Py8r6cv8OrV-92" edge="1">
          <mxGeometry relative="1" as="geometry" />
        </mxCell>
        <mxCell id="aPuClwsA_Py8r6cv8OrV-94" value="new_cost = cost_so_far[current] + graph_cost" style="rounded=0;whiteSpace=wrap;html=1;aspect=fixed;fontFamily=Helvetica;fontSize=11;fontColor=default;" parent="aPuClwsA_Py8r6cv8OrV-52" vertex="1">
          <mxGeometry x="380" y="320.6300000000001" width="118.11" height="78.74" as="geometry" />
        </mxCell>
        <mxCell id="aPuClwsA_Py8r6cv8OrV-95" style="edgeStyle=orthogonalEdgeStyle;shape=connector;rounded=0;orthogonalLoop=1;jettySize=auto;html=1;labelBackgroundColor=default;strokeColor=default;fontFamily=Helvetica;fontSize=11;fontColor=default;endArrow=none;endFill=0;" parent="aPuClwsA_Py8r6cv8OrV-52" source="aPuClwsA_Py8r6cv8OrV-92" target="aPuClwsA_Py8r6cv8OrV-94" edge="1">
          <mxGeometry relative="1" as="geometry" />
        </mxCell>
        <mxCell id="aPuClwsA_Py8r6cv8OrV-96" value="Нет" style="edgeStyle=orthogonalEdgeStyle;shape=connector;rounded=0;orthogonalLoop=1;jettySize=auto;html=1;labelBackgroundColor=default;strokeColor=default;fontFamily=Helvetica;fontSize=11;fontColor=default;endArrow=none;endFill=0;" parent="aPuClwsA_Py8r6cv8OrV-52" source="aPuClwsA_Py8r6cv8OrV-97" edge="1">
          <mxGeometry x="-0.0497" y="-9" relative="1" as="geometry">
            <mxPoint x="360" y="480" as="targetPoint" />
            <mxPoint as="offset" />
          </mxGeometry>
        </mxCell>
        <mxCell id="aPuClwsA_Py8r6cv8OrV-97" value="Условие" style="rhombus;whiteSpace=wrap;html=1;aspect=fixed;fontFamily=Helvetica;fontSize=11;fontColor=default;" parent="aPuClwsA_Py8r6cv8OrV-52" vertex="1">
          <mxGeometry x="380" y="440.6300000000001" width="118.11" height="78.74" as="geometry" />
        </mxCell>
        <mxCell id="aPuClwsA_Py8r6cv8OrV-98" style="edgeStyle=orthogonalEdgeStyle;shape=connector;rounded=0;orthogonalLoop=1;jettySize=auto;html=1;labelBackgroundColor=default;strokeColor=default;fontFamily=Helvetica;fontSize=11;fontColor=default;endArrow=none;endFill=0;" parent="aPuClwsA_Py8r6cv8OrV-52" source="aPuClwsA_Py8r6cv8OrV-94" target="aPuClwsA_Py8r6cv8OrV-97" edge="1">
          <mxGeometry relative="1" as="geometry" />
        </mxCell>
        <mxCell id="aPuClwsA_Py8r6cv8OrV-99" value="Добавить в cost_so_far элемент next со значением new_cost" style="rounded=0;whiteSpace=wrap;html=1;aspect=fixed;fontFamily=Helvetica;fontSize=11;fontColor=default;" parent="aPuClwsA_Py8r6cv8OrV-52" vertex="1">
          <mxGeometry x="380" y="560.6300000000001" width="118.11" height="78.74" as="geometry" />
        </mxCell>
        <mxCell id="aPuClwsA_Py8r6cv8OrV-100" value="Да" style="edgeStyle=orthogonalEdgeStyle;shape=connector;rounded=0;orthogonalLoop=1;jettySize=auto;html=1;labelBackgroundColor=default;strokeColor=default;fontFamily=Helvetica;fontSize=11;fontColor=default;endArrow=none;endFill=0;" parent="aPuClwsA_Py8r6cv8OrV-52" source="aPuClwsA_Py8r6cv8OrV-97" target="aPuClwsA_Py8r6cv8OrV-99" edge="1">
          <mxGeometry x="-0.4542" relative="1" as="geometry">
            <mxPoint as="offset" />
          </mxGeometry>
        </mxCell>
        <mxCell id="aPuClwsA_Py8r6cv8OrV-101" value="Добавить в came_from элемент next со значением current" style="rounded=0;whiteSpace=wrap;html=1;aspect=fixed;fontFamily=Helvetica;fontSize=11;fontColor=default;" parent="aPuClwsA_Py8r6cv8OrV-52" vertex="1">
          <mxGeometry x="380" y="680.6300000000001" width="118.11" height="78.74" as="geometry" />
        </mxCell>
        <mxCell id="aPuClwsA_Py8r6cv8OrV-102" style="edgeStyle=orthogonalEdgeStyle;shape=connector;rounded=0;orthogonalLoop=1;jettySize=auto;html=1;labelBackgroundColor=default;strokeColor=default;fontFamily=Helvetica;fontSize=11;fontColor=default;endArrow=none;endFill=0;" parent="aPuClwsA_Py8r6cv8OrV-52" source="aPuClwsA_Py8r6cv8OrV-99" target="aPuClwsA_Py8r6cv8OrV-101" edge="1">
          <mxGeometry relative="1" as="geometry" />
        </mxCell>
        <mxCell id="aPuClwsA_Py8r6cv8OrV-108" value="Конец 1" style="ellipse;whiteSpace=wrap;html=1;aspect=fixed;fontFamily=Helvetica;fontSize=11;fontColor=default;" parent="aPuClwsA_Py8r6cv8OrV-52" vertex="1">
          <mxGeometry x="598.74" y="639.3699999999999" width="39.37" height="39.37" as="geometry" />
        </mxCell>
        <mxCell id="aPuClwsA_Py8r6cv8OrV-109" value="результат = reconstruct_path (start, goal, came_from)" style="shape=process;whiteSpace=wrap;html=1;backgroundOutline=1;aspect=fixed;fontFamily=Helvetica;fontSize=11;fontColor=default;" parent="aPuClwsA_Py8r6cv8OrV-52" vertex="1">
          <mxGeometry x="559.37" y="720" width="118.11" height="78.74" as="geometry" />
        </mxCell>
        <mxCell id="aPuClwsA_Py8r6cv8OrV-110" style="edgeStyle=orthogonalEdgeStyle;shape=connector;rounded=0;orthogonalLoop=1;jettySize=auto;html=1;labelBackgroundColor=default;strokeColor=default;fontFamily=Helvetica;fontSize=11;fontColor=default;endArrow=none;endFill=0;" parent="aPuClwsA_Py8r6cv8OrV-52" source="aPuClwsA_Py8r6cv8OrV-108" target="aPuClwsA_Py8r6cv8OrV-109" edge="1">
          <mxGeometry relative="1" as="geometry" />
        </mxCell>
        <mxCell id="aPuClwsA_Py8r6cv8OrV-111" value="Конец" style="strokeWidth=1;html=1;shape=stencil(xVXBboMwDP0ajkxAtK49Tqw79rJJO7vUpVFDgpysdH+/0IBaoDCayyQO+Bne83NsJWCpPkCJQRJJKDBgb0GSfCIVXIJRZAObOTh4EbmwcuFq6ULQJWbGYScgDluBLqMNqSNWfGcaBi4PSNzUWbYOolf7Tf2wNFNSWhKupO5kbvKWDLi0/0ZnRxY9PTuZnyZ2UWkVCjRIHfRqbuOAIHn3VornKX14KHUdtbp/KX09rhT7Ka19uhf3xeKZHdx4GLsjt1zNPDAvuZb9cXdezRzIzXY3IsdSi4wtIEu3kB1zUt9yd7fIEurlHiTadKFOeK2+P99T/lsGweUNw8vycQagzL5QrwZqKFgTn0M4cx2SMlC3ocMvgHIMLU+4F5B3UrpCLG/g5uzvl7vwcNzr2TyKf7Tsc8aZUBonNsHigzm7oCPDydK9IpyY2j0Xwt1OYwsxILig7q68AL8=);whiteSpace=wrap;aspect=fixed;fontFamily=Helvetica;fontSize=11;fontColor=default;" parent="aPuClwsA_Py8r6cv8OrV-52" vertex="1">
          <mxGeometry x="559.37" y="840" width="118.11" height="39.37" as="geometry" />
        </mxCell>
        <mxCell id="aPuClwsA_Py8r6cv8OrV-112" style="edgeStyle=orthogonalEdgeStyle;shape=connector;rounded=0;orthogonalLoop=1;jettySize=auto;html=1;labelBackgroundColor=default;strokeColor=default;fontFamily=Helvetica;fontSize=11;fontColor=default;endArrow=none;endFill=0;" parent="aPuClwsA_Py8r6cv8OrV-52" source="aPuClwsA_Py8r6cv8OrV-109" target="aPuClwsA_Py8r6cv8OrV-111" edge="1">
          <mxGeometry relative="1" as="geometry" />
        </mxCell>
        <mxCell id="aPuClwsA_Py8r6cv8OrV-113" value="Начало" style="strokeWidth=1;html=1;shape=stencil(xVXBboMwDP0ajkxAtK49Tqw79rJJO7vUpVFDgpysdH+/0IBaoDCayyQO+Bne83NsJWCpPkCJQRJJKDBgb0GSfCIVXIJRZAObOTh4EbmwcuFq6ULQJWbGYScgDluBLqMNqSNWfGcaBi4PSNzUWbYOolf7Tf2wNFNSWhKupO5kbvKWDLi0/0ZnRxY9PTuZnyZ2UWkVCjRIHfRqbuOAIHn3VornKX14KHUdtbp/KX09rhT7Ka19uhf3xeKZHdx4GLsjt1zNPDAvuZb9cXdezRzIzXY3IsdSi4wtIEu3kB1zUt9yd7fIEurlHiTadKFOeK2+P99T/lsGweUNw8vycQagzL5QrwZqKFgTn0M4cx2SMlC3ocMvgHIMLU+4F5B3UrpCLG/g5uzvl7vwcNzr2TyKf7Tsc8aZUBonNsHigzm7oCPDydK9IpyY2j0Xwt1OYwsxILig7q68AL8=);whiteSpace=wrap;aspect=fixed;" parent="aPuClwsA_Py8r6cv8OrV-52" vertex="1">
          <mxGeometry x="800" y="1.2600000000002183" width="118.11" height="39.37" as="geometry" />
        </mxCell>
        <mxCell id="aPuClwsA_Py8r6cv8OrV-116" value="Создать массив path" style="rounded=0;whiteSpace=wrap;html=1;aspect=fixed;fontFamily=Helvetica;fontSize=11;fontColor=default;" parent="aPuClwsA_Py8r6cv8OrV-52" vertex="1">
          <mxGeometry x="800" y="81.58000000000015" width="118.11" height="78.74" as="geometry" />
        </mxCell>
        <mxCell id="aPuClwsA_Py8r6cv8OrV-117" style="edgeStyle=orthogonalEdgeStyle;shape=connector;rounded=0;orthogonalLoop=1;jettySize=auto;html=1;labelBackgroundColor=default;strokeColor=default;fontFamily=Helvetica;fontSize=11;fontColor=default;endArrow=none;endFill=0;" parent="aPuClwsA_Py8r6cv8OrV-52" source="aPuClwsA_Py8r6cv8OrV-113" target="aPuClwsA_Py8r6cv8OrV-116" edge="1">
          <mxGeometry relative="1" as="geometry" />
        </mxCell>
        <mxCell id="aPuClwsA_Py8r6cv8OrV-118" value="Создать элемент current и присвоить ему goal" style="rounded=0;whiteSpace=wrap;html=1;aspect=fixed;fontFamily=Helvetica;fontSize=11;fontColor=default;" parent="aPuClwsA_Py8r6cv8OrV-52" vertex="1">
          <mxGeometry x="800" y="200.6300000000001" width="118.11" height="78.74" as="geometry" />
        </mxCell>
        <mxCell id="aPuClwsA_Py8r6cv8OrV-119" style="edgeStyle=orthogonalEdgeStyle;shape=connector;rounded=0;orthogonalLoop=1;jettySize=auto;html=1;labelBackgroundColor=default;strokeColor=default;fontFamily=Helvetica;fontSize=11;fontColor=default;endArrow=none;endFill=0;" parent="aPuClwsA_Py8r6cv8OrV-52" source="aPuClwsA_Py8r6cv8OrV-116" target="aPuClwsA_Py8r6cv8OrV-118" edge="1">
          <mxGeometry relative="1" as="geometry" />
        </mxCell>
        <mxCell id="aPuClwsA_Py8r6cv8OrV-120" value="Да" style="edgeStyle=orthogonalEdgeStyle;shape=connector;rounded=0;orthogonalLoop=1;jettySize=auto;html=1;labelBackgroundColor=default;strokeColor=default;fontFamily=Helvetica;fontSize=11;fontColor=default;endArrow=none;endFill=0;" parent="aPuClwsA_Py8r6cv8OrV-52" source="aPuClwsA_Py8r6cv8OrV-121" edge="1">
          <mxGeometry x="-0.9436" y="9" relative="1" as="geometry">
            <mxPoint x="860" y="680.6300000000001" as="targetPoint" />
            <Array as="points">
              <mxPoint x="940" y="359.6300000000001" />
              <mxPoint x="940" y="680.6300000000001" />
            </Array>
            <mxPoint as="offset" />
          </mxGeometry>
        </mxCell>
        <mxCell id="aPuClwsA_Py8r6cv8OrV-121" value="Нашел goal в came_from" style="rhombus;whiteSpace=wrap;html=1;aspect=fixed;fontFamily=Helvetica;fontSize=11;fontColor=default;" parent="aPuClwsA_Py8r6cv8OrV-52" vertex="1">
          <mxGeometry x="800" y="320.6300000000001" width="118.11" height="78.74" as="geometry" />
        </mxCell>
        <mxCell id="aPuClwsA_Py8r6cv8OrV-122" style="edgeStyle=orthogonalEdgeStyle;shape=connector;rounded=0;orthogonalLoop=1;jettySize=auto;html=1;labelBackgroundColor=default;strokeColor=default;fontFamily=Helvetica;fontSize=11;fontColor=default;endArrow=none;endFill=0;" parent="aPuClwsA_Py8r6cv8OrV-52" source="aPuClwsA_Py8r6cv8OrV-118" target="aPuClwsA_Py8r6cv8OrV-121" edge="1">
          <mxGeometry relative="1" as="geometry" />
        </mxCell>
        <mxCell id="aPuClwsA_Py8r6cv8OrV-123" value="3" style="ellipse;whiteSpace=wrap;html=1;aspect=fixed;fontFamily=Helvetica;fontSize=11;fontColor=default;" parent="aPuClwsA_Py8r6cv8OrV-52" vertex="1">
          <mxGeometry x="1000" y="80.63000000000011" width="39.37" height="39.37" as="geometry" />
        </mxCell>
        <mxCell id="aPuClwsA_Py8r6cv8OrV-124" value="Конец 3" style="ellipse;whiteSpace=wrap;html=1;aspect=fixed;fontFamily=Helvetica;fontSize=11;fontColor=default;" parent="aPuClwsA_Py8r6cv8OrV-52" vertex="1">
          <mxGeometry x="840" y="500.6300000000001" width="39.37" height="39.37" as="geometry" />
        </mxCell>
        <mxCell id="aPuClwsA_Py8r6cv8OrV-125" value="reverse(path)" style="shape=process;whiteSpace=wrap;html=1;backgroundOutline=1;aspect=fixed;fontFamily=Helvetica;fontSize=11;fontColor=default;" parent="aPuClwsA_Py8r6cv8OrV-52" vertex="1">
          <mxGeometry x="801" y="579.6300000000001" width="118.11" height="78.74" as="geometry" />
        </mxCell>
        <mxCell id="aPuClwsA_Py8r6cv8OrV-126" style="edgeStyle=orthogonalEdgeStyle;shape=connector;rounded=0;orthogonalLoop=1;jettySize=auto;html=1;labelBackgroundColor=default;strokeColor=default;fontFamily=Helvetica;fontSize=11;fontColor=default;endArrow=none;endFill=0;" parent="aPuClwsA_Py8r6cv8OrV-52" source="aPuClwsA_Py8r6cv8OrV-124" target="aPuClwsA_Py8r6cv8OrV-125" edge="1">
          <mxGeometry relative="1" as="geometry" />
        </mxCell>
        <mxCell id="aPuClwsA_Py8r6cv8OrV-127" value="Конец" style="strokeWidth=1;html=1;shape=stencil(xVXBboMwDP0ajkxAtK49Tqw79rJJO7vUpVFDgpysdH+/0IBaoDCayyQO+Bne83NsJWCpPkCJQRJJKDBgb0GSfCIVXIJRZAObOTh4EbmwcuFq6ULQJWbGYScgDluBLqMNqSNWfGcaBi4PSNzUWbYOolf7Tf2wNFNSWhKupO5kbvKWDLi0/0ZnRxY9PTuZnyZ2UWkVCjRIHfRqbuOAIHn3VornKX14KHUdtbp/KX09rhT7Ka19uhf3xeKZHdx4GLsjt1zNPDAvuZb9cXdezRzIzXY3IsdSi4wtIEu3kB1zUt9yd7fIEurlHiTadKFOeK2+P99T/lsGweUNw8vycQagzL5QrwZqKFgTn0M4cx2SMlC3ocMvgHIMLU+4F5B3UrpCLG/g5uzvl7vwcNzr2TyKf7Tsc8aZUBonNsHigzm7oCPDydK9IpyY2j0Xwt1OYwsxILig7q68AL8=);whiteSpace=wrap;aspect=fixed;fontFamily=Helvetica;fontSize=11;fontColor=default;" parent="aPuClwsA_Py8r6cv8OrV-52" vertex="1">
          <mxGeometry x="801" y="700.6300000000001" width="118.11" height="39.37" as="geometry" />
        </mxCell>
        <mxCell id="aPuClwsA_Py8r6cv8OrV-128" style="edgeStyle=orthogonalEdgeStyle;shape=connector;rounded=0;orthogonalLoop=1;jettySize=auto;html=1;labelBackgroundColor=default;strokeColor=default;fontFamily=Helvetica;fontSize=11;fontColor=default;endArrow=none;endFill=0;" parent="aPuClwsA_Py8r6cv8OrV-52" source="aPuClwsA_Py8r6cv8OrV-125" target="aPuClwsA_Py8r6cv8OrV-127" edge="1">
          <mxGeometry relative="1" as="geometry" />
        </mxCell>
        <mxCell id="aPuClwsA_Py8r6cv8OrV-129" value="current пока не равняется start" style="shape=loopLimit;whiteSpace=wrap;html=1;aspect=fixed;" parent="aPuClwsA_Py8r6cv8OrV-52" vertex="1">
          <mxGeometry x="960.6300000000001" y="159.37000000000012" width="118.11" height="78.74" as="geometry" />
        </mxCell>
        <mxCell id="aPuClwsA_Py8r6cv8OrV-130" style="edgeStyle=orthogonalEdgeStyle;shape=connector;rounded=0;orthogonalLoop=1;jettySize=auto;html=1;labelBackgroundColor=default;strokeColor=default;fontFamily=Helvetica;fontSize=11;fontColor=default;endArrow=none;endFill=0;" parent="aPuClwsA_Py8r6cv8OrV-52" source="aPuClwsA_Py8r6cv8OrV-123" target="aPuClwsA_Py8r6cv8OrV-129" edge="1">
          <mxGeometry relative="1" as="geometry" />
        </mxCell>
        <mxCell id="aPuClwsA_Py8r6cv8OrV-131" value="Добавить в path элемент current" style="rounded=0;whiteSpace=wrap;html=1;aspect=fixed;fontFamily=Helvetica;fontSize=11;fontColor=default;" parent="aPuClwsA_Py8r6cv8OrV-52" vertex="1">
          <mxGeometry x="960.6300000000001" y="279.3700000000001" width="118.11" height="78.74" as="geometry" />
        </mxCell>
        <mxCell id="aPuClwsA_Py8r6cv8OrV-132" style="edgeStyle=orthogonalEdgeStyle;shape=connector;rounded=0;orthogonalLoop=1;jettySize=auto;html=1;labelBackgroundColor=default;strokeColor=default;fontFamily=Helvetica;fontSize=11;fontColor=default;endArrow=none;endFill=0;" parent="aPuClwsA_Py8r6cv8OrV-52" source="aPuClwsA_Py8r6cv8OrV-129" target="aPuClwsA_Py8r6cv8OrV-131" edge="1">
          <mxGeometry relative="1" as="geometry" />
        </mxCell>
        <mxCell id="aPuClwsA_Py8r6cv8OrV-133" value="current = came_from[current]" style="rounded=0;whiteSpace=wrap;html=1;aspect=fixed;fontFamily=Helvetica;fontSize=11;fontColor=default;" parent="aPuClwsA_Py8r6cv8OrV-52" vertex="1">
          <mxGeometry x="960.6300000000001" y="399.3700000000001" width="118.11" height="78.74" as="geometry" />
        </mxCell>
        <mxCell id="aPuClwsA_Py8r6cv8OrV-134" style="edgeStyle=orthogonalEdgeStyle;shape=connector;rounded=0;orthogonalLoop=1;jettySize=auto;html=1;labelBackgroundColor=default;strokeColor=default;fontFamily=Helvetica;fontSize=11;fontColor=default;endArrow=none;endFill=0;" parent="aPuClwsA_Py8r6cv8OrV-52" source="aPuClwsA_Py8r6cv8OrV-131" target="aPuClwsA_Py8r6cv8OrV-133" edge="1">
          <mxGeometry relative="1" as="geometry" />
        </mxCell>
        <mxCell id="aPuClwsA_Py8r6cv8OrV-135" value="current" style="shape=loopLimit;whiteSpace=wrap;html=1;aspect=fixed;direction=west;" parent="aPuClwsA_Py8r6cv8OrV-52" vertex="1">
          <mxGeometry x="960.6300000000001" y="519.3700000000001" width="118.11" height="78.74" as="geometry" />
        </mxCell>
        <mxCell id="aPuClwsA_Py8r6cv8OrV-136" style="edgeStyle=orthogonalEdgeStyle;shape=connector;rounded=0;orthogonalLoop=1;jettySize=auto;html=1;labelBackgroundColor=default;strokeColor=default;fontFamily=Helvetica;fontSize=11;fontColor=default;endArrow=none;endFill=0;" parent="aPuClwsA_Py8r6cv8OrV-52" source="aPuClwsA_Py8r6cv8OrV-133" target="aPuClwsA_Py8r6cv8OrV-135" edge="1">
          <mxGeometry relative="1" as="geometry" />
        </mxCell>
        <mxCell id="aPuClwsA_Py8r6cv8OrV-137" value="Конец 3" style="ellipse;whiteSpace=wrap;html=1;aspect=fixed;fontFamily=Helvetica;fontSize=11;fontColor=default;" parent="aPuClwsA_Py8r6cv8OrV-52" vertex="1">
          <mxGeometry x="1000" y="641.2600000000002" width="39.37" height="39.37" as="geometry" />
        </mxCell>
        <mxCell id="aPuClwsA_Py8r6cv8OrV-138" style="edgeStyle=orthogonalEdgeStyle;shape=connector;rounded=0;orthogonalLoop=1;jettySize=auto;html=1;labelBackgroundColor=default;strokeColor=default;fontFamily=Helvetica;fontSize=11;fontColor=default;endArrow=none;endFill=0;" parent="aPuClwsA_Py8r6cv8OrV-52" source="aPuClwsA_Py8r6cv8OrV-135" target="aPuClwsA_Py8r6cv8OrV-137" edge="1">
          <mxGeometry relative="1" as="geometry" />
        </mxCell>
        <mxCell id="aPuClwsA_Py8r6cv8OrV-139" value="3" style="ellipse;whiteSpace=wrap;html=1;aspect=fixed;fontFamily=Helvetica;fontSize=11;fontColor=default;" parent="aPuClwsA_Py8r6cv8OrV-52" vertex="1">
          <mxGeometry x="839.37" y="434.7600000000002" width="39.37" height="39.37" as="geometry" />
        </mxCell>
        <mxCell id="aPuClwsA_Py8r6cv8OrV-140" value="Нет" style="edgeStyle=orthogonalEdgeStyle;shape=connector;rounded=0;orthogonalLoop=1;jettySize=auto;html=1;labelBackgroundColor=default;strokeColor=default;fontFamily=Helvetica;fontSize=11;fontColor=default;endArrow=none;endFill=0;" parent="aPuClwsA_Py8r6cv8OrV-52" source="aPuClwsA_Py8r6cv8OrV-121" target="aPuClwsA_Py8r6cv8OrV-139" edge="1">
          <mxGeometry x="-0.3628" y="1" relative="1" as="geometry">
            <mxPoint as="offset" />
          </mxGeometry>
        </mxCell>
        <mxCell id="aPuClwsA_Py8r6cv8OrV-106" value="Не нашел cost_so_far[next]&lt;br&gt;или new_cost &amp;lt; cost_so_far[next]" style="strokeWidth=1;html=1;shape=mxgraph.flowchart.annotation_2;align=left;labelPosition=right;pointerEvents=1;fontFamily=Helvetica;fontSize=11;fontColor=default;" parent="aPuClwsA_Py8r6cv8OrV-52" vertex="1">
          <mxGeometry x="530" y="460.6300000000001" width="39.37" height="38.74" as="geometry" />
        </mxCell>
        <mxCell id="aPuClwsA_Py8r6cv8OrV-107" style="edgeStyle=orthogonalEdgeStyle;shape=connector;rounded=0;orthogonalLoop=1;jettySize=auto;html=1;labelBackgroundColor=default;strokeColor=default;fontFamily=Helvetica;fontSize=11;fontColor=default;endArrow=none;endFill=0;dashed=1;" parent="aPuClwsA_Py8r6cv8OrV-52" source="aPuClwsA_Py8r6cv8OrV-97" target="aPuClwsA_Py8r6cv8OrV-106" edge="1">
          <mxGeometry relative="1" as="geometry" />
        </mxCell>
        <mxCell id="GO8cYIERNm4QwIV99a9v-91" style="edgeStyle=orthogonalEdgeStyle;shape=connector;rounded=0;orthogonalLoop=1;jettySize=auto;html=1;labelBackgroundColor=default;strokeColor=default;fontFamily=Helvetica;fontSize=11;fontColor=default;endArrow=none;endFill=0;" parent="aPuClwsA_Py8r6cv8OrV-1" source="GO8cYIERNm4QwIV99a9v-1" target="aPuClwsA_Py8r6cv8OrV-104" edge="1">
          <mxGeometry relative="1" as="geometry" />
        </mxCell>
        <mxCell id="GO8cYIERNm4QwIV99a9v-1" value="heuristic = эвристика между next и goal" style="shape=process;whiteSpace=wrap;html=1;backgroundOutline=1;aspect=fixed;" parent="aPuClwsA_Py8r6cv8OrV-1" vertex="1">
          <mxGeometry x="690" y="880.0000000000001" width="118.11" height="78.74" as="geometry" />
        </mxCell>
        <mxCell id="aPuClwsA_Py8r6cv8OrV-104" value="Добавить в frontier next с весом new_cost + heuristic" style="rounded=0;whiteSpace=wrap;html=1;aspect=fixed;fontFamily=Helvetica;fontSize=11;fontColor=default;" parent="aPuClwsA_Py8r6cv8OrV-1" vertex="1">
          <mxGeometry x="690" y="1000.0000000000001" width="118.11" height="78.74" as="geometry" />
        </mxCell>
        <mxCell id="aPuClwsA_Py8r6cv8OrV-103" style="edgeStyle=orthogonalEdgeStyle;shape=connector;rounded=0;orthogonalLoop=1;jettySize=auto;html=1;labelBackgroundColor=default;strokeColor=default;fontFamily=Helvetica;fontSize=11;fontColor=default;endArrow=none;endFill=0;" parent="aPuClwsA_Py8r6cv8OrV-1" source="aPuClwsA_Py8r6cv8OrV-104" target="aPuClwsA_Py8r6cv8OrV-88" edge="1">
          <mxGeometry relative="1" as="geometry">
            <Array as="points">
              <mxPoint x="670" y="1039" />
              <mxPoint x="670" y="200" />
            </Array>
          </mxGeometry>
        </mxCell>
        <mxCell id="GO8cYIERNm4QwIV99a9v-90" style="edgeStyle=orthogonalEdgeStyle;shape=connector;rounded=0;orthogonalLoop=1;jettySize=auto;html=1;labelBackgroundColor=default;strokeColor=default;fontFamily=Helvetica;fontSize=11;fontColor=default;endArrow=none;endFill=0;" parent="aPuClwsA_Py8r6cv8OrV-1" source="aPuClwsA_Py8r6cv8OrV-101" target="GO8cYIERNm4QwIV99a9v-1" edge="1">
          <mxGeometry relative="1" as="geometry" />
        </mxCell>
        <mxCell id="aPuClwsA_Py8r6cv8OrV-54" value="&amp;nbsp;a_star_search(graph, start, goal)" style="strokeWidth=1;html=1;shape=mxgraph.flowchart.annotation_2;align=left;labelPosition=right;pointerEvents=1;" parent="aPuClwsA_Py8r6cv8OrV-1" vertex="1">
          <mxGeometry x="450" y="80.9500000000001" width="39.37" height="40" as="geometry" />
        </mxCell>
        <mxCell id="aPuClwsA_Py8r6cv8OrV-55" style="edgeStyle=orthogonalEdgeStyle;rounded=0;orthogonalLoop=1;jettySize=auto;html=1;endArrow=none;endFill=0;dashed=1;" parent="aPuClwsA_Py8r6cv8OrV-1" source="aPuClwsA_Py8r6cv8OrV-53" target="aPuClwsA_Py8r6cv8OrV-54" edge="1">
          <mxGeometry relative="1" as="geometry" />
        </mxCell>
        <mxCell id="aPuClwsA_Py8r6cv8OrV-114" value="&amp;nbsp;dijkstra_search(graph, start, goal)" style="strokeWidth=1;html=1;shape=mxgraph.flowchart.annotation_2;align=left;labelPosition=right;pointerEvents=1;" parent="aPuClwsA_Py8r6cv8OrV-1" vertex="1">
          <mxGeometry x="1260" y="80.95" width="39.37" height="40" as="geometry" />
        </mxCell>
        <mxCell id="aPuClwsA_Py8r6cv8OrV-115" style="edgeStyle=orthogonalEdgeStyle;shape=connector;rounded=0;orthogonalLoop=1;jettySize=auto;html=1;labelBackgroundColor=default;strokeColor=default;fontFamily=Helvetica;fontSize=11;fontColor=default;endArrow=none;endFill=0;dashed=1;" parent="aPuClwsA_Py8r6cv8OrV-1" source="aPuClwsA_Py8r6cv8OrV-113" target="aPuClwsA_Py8r6cv8OrV-114" edge="1">
          <mxGeometry relative="1" as="geometry" />
        </mxCell>
      </root>
    </mxGraphModel>
  </diagram>
  <diagram id="MYjNn6cCxMctuuzGqKe9" name="Program">
    <mxGraphModel dx="1418" dy="820" grid="1" gridSize="10" guides="1" tooltips="1" connect="1" arrows="1" fold="1" page="1" pageScale="1" pageWidth="1654" pageHeight="1169" math="0" shadow="0">
      <root>
        <mxCell id="0" />
        <mxCell id="1" parent="0" />
        <mxCell id="Wl16lkAcDqWU7XFoaTse-1" value="" style="group;fontFamily=Helvetica;fontSize=11;fontColor=default;" parent="1" vertex="1" connectable="0">
          <mxGeometry width="1653.54" height="1169.289" as="geometry" />
        </mxCell>
        <mxCell id="Wl16lkAcDqWU7XFoaTse-2" value="" style="rounded=0;whiteSpace=wrap;html=1;aspect=fixed;fillColor=none;strokeColor=none;fontFamily=Helvetica;fontSize=11;fontColor=default;" parent="Wl16lkAcDqWU7XFoaTse-1" vertex="1">
          <mxGeometry width="1653.54" height="1169.289" as="geometry" />
        </mxCell>
        <mxCell id="Wl16lkAcDqWU7XFoaTse-3" value="" style="rounded=0;whiteSpace=wrap;html=1;aspect=fixed;fillColor=none;fontFamily=Helvetica;fontSize=11;fontColor=default;" parent="Wl16lkAcDqWU7XFoaTse-1" vertex="1">
          <mxGeometry x="78.74" y="19.685" width="1555.115" height="1129.9189999999999" as="geometry" />
        </mxCell>
        <mxCell id="9uqp5s0frAu6T7ih4D6Y-1" value="" style="group" parent="Wl16lkAcDqWU7XFoaTse-1" vertex="1" connectable="0">
          <mxGeometry x="905.51" y="992.1500000000002" width="728.3499999999999" height="157.4550000000005" as="geometry" />
        </mxCell>
        <mxCell id="9uqp5s0frAu6T7ih4D6Y-2" value="Утв." style="rounded=0;whiteSpace=wrap;html=1;fontFamily=Helvetica;fontStyle=2;align=left;" parent="9uqp5s0frAu6T7ih4D6Y-1" vertex="1">
          <mxGeometry y="137.77000000000032" width="66.929" height="19.685" as="geometry" />
        </mxCell>
        <mxCell id="9uqp5s0frAu6T7ih4D6Y-3" value="Н.контр" style="rounded=0;whiteSpace=wrap;html=1;fontFamily=Helvetica;fontStyle=2;align=left;" parent="9uqp5s0frAu6T7ih4D6Y-1" vertex="1">
          <mxGeometry y="118.09000000000026" width="66.929" height="19.685" as="geometry" />
        </mxCell>
        <mxCell id="9uqp5s0frAu6T7ih4D6Y-4" value="Т.контр." style="rounded=0;whiteSpace=wrap;html=1;fontFamily=Helvetica;fontStyle=2;align=left;" parent="9uqp5s0frAu6T7ih4D6Y-1" vertex="1">
          <mxGeometry y="98.4100000000002" width="66.929" height="19.685" as="geometry" />
        </mxCell>
        <mxCell id="9uqp5s0frAu6T7ih4D6Y-5" value="Пров." style="rounded=0;whiteSpace=wrap;html=1;fontFamily=Helvetica;fontStyle=2;align=left;" parent="9uqp5s0frAu6T7ih4D6Y-1" vertex="1">
          <mxGeometry y="78.73000000000013" width="66.929" height="19.685" as="geometry" />
        </mxCell>
        <mxCell id="9uqp5s0frAu6T7ih4D6Y-6" value="Разраб." style="rounded=0;whiteSpace=wrap;html=1;fontFamily=Helvetica;fontStyle=2;align=left;" parent="9uqp5s0frAu6T7ih4D6Y-1" vertex="1">
          <mxGeometry y="59.05000000000007" width="66.929" height="19.685" as="geometry" />
        </mxCell>
        <mxCell id="9uqp5s0frAu6T7ih4D6Y-7" value="&lt;font style=&quot;font-size: 11px;&quot;&gt;Буйновский М.В.&lt;/font&gt;" style="rounded=0;whiteSpace=wrap;html=1;fontFamily=Helvetica;fontStyle=2;align=left;" parent="9uqp5s0frAu6T7ih4D6Y-1" vertex="1">
          <mxGeometry x="66.93" y="59.04000000000008" width="90.551" height="19.685" as="geometry" />
        </mxCell>
        <mxCell id="9uqp5s0frAu6T7ih4D6Y-8" value="&lt;font style=&quot;font-size: 11px;&quot;&gt;Савенко А.Г.&lt;/font&gt;" style="rounded=0;whiteSpace=wrap;html=1;fontFamily=Helvetica;fontStyle=2;align=left;" parent="9uqp5s0frAu6T7ih4D6Y-1" vertex="1">
          <mxGeometry x="66.93" y="78.72000000000014" width="90.551" height="19.685" as="geometry" />
        </mxCell>
        <mxCell id="9uqp5s0frAu6T7ih4D6Y-9" value="" style="rounded=0;whiteSpace=wrap;html=1;fontFamily=Helvetica;fontStyle=2;align=left;" parent="9uqp5s0frAu6T7ih4D6Y-1" vertex="1">
          <mxGeometry x="66.93" y="98.42000000000019" width="90.551" height="19.685" as="geometry" />
        </mxCell>
        <mxCell id="9uqp5s0frAu6T7ih4D6Y-10" value="" style="rounded=0;whiteSpace=wrap;html=1;fontSize=10;fontFamily=Helvetica;fontStyle=2;align=left;" parent="9uqp5s0frAu6T7ih4D6Y-1" vertex="1">
          <mxGeometry x="66.93" y="118.10000000000025" width="90.551" height="19.685" as="geometry" />
        </mxCell>
        <mxCell id="9uqp5s0frAu6T7ih4D6Y-11" value="" style="rounded=0;whiteSpace=wrap;html=1;fontFamily=Helvetica;fontStyle=2;align=left;" parent="9uqp5s0frAu6T7ih4D6Y-1" vertex="1">
          <mxGeometry x="66.93" y="137.77000000000032" width="90.551" height="19.685" as="geometry" />
        </mxCell>
        <mxCell id="9uqp5s0frAu6T7ih4D6Y-12" value="" style="rounded=0;whiteSpace=wrap;html=1;fontFamily=Helvetica;fontStyle=2;align=left;" parent="9uqp5s0frAu6T7ih4D6Y-1" vertex="1">
          <mxGeometry x="157.48000000000002" y="137.77000000000032" width="59.055" height="19.685" as="geometry" />
        </mxCell>
        <mxCell id="9uqp5s0frAu6T7ih4D6Y-13" value="" style="rounded=0;whiteSpace=wrap;html=1;fontFamily=Helvetica;fontStyle=2;align=left;" parent="9uqp5s0frAu6T7ih4D6Y-1" vertex="1">
          <mxGeometry x="157.48000000000002" y="59.04000000000008" width="59.055" height="19.685" as="geometry" />
        </mxCell>
        <mxCell id="9uqp5s0frAu6T7ih4D6Y-14" value="" style="rounded=0;whiteSpace=wrap;html=1;fontFamily=Helvetica;fontStyle=2;align=left;" parent="9uqp5s0frAu6T7ih4D6Y-1" vertex="1">
          <mxGeometry x="157.48000000000002" y="78.72000000000014" width="59.055" height="19.685" as="geometry" />
        </mxCell>
        <mxCell id="9uqp5s0frAu6T7ih4D6Y-15" value="" style="rounded=0;whiteSpace=wrap;html=1;fontFamily=Helvetica;fontStyle=2;align=left;" parent="9uqp5s0frAu6T7ih4D6Y-1" vertex="1">
          <mxGeometry x="157.48000000000002" y="98.42000000000019" width="59.055" height="19.685" as="geometry" />
        </mxCell>
        <mxCell id="9uqp5s0frAu6T7ih4D6Y-16" value="" style="rounded=0;whiteSpace=wrap;html=1;fontFamily=Helvetica;fontStyle=2;align=left;" parent="9uqp5s0frAu6T7ih4D6Y-1" vertex="1">
          <mxGeometry x="157.48000000000002" y="118.10000000000025" width="59.055" height="19.685" as="geometry" />
        </mxCell>
        <mxCell id="9uqp5s0frAu6T7ih4D6Y-17" value="" style="rounded=0;whiteSpace=wrap;html=1;fontFamily=Helvetica;fontStyle=2;align=left;" parent="9uqp5s0frAu6T7ih4D6Y-1" vertex="1">
          <mxGeometry x="216.53000000000003" y="137.77000000000032" width="39.37" height="19.685" as="geometry" />
        </mxCell>
        <mxCell id="9uqp5s0frAu6T7ih4D6Y-18" value="" style="rounded=0;whiteSpace=wrap;html=1;fontFamily=Helvetica;fontStyle=2;align=left;" parent="9uqp5s0frAu6T7ih4D6Y-1" vertex="1">
          <mxGeometry x="216.53000000000003" y="59.04000000000008" width="39.37" height="19.685" as="geometry" />
        </mxCell>
        <mxCell id="9uqp5s0frAu6T7ih4D6Y-19" value="" style="rounded=0;whiteSpace=wrap;html=1;fontFamily=Helvetica;fontStyle=2;align=left;" parent="9uqp5s0frAu6T7ih4D6Y-1" vertex="1">
          <mxGeometry x="216.53000000000003" y="78.72000000000014" width="39.37" height="19.685" as="geometry" />
        </mxCell>
        <mxCell id="9uqp5s0frAu6T7ih4D6Y-20" value="" style="rounded=0;whiteSpace=wrap;html=1;fontFamily=Helvetica;fontStyle=2;align=left;" parent="9uqp5s0frAu6T7ih4D6Y-1" vertex="1">
          <mxGeometry x="216.53000000000003" y="98.42000000000019" width="39.37" height="19.685" as="geometry" />
        </mxCell>
        <mxCell id="9uqp5s0frAu6T7ih4D6Y-21" value="" style="rounded=0;whiteSpace=wrap;html=1;fontFamily=Helvetica;fontStyle=2;align=left;" parent="9uqp5s0frAu6T7ih4D6Y-1" vertex="1">
          <mxGeometry x="216.53000000000003" y="118.10000000000025" width="39.37" height="19.685" as="geometry" />
        </mxCell>
        <mxCell id="9uqp5s0frAu6T7ih4D6Y-22" value="№ докум." style="rounded=0;whiteSpace=wrap;html=1;fontFamily=Helvetica;fontStyle=2;align=center;" parent="9uqp5s0frAu6T7ih4D6Y-1" vertex="1">
          <mxGeometry x="66.93" y="39.360000000000014" width="90.551" height="19.685" as="geometry" />
        </mxCell>
        <mxCell id="9uqp5s0frAu6T7ih4D6Y-23" value="Подп." style="rounded=0;whiteSpace=wrap;html=1;fontFamily=Helvetica;fontStyle=2;align=center;" parent="9uqp5s0frAu6T7ih4D6Y-1" vertex="1">
          <mxGeometry x="157.48000000000002" y="39.360000000000014" width="59.055" height="19.685" as="geometry" />
        </mxCell>
        <mxCell id="9uqp5s0frAu6T7ih4D6Y-24" value="Дата" style="rounded=0;whiteSpace=wrap;html=1;fontFamily=Helvetica;fontStyle=2;align=center;" parent="9uqp5s0frAu6T7ih4D6Y-1" vertex="1">
          <mxGeometry x="216.53000000000003" y="39.360000000000014" width="39.37" height="19.685" as="geometry" />
        </mxCell>
        <mxCell id="9uqp5s0frAu6T7ih4D6Y-25" value="" style="rounded=0;whiteSpace=wrap;html=1;fontFamily=Helvetica;fontStyle=2;align=left;" parent="9uqp5s0frAu6T7ih4D6Y-1" vertex="1">
          <mxGeometry x="66.93" y="19.67999999999995" width="90.551" height="19.685" as="geometry" />
        </mxCell>
        <mxCell id="9uqp5s0frAu6T7ih4D6Y-26" value="" style="rounded=0;whiteSpace=wrap;html=1;fontFamily=Helvetica;fontStyle=2;align=left;" parent="9uqp5s0frAu6T7ih4D6Y-1" vertex="1">
          <mxGeometry x="157.48000000000002" y="19.67999999999995" width="59.055" height="19.685" as="geometry" />
        </mxCell>
        <mxCell id="9uqp5s0frAu6T7ih4D6Y-27" value="" style="rounded=0;whiteSpace=wrap;html=1;fontFamily=Helvetica;fontStyle=2;align=left;" parent="9uqp5s0frAu6T7ih4D6Y-1" vertex="1">
          <mxGeometry x="216.53000000000003" y="19.67999999999995" width="39.37" height="19.685" as="geometry" />
        </mxCell>
        <mxCell id="9uqp5s0frAu6T7ih4D6Y-28" value="" style="rounded=0;whiteSpace=wrap;html=1;fontFamily=Helvetica;fontStyle=2;align=left;" parent="9uqp5s0frAu6T7ih4D6Y-1" vertex="1">
          <mxGeometry x="66.93" width="90.551" height="19.685" as="geometry" />
        </mxCell>
        <mxCell id="9uqp5s0frAu6T7ih4D6Y-29" value="" style="rounded=0;whiteSpace=wrap;html=1;fontFamily=Helvetica;fontStyle=2;align=left;" parent="9uqp5s0frAu6T7ih4D6Y-1" vertex="1">
          <mxGeometry x="157.48000000000002" width="59.055" height="19.685" as="geometry" />
        </mxCell>
        <mxCell id="9uqp5s0frAu6T7ih4D6Y-30" value="" style="rounded=0;whiteSpace=wrap;html=1;fontFamily=Helvetica;fontStyle=2;align=left;" parent="9uqp5s0frAu6T7ih4D6Y-1" vertex="1">
          <mxGeometry x="216.53000000000003" width="39.37" height="19.685" as="geometry" />
        </mxCell>
        <mxCell id="9uqp5s0frAu6T7ih4D6Y-31" value="Изм." style="rounded=0;whiteSpace=wrap;html=1;fontFamily=Helvetica;fontStyle=2;align=center;" parent="9uqp5s0frAu6T7ih4D6Y-1" vertex="1">
          <mxGeometry y="39.360000000000014" width="27.558999999999997" height="19.685" as="geometry" />
        </mxCell>
        <mxCell id="9uqp5s0frAu6T7ih4D6Y-32" value="Л." style="rounded=0;whiteSpace=wrap;html=1;fontFamily=Helvetica;fontStyle=2;align=center;" parent="9uqp5s0frAu6T7ih4D6Y-1" vertex="1">
          <mxGeometry x="27.56" y="39.360000000000014" width="39.37" height="19.685" as="geometry" />
        </mxCell>
        <mxCell id="9uqp5s0frAu6T7ih4D6Y-33" value="" style="rounded=0;whiteSpace=wrap;html=1;fontFamily=Helvetica;fontStyle=2;align=left;" parent="9uqp5s0frAu6T7ih4D6Y-1" vertex="1">
          <mxGeometry y="19.67999999999995" width="27.558999999999997" height="19.685" as="geometry" />
        </mxCell>
        <mxCell id="9uqp5s0frAu6T7ih4D6Y-34" value="" style="rounded=0;whiteSpace=wrap;html=1;fontFamily=Helvetica;fontStyle=2;align=left;" parent="9uqp5s0frAu6T7ih4D6Y-1" vertex="1">
          <mxGeometry x="27.56" y="19.67999999999995" width="39.37" height="19.685" as="geometry" />
        </mxCell>
        <mxCell id="9uqp5s0frAu6T7ih4D6Y-35" value="" style="rounded=0;whiteSpace=wrap;html=1;fontFamily=Helvetica;fontStyle=2;align=left;" parent="9uqp5s0frAu6T7ih4D6Y-1" vertex="1">
          <mxGeometry width="27.558999999999997" height="19.685" as="geometry" />
        </mxCell>
        <mxCell id="9uqp5s0frAu6T7ih4D6Y-36" value="" style="rounded=0;whiteSpace=wrap;html=1;fontFamily=Helvetica;fontStyle=2;align=left;" parent="9uqp5s0frAu6T7ih4D6Y-1" vertex="1">
          <mxGeometry x="27.56" width="39.37" height="19.685" as="geometry" />
        </mxCell>
        <mxCell id="9uqp5s0frAu6T7ih4D6Y-37" value="Блок-схема программы&lt;br&gt;&quot;Анализ алгоритма Дейкстры для поиска кратчайшего пути&quot;" style="rounded=0;whiteSpace=wrap;html=1;fontFamily=Helvetica;fontStyle=2;align=center;" parent="9uqp5s0frAu6T7ih4D6Y-1" vertex="1">
          <mxGeometry x="255.9" y="59.030000000000314" width="275.59" height="98.425" as="geometry" />
        </mxCell>
        <mxCell id="9uqp5s0frAu6T7ih4D6Y-38" value="ГУИР.281073.001" style="rounded=0;whiteSpace=wrap;html=1;fontFamily=Helvetica;fontStyle=2;align=center;" parent="9uqp5s0frAu6T7ih4D6Y-1" vertex="1">
          <mxGeometry x="255.9" y="3.410605131648481e-13" width="275.59" height="59.055" as="geometry" />
        </mxCell>
        <mxCell id="9uqp5s0frAu6T7ih4D6Y-39" value="" style="rounded=0;whiteSpace=wrap;html=1;fontFamily=Helvetica;fontStyle=2;align=center;" parent="9uqp5s0frAu6T7ih4D6Y-1" vertex="1">
          <mxGeometry x="531.49" y="3.410605131648481e-13" width="196.85" height="59.055" as="geometry" />
        </mxCell>
        <mxCell id="9uqp5s0frAu6T7ih4D6Y-40" value="ФКТ, гр. 281073" style="rounded=0;whiteSpace=wrap;html=1;fontFamily=Helvetica;fontStyle=2;align=center;" parent="9uqp5s0frAu6T7ih4D6Y-1" vertex="1">
          <mxGeometry x="531.49" y="98.40000000000043" width="196.85" height="59.055" as="geometry" />
        </mxCell>
        <mxCell id="9uqp5s0frAu6T7ih4D6Y-41" value="Лит." style="rounded=0;whiteSpace=wrap;html=1;fontFamily=Helvetica;fontStyle=2;align=center;" parent="9uqp5s0frAu6T7ih4D6Y-1" vertex="1">
          <mxGeometry x="531.49" y="59.050000000000296" width="59.055" height="19.685" as="geometry" />
        </mxCell>
        <mxCell id="9uqp5s0frAu6T7ih4D6Y-42" value="Лист." style="rounded=0;whiteSpace=wrap;html=1;fontFamily=Helvetica;fontStyle=2;align=center;" parent="9uqp5s0frAu6T7ih4D6Y-1" vertex="1">
          <mxGeometry x="590.54" y="59.030000000000314" width="59.055" height="19.685" as="geometry" />
        </mxCell>
        <mxCell id="9uqp5s0frAu6T7ih4D6Y-43" value="Листов" style="rounded=0;whiteSpace=wrap;html=1;fontFamily=Helvetica;fontStyle=2;align=center;" parent="9uqp5s0frAu6T7ih4D6Y-1" vertex="1">
          <mxGeometry x="649.5899999999999" y="59.030000000000314" width="78.74" height="19.685" as="geometry" />
        </mxCell>
        <mxCell id="9uqp5s0frAu6T7ih4D6Y-44" value="1" style="rounded=0;whiteSpace=wrap;html=1;fontFamily=Helvetica;fontStyle=2;align=center;" parent="9uqp5s0frAu6T7ih4D6Y-1" vertex="1">
          <mxGeometry x="590.55" y="78.71000000000038" width="59.055" height="19.685" as="geometry" />
        </mxCell>
        <mxCell id="9uqp5s0frAu6T7ih4D6Y-45" value="3" style="rounded=0;whiteSpace=wrap;html=1;fontFamily=Helvetica;fontStyle=2;align=center;" parent="9uqp5s0frAu6T7ih4D6Y-1" vertex="1">
          <mxGeometry x="649.6099999999999" y="78.71000000000038" width="78.74" height="19.685" as="geometry" />
        </mxCell>
        <mxCell id="9uqp5s0frAu6T7ih4D6Y-46" value="" style="rounded=0;whiteSpace=wrap;html=1;fontFamily=Helvetica;fontStyle=2;align=center;" parent="9uqp5s0frAu6T7ih4D6Y-1" vertex="1">
          <mxGeometry x="531.49" y="78.73000000000036" width="19.685" height="19.685" as="geometry" />
        </mxCell>
        <mxCell id="9uqp5s0frAu6T7ih4D6Y-47" value="Т" style="rounded=0;whiteSpace=wrap;html=1;fontFamily=Helvetica;fontStyle=2;align=center;" parent="9uqp5s0frAu6T7ih4D6Y-1" vertex="1">
          <mxGeometry x="551.17" y="78.71000000000038" width="19.685" height="19.685" as="geometry" />
        </mxCell>
        <mxCell id="9uqp5s0frAu6T7ih4D6Y-48" value="" style="rounded=0;whiteSpace=wrap;html=1;fontFamily=Helvetica;fontStyle=2;align=center;" parent="9uqp5s0frAu6T7ih4D6Y-1" vertex="1">
          <mxGeometry x="570.8499999999999" y="78.73000000000036" width="19.685" height="19.685" as="geometry" />
        </mxCell>
        <mxCell id="Wl16lkAcDqWU7XFoaTse-4" value="" style="group" parent="Wl16lkAcDqWU7XFoaTse-1" vertex="1" connectable="0">
          <mxGeometry x="121.3" y="80.80999999999995" width="1470" height="1007.6733227778768" as="geometry" />
        </mxCell>
        <mxCell id="aVlstsPdQI4i19zjvuys-1" value="Начало" style="strokeWidth=1;html=1;shape=stencil(xVXBboMwDP0ajkxAtK49Tqw79rJJO7vUpVFDgpysdH+/0IBaoDCayyQO+Bne83NsJWCpPkCJQRJJKDBgb0GSfCIVXIJRZAObOTh4EbmwcuFq6ULQJWbGYScgDluBLqMNqSNWfGcaBi4PSNzUWbYOolf7Tf2wNFNSWhKupO5kbvKWDLi0/0ZnRxY9PTuZnyZ2UWkVCjRIHfRqbuOAIHn3VornKX14KHUdtbp/KX09rhT7Ka19uhf3xeKZHdx4GLsjt1zNPDAvuZb9cXdezRzIzXY3IsdSi4wtIEu3kB1zUt9yd7fIEurlHiTadKFOeK2+P99T/lsGweUNw8vycQagzL5QrwZqKFgTn0M4cx2SMlC3ocMvgHIMLU+4F5B3UrpCLG/g5uzvl7vwcNzr2TyKf7Tsc8aZUBonNsHigzm7oCPDydK9IpyY2j0Xwt1OYwsxILig7q68AL8=);whiteSpace=wrap;aspect=fixed;fontFamily=Helvetica;fontSize=10;fontColor=default;container=0;" parent="Wl16lkAcDqWU7XFoaTse-4" vertex="1">
          <mxGeometry y="0.5479914846696374" width="98.75474230850175" height="32.918247436167235" as="geometry" />
        </mxCell>
        <mxCell id="XwnCS0aNDSmwvvJEsIZn-1" value="main(int argc, char **argv)" style="strokeWidth=1;html=1;shape=mxgraph.flowchart.annotation_2;align=left;labelPosition=right;pointerEvents=1;fontSize=10;container=0;" parent="Wl16lkAcDqWU7XFoaTse-4" vertex="1">
          <mxGeometry x="125.4187735693443" width="32.91824743616724" height="34.79311013775143" as="geometry" />
        </mxCell>
        <mxCell id="XwnCS0aNDSmwvvJEsIZn-2" style="edgeStyle=orthogonalEdgeStyle;shape=connector;rounded=0;orthogonalLoop=1;jettySize=auto;html=1;labelBackgroundColor=default;strokeColor=default;fontFamily=Helvetica;fontSize=10;fontColor=default;endArrow=none;endFill=0;dashed=1;" parent="Wl16lkAcDqWU7XFoaTse-4" source="aVlstsPdQI4i19zjvuys-1" target="XwnCS0aNDSmwvvJEsIZn-1" edge="1">
          <mxGeometry relative="1" as="geometry" />
        </mxCell>
        <mxCell id="2j_hBePItHJQLMJUZP99-1" value="Создать объект terminal класса Terminal с аргументами argc, argv" style="rounded=0;whiteSpace=wrap;html=1;aspect=fixed;fontFamily=Helvetica;fontSize=10;fontColor=default;container=0;" parent="Wl16lkAcDqWU7XFoaTse-4" vertex="1">
          <mxGeometry y="70.13421176017255" width="98.75474230850175" height="65.83649487233447" as="geometry" />
        </mxCell>
        <mxCell id="2j_hBePItHJQLMJUZP99-8" style="edgeStyle=orthogonalEdgeStyle;shape=connector;rounded=0;orthogonalLoop=1;jettySize=auto;html=1;labelBackgroundColor=default;strokeColor=default;fontFamily=Helvetica;fontSize=10;fontColor=default;endArrow=none;endFill=0;" parent="Wl16lkAcDqWU7XFoaTse-4" source="aVlstsPdQI4i19zjvuys-1" target="2j_hBePItHJQLMJUZP99-1" edge="1">
          <mxGeometry relative="1" as="geometry" />
        </mxCell>
        <mxCell id="2j_hBePItHJQLMJUZP99-2" value="traverse_delay&amp;nbsp; = значение аргумента исполнения команды &quot;-t&quot; или 40" style="rounded=0;whiteSpace=wrap;html=1;aspect=fixed;fontFamily=Helvetica;fontSize=10;fontColor=default;container=0;" parent="Wl16lkAcDqWU7XFoaTse-4" vertex="1">
          <mxGeometry y="174.51354217342669" width="98.75474230850175" height="65.83649487233447" as="geometry" />
        </mxCell>
        <mxCell id="2j_hBePItHJQLMJUZP99-9" style="edgeStyle=orthogonalEdgeStyle;shape=connector;rounded=0;orthogonalLoop=1;jettySize=auto;html=1;labelBackgroundColor=default;strokeColor=default;fontFamily=Helvetica;fontSize=10;fontColor=default;endArrow=none;endFill=0;" parent="Wl16lkAcDqWU7XFoaTse-4" source="2j_hBePItHJQLMJUZP99-1" target="2j_hBePItHJQLMJUZP99-2" edge="1">
          <mxGeometry relative="1" as="geometry" />
        </mxCell>
        <mxCell id="2j_hBePItHJQLMJUZP99-3" value="step_delay&amp;nbsp; = значение аргумента исполнения команды &quot;-d&quot; или 1" style="rounded=0;whiteSpace=wrap;html=1;aspect=fixed;fontFamily=Helvetica;fontSize=10;fontColor=default;container=0;" parent="Wl16lkAcDqWU7XFoaTse-4" vertex="1">
          <mxGeometry y="278.8928725866808" width="98.75474230850175" height="65.83649487233447" as="geometry" />
        </mxCell>
        <mxCell id="2j_hBePItHJQLMJUZP99-10" style="edgeStyle=orthogonalEdgeStyle;shape=connector;rounded=0;orthogonalLoop=1;jettySize=auto;html=1;labelBackgroundColor=default;strokeColor=default;fontFamily=Helvetica;fontSize=10;fontColor=default;endArrow=none;endFill=0;" parent="Wl16lkAcDqWU7XFoaTse-4" source="2j_hBePItHJQLMJUZP99-2" target="2j_hBePItHJQLMJUZP99-3" edge="1">
          <mxGeometry relative="1" as="geometry" />
        </mxCell>
        <mxCell id="2j_hBePItHJQLMJUZP99-4" value="is_parallel = существует ли аргумент исполнения команды &quot;-p&quot;" style="rounded=0;whiteSpace=wrap;html=1;aspect=fixed;fontFamily=Helvetica;fontSize=10;fontColor=default;container=0;" parent="Wl16lkAcDqWU7XFoaTse-4" vertex="1">
          <mxGeometry y="383.2722029999354" width="98.75474230850175" height="65.83649487233447" as="geometry" />
        </mxCell>
        <mxCell id="2j_hBePItHJQLMJUZP99-11" style="edgeStyle=orthogonalEdgeStyle;shape=connector;rounded=0;orthogonalLoop=1;jettySize=auto;html=1;labelBackgroundColor=default;strokeColor=default;fontFamily=Helvetica;fontSize=10;fontColor=default;endArrow=none;endFill=0;" parent="Wl16lkAcDqWU7XFoaTse-4" source="2j_hBePItHJQLMJUZP99-3" target="2j_hBePItHJQLMJUZP99-4" edge="1">
          <mxGeometry relative="1" as="geometry" />
        </mxCell>
        <mxCell id="2j_hBePItHJQLMJUZP99-5" value="1" style="ellipse;whiteSpace=wrap;html=1;aspect=fixed;fontFamily=Helvetica;fontSize=10;fontColor=default;container=0;" parent="Wl16lkAcDqWU7XFoaTse-4" vertex="1">
          <mxGeometry x="32.91824743616726" y="487.65153341318955" width="32.918247436167235" height="32.918247436167235" as="geometry" />
        </mxCell>
        <mxCell id="2j_hBePItHJQLMJUZP99-12" style="edgeStyle=orthogonalEdgeStyle;shape=connector;rounded=0;orthogonalLoop=1;jettySize=auto;html=1;labelBackgroundColor=default;strokeColor=default;fontFamily=Helvetica;fontSize=10;fontColor=default;endArrow=none;endFill=0;" parent="Wl16lkAcDqWU7XFoaTse-4" source="2j_hBePItHJQLMJUZP99-4" target="2j_hBePItHJQLMJUZP99-5" edge="1">
          <mxGeometry relative="1" as="geometry" />
        </mxCell>
        <mxCell id="2j_hBePItHJQLMJUZP99-6" value="Выход" style="ellipse;whiteSpace=wrap;html=1;aspect=fixed;fontFamily=Helvetica;fontSize=10;fontColor=default;container=0;" parent="Wl16lkAcDqWU7XFoaTse-4" vertex="1">
          <mxGeometry x="33.445006285158456" y="557.2377536886925" width="32.918247436167235" height="32.918247436167235" as="geometry" />
        </mxCell>
        <mxCell id="2j_hBePItHJQLMJUZP99-7" value="Конец" style="strokeWidth=1;html=1;shape=stencil(xVXBboMwDP0ajkxAtK49Tqw79rJJO7vUpVFDgpysdH+/0IBaoDCayyQO+Bne83NsJWCpPkCJQRJJKDBgb0GSfCIVXIJRZAObOTh4EbmwcuFq6ULQJWbGYScgDluBLqMNqSNWfGcaBi4PSNzUWbYOolf7Tf2wNFNSWhKupO5kbvKWDLi0/0ZnRxY9PTuZnyZ2UWkVCjRIHfRqbuOAIHn3VornKX14KHUdtbp/KX09rhT7Ka19uhf3xeKZHdx4GLsjt1zNPDAvuZb9cXdezRzIzXY3IsdSi4wtIEu3kB1zUt9yd7fIEurlHiTadKFOeK2+P99T/lsGweUNw8vycQagzL5QrwZqKFgTn0M4cx2SMlC3ocMvgHIMLU+4F5B3UrpCLG/g5uzvl7vwcNzr2TyKf7Tsc8aZUBonNsHigzm7oCPDydK9IpyY2j0Xwt1OYwsxILig7q68AL8=);whiteSpace=wrap;aspect=fixed;fontFamily=Helvetica;fontSize=10;fontColor=default;container=0;" parent="Wl16lkAcDqWU7XFoaTse-4" vertex="1">
          <mxGeometry x="0.5267588489913066" y="626.8239739641954" width="98.75474230850175" height="32.918247436167235" as="geometry" />
        </mxCell>
        <mxCell id="2j_hBePItHJQLMJUZP99-13" style="edgeStyle=orthogonalEdgeStyle;shape=connector;rounded=0;orthogonalLoop=1;jettySize=auto;html=1;labelBackgroundColor=default;strokeColor=default;fontFamily=Helvetica;fontSize=10;fontColor=default;endArrow=none;endFill=0;" parent="Wl16lkAcDqWU7XFoaTse-4" source="2j_hBePItHJQLMJUZP99-6" target="2j_hBePItHJQLMJUZP99-7" edge="1">
          <mxGeometry relative="1" as="geometry" />
        </mxCell>
        <mxCell id="2j_hBePItHJQLMJUZP99-14" value="&amp;nbsp;Аргументы: argc, argv" style="strokeWidth=1;html=1;shape=mxgraph.flowchart.annotation_2;align=left;labelPosition=right;pointerEvents=1;fontSize=10;container=0;" parent="Wl16lkAcDqWU7XFoaTse-4" vertex="1">
          <mxGeometry x="125.4187735693443" y="86.98277534437875" width="32.91824743616724" height="34.79311013775143" as="geometry" />
        </mxCell>
        <mxCell id="2j_hBePItHJQLMJUZP99-15" style="edgeStyle=orthogonalEdgeStyle;shape=connector;rounded=0;orthogonalLoop=1;jettySize=auto;html=1;labelBackgroundColor=default;strokeColor=default;fontFamily=Helvetica;fontSize=10;fontColor=default;endArrow=none;endFill=0;dashed=1;" parent="Wl16lkAcDqWU7XFoaTse-4" source="2j_hBePItHJQLMJUZP99-1" target="2j_hBePItHJQLMJUZP99-14" edge="1">
          <mxGeometry relative="1" as="geometry" />
        </mxCell>
        <mxCell id="a5w0BpjPUChfw1sf63NG-1" value="1" style="ellipse;whiteSpace=wrap;html=1;aspect=fixed;fontFamily=Helvetica;fontSize=10;fontColor=default;container=0;" parent="Wl16lkAcDqWU7XFoaTse-4" vertex="1">
          <mxGeometry x="167.2250314257925" y="174.51354217342669" width="32.918247436167235" height="32.918247436167235" as="geometry" />
        </mxCell>
        <mxCell id="a5w0BpjPUChfw1sf63NG-2" value="Создать массив algorithms" style="rounded=0;whiteSpace=wrap;html=1;aspect=fixed;fontFamily=Helvetica;fontSize=10;fontColor=default;container=0;" parent="Wl16lkAcDqWU7XFoaTse-4" vertex="1">
          <mxGeometry x="134.30678398962516" y="243.00377947959032" width="98.75474230850175" height="65.83649487233447" as="geometry" />
        </mxCell>
        <mxCell id="a5w0BpjPUChfw1sf63NG-147" style="edgeStyle=orthogonalEdgeStyle;shape=connector;rounded=0;orthogonalLoop=1;jettySize=auto;html=1;labelBackgroundColor=default;strokeColor=default;fontFamily=Helvetica;fontSize=10;fontColor=default;endArrow=none;endFill=0;" parent="Wl16lkAcDqWU7XFoaTse-4" source="a5w0BpjPUChfw1sf63NG-1" target="a5w0BpjPUChfw1sf63NG-2" edge="1">
          <mxGeometry relative="1" as="geometry" />
        </mxCell>
        <mxCell id="a5w0BpjPUChfw1sf63NG-3" value="add_option( algorithms,&lt;br style=&quot;font-size: 10px;&quot;&gt;&quot;--dijkstra&quot;)" style="shape=process;whiteSpace=wrap;html=1;backgroundOutline=1;aspect=fixed;fontFamily=Helvetica;fontSize=10;fontColor=default;container=0;" parent="Wl16lkAcDqWU7XFoaTse-4" vertex="1">
          <mxGeometry x="134.61615029776289" y="347.60926510874015" width="98.75474230850175" height="65.83649487233447" as="geometry" />
        </mxCell>
        <mxCell id="a5w0BpjPUChfw1sf63NG-148" style="edgeStyle=orthogonalEdgeStyle;shape=connector;rounded=0;orthogonalLoop=1;jettySize=auto;html=1;labelBackgroundColor=default;strokeColor=default;fontFamily=Helvetica;fontSize=10;fontColor=default;endArrow=none;endFill=0;" parent="Wl16lkAcDqWU7XFoaTse-4" source="a5w0BpjPUChfw1sf63NG-2" target="a5w0BpjPUChfw1sf63NG-3" edge="1">
          <mxGeometry relative="1" as="geometry" />
        </mxCell>
        <mxCell id="a5w0BpjPUChfw1sf63NG-4" value="add_option( algorithms, &lt;br style=&quot;font-size: 10px;&quot;&gt;&quot;--a-star&quot;)" style="shape=process;whiteSpace=wrap;html=1;backgroundOutline=1;aspect=fixed;fontFamily=Helvetica;fontSize=10;fontColor=default;container=0;" parent="Wl16lkAcDqWU7XFoaTse-4" vertex="1">
          <mxGeometry x="134.61615029776289" y="451.76244030609905" width="98.75474230850175" height="65.83649487233447" as="geometry" />
        </mxCell>
        <mxCell id="a5w0BpjPUChfw1sf63NG-149" style="edgeStyle=orthogonalEdgeStyle;shape=connector;rounded=0;orthogonalLoop=1;jettySize=auto;html=1;labelBackgroundColor=default;strokeColor=default;fontFamily=Helvetica;fontSize=10;fontColor=default;endArrow=none;endFill=0;" parent="Wl16lkAcDqWU7XFoaTse-4" source="a5w0BpjPUChfw1sf63NG-3" target="a5w0BpjPUChfw1sf63NG-4" edge="1">
          <mxGeometry relative="1" as="geometry" />
        </mxCell>
        <mxCell id="a5w0BpjPUChfw1sf63NG-139" value="algorithms пустой" style="rhombus;whiteSpace=wrap;html=1;aspect=fixed;fontFamily=Helvetica;fontSize=10;fontColor=default;container=0;" parent="Wl16lkAcDqWU7XFoaTse-4" vertex="1">
          <mxGeometry x="134.61615029776289" y="557.2377536886925" width="98.75474230850175" height="65.83649487233447" as="geometry" />
        </mxCell>
        <mxCell id="a5w0BpjPUChfw1sf63NG-146" style="edgeStyle=orthogonalEdgeStyle;shape=connector;rounded=0;orthogonalLoop=1;jettySize=auto;html=1;labelBackgroundColor=default;strokeColor=default;fontFamily=Helvetica;fontSize=10;fontColor=default;endArrow=none;endFill=0;" parent="Wl16lkAcDqWU7XFoaTse-4" source="a5w0BpjPUChfw1sf63NG-4" target="a5w0BpjPUChfw1sf63NG-139" edge="1">
          <mxGeometry relative="1" as="geometry" />
        </mxCell>
        <mxCell id="a5w0BpjPUChfw1sf63NG-140" value="2" style="ellipse;whiteSpace=wrap;html=1;aspect=fixed;fontFamily=Helvetica;fontSize=12;fontColor=default;container=0;" parent="Wl16lkAcDqWU7XFoaTse-4" vertex="1">
          <mxGeometry x="250.8375471386887" y="626.8239739641954" width="32.918247436167235" height="32.918247436167235" as="geometry" />
        </mxCell>
        <mxCell id="a5w0BpjPUChfw1sf63NG-145" value="Нет" style="edgeStyle=orthogonalEdgeStyle;shape=connector;rounded=0;orthogonalLoop=1;jettySize=auto;html=1;labelBackgroundColor=default;strokeColor=default;fontFamily=Helvetica;fontSize=10;fontColor=default;endArrow=none;endFill=0;" parent="Wl16lkAcDqWU7XFoaTse-4" source="a5w0BpjPUChfw1sf63NG-139" target="a5w0BpjPUChfw1sf63NG-140" edge="1">
          <mxGeometry x="-0.7317" y="9" relative="1" as="geometry">
            <mxPoint as="offset" />
          </mxGeometry>
        </mxCell>
        <mxCell id="a5w0BpjPUChfw1sf63NG-141" value="Вывод ошибки" style="shape=parallelogram;perimeter=parallelogramPerimeter;whiteSpace=wrap;html=1;fixedSize=1;aspect=fixed;fontFamily=Helvetica;fontSize=10;fontColor=default;container=0;" parent="Wl16lkAcDqWU7XFoaTse-4" vertex="1">
          <mxGeometry x="134.61615029776289" y="660.747256348503" width="98.75474230850175" height="65.83649487233447" as="geometry" />
        </mxCell>
        <mxCell id="a5w0BpjPUChfw1sf63NG-143" value="Да" style="edgeStyle=orthogonalEdgeStyle;shape=connector;rounded=0;orthogonalLoop=1;jettySize=auto;html=1;labelBackgroundColor=default;strokeColor=default;fontFamily=Helvetica;fontSize=10;fontColor=default;endArrow=none;endFill=0;" parent="Wl16lkAcDqWU7XFoaTse-4" source="a5w0BpjPUChfw1sf63NG-139" target="a5w0BpjPUChfw1sf63NG-141" edge="1">
          <mxGeometry x="-0.4406" relative="1" as="geometry">
            <mxPoint as="offset" />
          </mxGeometry>
        </mxCell>
        <mxCell id="a5w0BpjPUChfw1sf63NG-142" value="Выход" style="ellipse;whiteSpace=wrap;html=1;aspect=fixed;fontFamily=Helvetica;fontSize=10;fontColor=default;container=0;" parent="Wl16lkAcDqWU7XFoaTse-4" vertex="1">
          <mxGeometry x="167.2250314257925" y="765.9964145152007" width="32.918247436167235" height="32.918247436167235" as="geometry" />
        </mxCell>
        <mxCell id="a5w0BpjPUChfw1sf63NG-144" style="edgeStyle=orthogonalEdgeStyle;shape=connector;rounded=0;orthogonalLoop=1;jettySize=auto;html=1;labelBackgroundColor=default;strokeColor=default;fontFamily=Helvetica;fontSize=10;fontColor=default;endArrow=none;endFill=0;" parent="Wl16lkAcDqWU7XFoaTse-4" source="a5w0BpjPUChfw1sf63NG-141" target="a5w0BpjPUChfw1sf63NG-142" edge="1">
          <mxGeometry relative="1" as="geometry" />
        </mxCell>
        <mxCell id="a5w0BpjPUChfw1sf63NG-150" value="2" style="ellipse;whiteSpace=wrap;html=1;aspect=fixed;fontFamily=Helvetica;fontSize=10;fontColor=default;container=0;" parent="Wl16lkAcDqWU7XFoaTse-4" vertex="1">
          <mxGeometry x="335.5955543168516" y="0.5479914846696374" width="32.918247436167235" height="32.918247436167235" as="geometry" />
        </mxCell>
        <mxCell id="a5w0BpjPUChfw1sf63NG-151" value="Создать массив maze_generators" style="rounded=0;whiteSpace=wrap;html=1;aspect=fixed;fontFamily=Helvetica;fontSize=10;fontColor=default;container=0;" parent="Wl16lkAcDqWU7XFoaTse-4" vertex="1">
          <mxGeometry x="302.67730688068434" y="70.13421176017255" width="98.75474230850175" height="65.83649487233447" as="geometry" />
        </mxCell>
        <mxCell id="a5w0BpjPUChfw1sf63NG-158" style="edgeStyle=orthogonalEdgeStyle;shape=connector;rounded=0;orthogonalLoop=1;jettySize=auto;html=1;labelBackgroundColor=default;strokeColor=default;fontFamily=Helvetica;fontSize=10;fontColor=default;endArrow=none;endFill=0;" parent="Wl16lkAcDqWU7XFoaTse-4" source="a5w0BpjPUChfw1sf63NG-150" target="a5w0BpjPUChfw1sf63NG-151" edge="1">
          <mxGeometry relative="1" as="geometry" />
        </mxCell>
        <mxCell id="a5w0BpjPUChfw1sf63NG-152" value="add_option( maze_generators, &quot;--maze-depth-first-search&quot;)" style="shape=process;whiteSpace=wrap;html=1;backgroundOutline=1;aspect=fixed;fontFamily=Helvetica;fontSize=10;fontColor=default;container=0;" parent="Wl16lkAcDqWU7XFoaTse-4" vertex="1">
          <mxGeometry x="302.67730688068434" y="174.51354217342669" width="98.75474230850175" height="65.83649487233447" as="geometry" />
        </mxCell>
        <mxCell id="a5w0BpjPUChfw1sf63NG-159" style="edgeStyle=orthogonalEdgeStyle;shape=connector;rounded=0;orthogonalLoop=1;jettySize=auto;html=1;labelBackgroundColor=default;strokeColor=default;fontFamily=Helvetica;fontSize=10;fontColor=default;endArrow=none;endFill=0;" parent="Wl16lkAcDqWU7XFoaTse-4" source="a5w0BpjPUChfw1sf63NG-151" target="a5w0BpjPUChfw1sf63NG-152" edge="1">
          <mxGeometry relative="1" as="geometry" />
        </mxCell>
        <mxCell id="a5w0BpjPUChfw1sf63NG-153" value="add_option( maze_generators, &quot;--maze-block&quot;)" style="shape=process;whiteSpace=wrap;html=1;backgroundOutline=1;aspect=fixed;fontFamily=Helvetica;fontSize=10;fontColor=default;container=0;" parent="Wl16lkAcDqWU7XFoaTse-4" vertex="1">
          <mxGeometry x="302.67730688068434" y="278.8928725866808" width="98.75474230850175" height="65.83649487233447" as="geometry" />
        </mxCell>
        <mxCell id="a5w0BpjPUChfw1sf63NG-160" style="edgeStyle=orthogonalEdgeStyle;shape=connector;rounded=0;orthogonalLoop=1;jettySize=auto;html=1;labelBackgroundColor=default;strokeColor=default;fontFamily=Helvetica;fontSize=10;fontColor=default;endArrow=none;endFill=0;" parent="Wl16lkAcDqWU7XFoaTse-4" source="a5w0BpjPUChfw1sf63NG-152" target="a5w0BpjPUChfw1sf63NG-153" edge="1">
          <mxGeometry relative="1" as="geometry" />
        </mxCell>
        <mxCell id="a5w0BpjPUChfw1sf63NG-154" value="maze_generators пустой" style="rhombus;whiteSpace=wrap;html=1;aspect=fixed;fontFamily=Helvetica;fontSize=10;fontColor=default;container=0;" parent="Wl16lkAcDqWU7XFoaTse-4" vertex="1">
          <mxGeometry x="302.67730688068434" y="383.2722029999354" width="98.75474230850175" height="65.83649487233447" as="geometry" />
        </mxCell>
        <mxCell id="a5w0BpjPUChfw1sf63NG-162" style="edgeStyle=orthogonalEdgeStyle;shape=connector;rounded=0;orthogonalLoop=1;jettySize=auto;html=1;labelBackgroundColor=default;strokeColor=default;fontFamily=Helvetica;fontSize=10;fontColor=default;endArrow=none;endFill=0;" parent="Wl16lkAcDqWU7XFoaTse-4" source="a5w0BpjPUChfw1sf63NG-153" target="a5w0BpjPUChfw1sf63NG-154" edge="1">
          <mxGeometry relative="1" as="geometry" />
        </mxCell>
        <mxCell id="a5w0BpjPUChfw1sf63NG-155" value="3" style="ellipse;whiteSpace=wrap;html=1;aspect=fixed;fontFamily=Helvetica;fontSize=10;fontColor=default;container=0;" parent="Wl16lkAcDqWU7XFoaTse-4" vertex="1">
          <mxGeometry x="418.0625785644811" y="451.76244030609905" width="32.918247436167235" height="32.918247436167235" as="geometry" />
        </mxCell>
        <mxCell id="a5w0BpjPUChfw1sf63NG-163" style="edgeStyle=orthogonalEdgeStyle;shape=connector;rounded=0;orthogonalLoop=1;jettySize=auto;html=1;labelBackgroundColor=default;strokeColor=default;fontFamily=Helvetica;fontSize=10;fontColor=default;endArrow=none;endFill=0;" parent="Wl16lkAcDqWU7XFoaTse-4" source="a5w0BpjPUChfw1sf63NG-154" target="a5w0BpjPUChfw1sf63NG-155" edge="1">
          <mxGeometry relative="1" as="geometry">
            <Array as="points">
              <mxPoint x="434.7850817070604" y="417.19548538424306" />
            </Array>
          </mxGeometry>
        </mxCell>
        <mxCell id="a5w0BpjPUChfw1sf63NG-156" value="Вывод ошибки" style="shape=parallelogram;perimeter=parallelogramPerimeter;whiteSpace=wrap;html=1;fixedSize=1;aspect=fixed;fontFamily=Helvetica;fontSize=10;fontColor=default;container=0;" parent="Wl16lkAcDqWU7XFoaTse-4" vertex="1">
          <mxGeometry x="302.67730688068434" y="487.65153341318955" width="98.75474230850175" height="65.83649487233447" as="geometry" />
        </mxCell>
        <mxCell id="a5w0BpjPUChfw1sf63NG-164" style="edgeStyle=orthogonalEdgeStyle;shape=connector;rounded=0;orthogonalLoop=1;jettySize=auto;html=1;labelBackgroundColor=default;strokeColor=default;fontFamily=Helvetica;fontSize=10;fontColor=default;endArrow=none;endFill=0;" parent="Wl16lkAcDqWU7XFoaTse-4" source="a5w0BpjPUChfw1sf63NG-154" target="a5w0BpjPUChfw1sf63NG-156" edge="1">
          <mxGeometry relative="1" as="geometry" />
        </mxCell>
        <mxCell id="a5w0BpjPUChfw1sf63NG-157" value="Выход" style="ellipse;whiteSpace=wrap;html=1;aspect=fixed;fontFamily=Helvetica;fontSize=10;fontColor=default;container=0;" parent="Wl16lkAcDqWU7XFoaTse-4" vertex="1">
          <mxGeometry x="335.5955543168516" y="591.482872341774" width="32.918247436167235" height="32.918247436167235" as="geometry" />
        </mxCell>
        <mxCell id="a5w0BpjPUChfw1sf63NG-165" style="edgeStyle=orthogonalEdgeStyle;shape=connector;rounded=0;orthogonalLoop=1;jettySize=auto;html=1;labelBackgroundColor=default;strokeColor=default;fontFamily=Helvetica;fontSize=10;fontColor=default;endArrow=none;endFill=0;" parent="Wl16lkAcDqWU7XFoaTse-4" source="a5w0BpjPUChfw1sf63NG-156" target="a5w0BpjPUChfw1sf63NG-157" edge="1">
          <mxGeometry relative="1" as="geometry" />
        </mxCell>
        <mxCell id="a5w0BpjPUChfw1sf63NG-166" value="Создать объект renderer Класса GridRenderer" style="rounded=0;whiteSpace=wrap;html=1;aspect=fixed;fontFamily=Helvetica;fontSize=10;fontColor=default;container=0;" parent="Wl16lkAcDqWU7XFoaTse-4" vertex="1">
          <mxGeometry x="467.7033291432276" y="70.68220324484219" width="98.75474230850175" height="65.83649487233447" as="geometry" />
        </mxCell>
        <mxCell id="a5w0BpjPUChfw1sf63NG-179" style="edgeStyle=orthogonalEdgeStyle;shape=connector;rounded=0;orthogonalLoop=1;jettySize=auto;html=1;labelBackgroundColor=default;strokeColor=default;fontFamily=Helvetica;fontSize=10;fontColor=default;endArrow=none;endFill=0;" parent="Wl16lkAcDqWU7XFoaTse-4" source="a5w0BpjPUChfw1sf63NG-167" target="a5w0BpjPUChfw1sf63NG-166" edge="1">
          <mxGeometry relative="1" as="geometry" />
        </mxCell>
        <mxCell id="a5w0BpjPUChfw1sf63NG-167" value="3" style="ellipse;whiteSpace=wrap;html=1;aspect=fixed;fontFamily=Helvetica;fontSize=10;fontColor=default;container=0;" parent="Wl16lkAcDqWU7XFoaTse-4" vertex="1">
          <mxGeometry x="500.62157657939497" width="32.918247436167235" height="32.918247436167235" as="geometry" />
        </mxCell>
        <mxCell id="a5w0BpjPUChfw1sf63NG-168" value="Создать объект grid класса&amp;nbsp; Grid" style="rounded=0;whiteSpace=wrap;html=1;aspect=fixed;fontFamily=Helvetica;fontSize=10;fontColor=default;container=0;" parent="Wl16lkAcDqWU7XFoaTse-4" vertex="1">
          <mxGeometry x="467.7033291432276" y="175.06153365809632" width="98.75474230850175" height="65.83649487233447" as="geometry" />
        </mxCell>
        <mxCell id="a5w0BpjPUChfw1sf63NG-180" style="edgeStyle=orthogonalEdgeStyle;shape=connector;rounded=0;orthogonalLoop=1;jettySize=auto;html=1;labelBackgroundColor=default;strokeColor=default;fontFamily=Helvetica;fontSize=10;fontColor=default;endArrow=none;endFill=0;" parent="Wl16lkAcDqWU7XFoaTse-4" source="a5w0BpjPUChfw1sf63NG-166" target="a5w0BpjPUChfw1sf63NG-168" edge="1">
          <mxGeometry relative="1" as="geometry" />
        </mxCell>
        <mxCell id="a5w0BpjPUChfw1sf63NG-169" value="start_x = grid.width / 2&lt;br style=&quot;font-size: 10px;&quot;&gt;start_y = grid.height / 2" style="rounded=0;whiteSpace=wrap;html=1;aspect=fixed;fontFamily=Helvetica;fontSize=10;fontColor=default;container=0;" parent="Wl16lkAcDqWU7XFoaTse-4" vertex="1">
          <mxGeometry x="467.7033291432276" y="279.4408640713509" width="98.75474230850175" height="65.83649487233447" as="geometry" />
        </mxCell>
        <mxCell id="a5w0BpjPUChfw1sf63NG-181" style="edgeStyle=orthogonalEdgeStyle;shape=connector;rounded=0;orthogonalLoop=1;jettySize=auto;html=1;labelBackgroundColor=default;strokeColor=default;fontFamily=Helvetica;fontSize=10;fontColor=default;endArrow=none;endFill=0;" parent="Wl16lkAcDqWU7XFoaTse-4" source="a5w0BpjPUChfw1sf63NG-168" target="a5w0BpjPUChfw1sf63NG-169" edge="1">
          <mxGeometry relative="1" as="geometry" />
        </mxCell>
        <mxCell id="a5w0BpjPUChfw1sf63NG-170" value="start = { start_x % 2 == 0 ? ++start_x : start_x, start_y % 2 == 0 ? ++start_y : start_y}" style="rounded=0;whiteSpace=wrap;html=1;aspect=fixed;fontFamily=Helvetica;fontSize=10;fontColor=default;container=0;" parent="Wl16lkAcDqWU7XFoaTse-4" vertex="1">
          <mxGeometry x="467.7033291432276" y="383.82019448460505" width="98.75474230850175" height="65.83649487233447" as="geometry" />
        </mxCell>
        <mxCell id="a5w0BpjPUChfw1sf63NG-182" style="edgeStyle=orthogonalEdgeStyle;shape=connector;rounded=0;orthogonalLoop=1;jettySize=auto;html=1;labelBackgroundColor=default;strokeColor=default;fontFamily=Helvetica;fontSize=10;fontColor=default;endArrow=none;endFill=0;" parent="Wl16lkAcDqWU7XFoaTse-4" source="a5w0BpjPUChfw1sf63NG-169" target="a5w0BpjPUChfw1sf63NG-170" edge="1">
          <mxGeometry relative="1" as="geometry" />
        </mxCell>
        <mxCell id="a5w0BpjPUChfw1sf63NG-171" value="end = { (int)grid.width - 1, (int)grid_height - 2}" style="rounded=0;whiteSpace=wrap;html=1;aspect=fixed;fontFamily=Helvetica;fontSize=10;fontColor=default;container=0;" parent="Wl16lkAcDqWU7XFoaTse-4" vertex="1">
          <mxGeometry x="467.7033291432276" y="488.1995248978592" width="98.75474230850175" height="65.83649487233447" as="geometry" />
        </mxCell>
        <mxCell id="a5w0BpjPUChfw1sf63NG-183" style="edgeStyle=orthogonalEdgeStyle;shape=connector;rounded=0;orthogonalLoop=1;jettySize=auto;html=1;labelBackgroundColor=default;strokeColor=default;fontFamily=Helvetica;fontSize=10;fontColor=default;endArrow=none;endFill=0;" parent="Wl16lkAcDqWU7XFoaTse-4" source="a5w0BpjPUChfw1sf63NG-170" target="a5w0BpjPUChfw1sf63NG-171" edge="1">
          <mxGeometry relative="1" as="geometry" />
        </mxCell>
        <mxCell id="a5w0BpjPUChfw1sf63NG-172" value="4" style="ellipse;whiteSpace=wrap;html=1;aspect=fixed;fontFamily=Helvetica;fontSize=10;fontColor=default;container=0;" parent="Wl16lkAcDqWU7XFoaTse-4" vertex="1">
          <mxGeometry x="500.62157657939497" y="592.5788553111133" width="32.918247436167235" height="32.918247436167235" as="geometry" />
        </mxCell>
        <mxCell id="a5w0BpjPUChfw1sf63NG-184" style="edgeStyle=orthogonalEdgeStyle;shape=connector;rounded=0;orthogonalLoop=1;jettySize=auto;html=1;labelBackgroundColor=default;strokeColor=default;fontFamily=Helvetica;fontSize=10;fontColor=default;endArrow=none;endFill=0;" parent="Wl16lkAcDqWU7XFoaTse-4" source="a5w0BpjPUChfw1sf63NG-171" target="a5w0BpjPUChfw1sf63NG-172" edge="1">
          <mxGeometry relative="1" as="geometry" />
        </mxCell>
        <mxCell id="a5w0BpjPUChfw1sf63NG-173" value="&amp;nbsp;Аргументы:&lt;br style=&quot;font-size: 10px;&quot;&gt;размер algorithms,&lt;br style=&quot;font-size: 10px;&quot;&gt;traverse_delay,&lt;br style=&quot;font-size: 10px;&quot;&gt;step_delay" style="strokeWidth=1;html=1;shape=mxgraph.flowchart.annotation_2;align=left;labelPosition=right;pointerEvents=1;fontSize=10;container=0;" parent="Wl16lkAcDqWU7XFoaTse-4" vertex="1">
          <mxGeometry x="593.6488615615631" y="74.7529971309591" width="32.91824743616724" height="60.3399512563954" as="geometry" />
        </mxCell>
        <mxCell id="a5w0BpjPUChfw1sf63NG-174" style="edgeStyle=orthogonalEdgeStyle;shape=connector;rounded=0;orthogonalLoop=1;jettySize=auto;html=1;labelBackgroundColor=default;strokeColor=default;fontFamily=Helvetica;fontSize=10;fontColor=default;endArrow=none;endFill=0;dashed=1;" parent="Wl16lkAcDqWU7XFoaTse-4" source="a5w0BpjPUChfw1sf63NG-166" target="a5w0BpjPUChfw1sf63NG-173" edge="1">
          <mxGeometry relative="1" as="geometry" />
        </mxCell>
        <mxCell id="a5w0BpjPUChfw1sf63NG-175" value="&amp;nbsp;Аргументы:&lt;br style=&quot;font-size: 10px;&quot;&gt;renderer.grid_width,&lt;br style=&quot;font-size: 10px;&quot;&gt;renderer.grid_height" style="strokeWidth=1;html=1;shape=mxgraph.flowchart.annotation_2;align=left;labelPosition=right;pointerEvents=1;fontSize=10;container=0;" parent="Wl16lkAcDqWU7XFoaTse-4" vertex="1">
          <mxGeometry x="593.6488615615631" y="187.8306050786514" width="32.91824743616724" height="42.943396187519696" as="geometry" />
        </mxCell>
        <mxCell id="a5w0BpjPUChfw1sf63NG-176" style="edgeStyle=orthogonalEdgeStyle;shape=connector;rounded=0;orthogonalLoop=1;jettySize=auto;html=1;labelBackgroundColor=default;strokeColor=default;fontFamily=Helvetica;fontSize=10;fontColor=default;endArrow=none;endFill=0;dashed=1;" parent="Wl16lkAcDqWU7XFoaTse-4" source="a5w0BpjPUChfw1sf63NG-168" target="a5w0BpjPUChfw1sf63NG-175" edge="1">
          <mxGeometry relative="1" as="geometry" />
        </mxCell>
        <mxCell id="a5w0BpjPUChfw1sf63NG-185" value="maze_option = начало maze_generators; конец maze_generators; 1" style="shape=hexagon;perimeter=hexagonPerimeter2;whiteSpace=wrap;html=1;fixedSize=1;aspect=fixed;fontFamily=Helvetica;fontSize=8;fontColor=default;container=0;" parent="Wl16lkAcDqWU7XFoaTse-4" vertex="1">
          <mxGeometry x="769.2351445586456" y="70.68220324484219" width="98.75474230850175" height="65.83649487233447" as="geometry" />
        </mxCell>
        <mxCell id="a5w0BpjPUChfw1sf63NG-189" style="edgeStyle=orthogonalEdgeStyle;shape=connector;rounded=0;orthogonalLoop=1;jettySize=auto;html=1;labelBackgroundColor=default;strokeColor=default;fontFamily=Helvetica;fontSize=10;fontColor=default;endArrow=none;endFill=0;" parent="Wl16lkAcDqWU7XFoaTse-4" source="a5w0BpjPUChfw1sf63NG-186" target="a5w0BpjPUChfw1sf63NG-185" edge="1">
          <mxGeometry relative="1" as="geometry" />
        </mxCell>
        <mxCell id="a5w0BpjPUChfw1sf63NG-186" value="4" style="ellipse;whiteSpace=wrap;html=1;aspect=fixed;fontFamily=Helvetica;fontSize=10;fontColor=default;container=0;" parent="Wl16lkAcDqWU7XFoaTse-4" vertex="1">
          <mxGeometry x="802.1533919948123" y="0.5479914846696374" width="32.918247436167235" height="32.918247436167235" as="geometry" />
        </mxCell>
        <mxCell id="a5w0BpjPUChfw1sf63NG-190" style="edgeStyle=orthogonalEdgeStyle;shape=connector;rounded=0;orthogonalLoop=1;jettySize=auto;html=1;labelBackgroundColor=default;strokeColor=default;fontFamily=Helvetica;fontSize=10;fontColor=default;endArrow=none;endFill=0;" parent="Wl16lkAcDqWU7XFoaTse-4" source="a5w0BpjPUChfw1sf63NG-187" target="a5w0BpjPUChfw1sf63NG-185" edge="1">
          <mxGeometry relative="1" as="geometry">
            <Array as="points">
              <mxPoint x="735.790138273487" y="104.92732189792378" />
            </Array>
          </mxGeometry>
        </mxCell>
        <mxCell id="a5w0BpjPUChfw1sf63NG-187" value="9" style="ellipse;whiteSpace=wrap;html=1;aspect=fixed;fontFamily=Helvetica;fontSize=10;fontColor=default;container=0;" parent="Wl16lkAcDqWU7XFoaTse-4" vertex="1">
          <mxGeometry x="719.0676351309077" y="34.79311013775123" width="32.918247436167235" height="32.918247436167235" as="geometry" />
        </mxCell>
        <mxCell id="a5w0BpjPUChfw1sf63NG-188" value="Выход" style="ellipse;whiteSpace=wrap;html=1;aspect=fixed;fontFamily=Helvetica;fontSize=10;fontColor=default;container=0;" parent="Wl16lkAcDqWU7XFoaTse-4" vertex="1">
          <mxGeometry x="886.2926665567002" y="139.17244055100582" width="32.918247436167235" height="32.918247436167235" as="geometry" />
        </mxCell>
        <mxCell id="a5w0BpjPUChfw1sf63NG-191" style="edgeStyle=orthogonalEdgeStyle;shape=connector;rounded=0;orthogonalLoop=1;jettySize=auto;html=1;labelBackgroundColor=default;strokeColor=default;fontFamily=Helvetica;fontSize=10;fontColor=default;endArrow=none;endFill=0;" parent="Wl16lkAcDqWU7XFoaTse-4" source="a5w0BpjPUChfw1sf63NG-185" target="a5w0BpjPUChfw1sf63NG-188" edge="1">
          <mxGeometry relative="1" as="geometry" />
        </mxCell>
        <mxCell id="a5w0BpjPUChfw1sf63NG-192" value="Создать массив maze_record" style="rounded=0;whiteSpace=wrap;html=1;aspect=fixed;fontFamily=Helvetica;fontSize=10;fontColor=default;container=0;" parent="Wl16lkAcDqWU7XFoaTse-4" vertex="1">
          <mxGeometry x="769.2351445586456" y="175.06153365809632" width="98.75474230850175" height="65.83649487233447" as="geometry" />
        </mxCell>
        <mxCell id="a5w0BpjPUChfw1sf63NG-196" style="edgeStyle=orthogonalEdgeStyle;shape=connector;rounded=0;orthogonalLoop=1;jettySize=auto;html=1;labelBackgroundColor=default;strokeColor=default;fontFamily=Helvetica;fontSize=10;fontColor=default;endArrow=none;endFill=0;" parent="Wl16lkAcDqWU7XFoaTse-4" source="a5w0BpjPUChfw1sf63NG-185" target="a5w0BpjPUChfw1sf63NG-192" edge="1">
          <mxGeometry relative="1" as="geometry" />
        </mxCell>
        <mxCell id="a5w0BpjPUChfw1sf63NG-193" value="Создать объект depth_first_search_ maze_generator класса DepthFirstSearch MazeGenerator" style="rounded=0;whiteSpace=wrap;html=1;aspect=fixed;fontFamily=Helvetica;fontSize=10;fontColor=default;container=0;" parent="Wl16lkAcDqWU7XFoaTse-4" vertex="1">
          <mxGeometry x="769.2351445586456" y="279.4408640713509" width="98.75474230850175" height="65.83649487233447" as="geometry" />
        </mxCell>
        <mxCell id="a5w0BpjPUChfw1sf63NG-197" style="edgeStyle=orthogonalEdgeStyle;shape=connector;rounded=0;orthogonalLoop=1;jettySize=auto;html=1;labelBackgroundColor=default;strokeColor=default;fontFamily=Helvetica;fontSize=10;fontColor=default;endArrow=none;endFill=0;" parent="Wl16lkAcDqWU7XFoaTse-4" source="a5w0BpjPUChfw1sf63NG-192" target="a5w0BpjPUChfw1sf63NG-193" edge="1">
          <mxGeometry relative="1" as="geometry" />
        </mxCell>
        <mxCell id="a5w0BpjPUChfw1sf63NG-194" value="Создать объект block_maze_generator класса BlockMazeGenerator" style="rounded=0;whiteSpace=wrap;html=1;aspect=fixed;fontFamily=Helvetica;fontSize=10;fontColor=default;container=0;" parent="Wl16lkAcDqWU7XFoaTse-4" vertex="1">
          <mxGeometry x="769.2351445586456" y="383.82019448460505" width="98.75474230850175" height="65.83649487233447" as="geometry" />
        </mxCell>
        <mxCell id="a5w0BpjPUChfw1sf63NG-198" style="edgeStyle=orthogonalEdgeStyle;shape=connector;rounded=0;orthogonalLoop=1;jettySize=auto;html=1;labelBackgroundColor=default;strokeColor=default;fontFamily=Helvetica;fontSize=10;fontColor=default;endArrow=none;endFill=0;" parent="Wl16lkAcDqWU7XFoaTse-4" source="a5w0BpjPUChfw1sf63NG-193" target="a5w0BpjPUChfw1sf63NG-194" edge="1">
          <mxGeometry relative="1" as="geometry" />
        </mxCell>
        <mxCell id="a5w0BpjPUChfw1sf63NG-199" value="maze_option" style="rhombus;whiteSpace=wrap;html=1;aspect=fixed;fontFamily=Helvetica;fontSize=10;fontColor=default;container=0;" parent="Wl16lkAcDqWU7XFoaTse-4" vertex="1">
          <mxGeometry x="769.2351445586456" y="488.1995248978592" width="98.75474230850175" height="65.83649487233447" as="geometry" />
        </mxCell>
        <mxCell id="a5w0BpjPUChfw1sf63NG-200" style="edgeStyle=orthogonalEdgeStyle;shape=connector;rounded=0;orthogonalLoop=1;jettySize=auto;html=1;labelBackgroundColor=default;strokeColor=default;fontFamily=Helvetica;fontSize=10;fontColor=default;endArrow=none;endFill=0;" parent="Wl16lkAcDqWU7XFoaTse-4" source="a5w0BpjPUChfw1sf63NG-194" target="a5w0BpjPUChfw1sf63NG-199" edge="1">
          <mxGeometry relative="1" as="geometry" />
        </mxCell>
        <mxCell id="a5w0BpjPUChfw1sf63NG-201" value="add_option( maze_generators, &quot;--maze-block&quot;)" style="shape=process;whiteSpace=wrap;html=1;backgroundOutline=1;aspect=fixed;fontFamily=Helvetica;fontSize=10;fontColor=default;container=0;" parent="Wl16lkAcDqWU7XFoaTse-4" vertex="1">
          <mxGeometry x="703.3986496863105" y="592.5788553111133" width="98.75474230850175" height="65.83649487233447" as="geometry" />
        </mxCell>
        <mxCell id="a5w0BpjPUChfw1sf63NG-203" value="--maze-block" style="edgeStyle=orthogonalEdgeStyle;shape=connector;rounded=0;orthogonalLoop=1;jettySize=auto;html=1;labelBackgroundColor=default;strokeColor=default;fontFamily=Helvetica;fontSize=10;fontColor=default;endArrow=none;endFill=0;" parent="Wl16lkAcDqWU7XFoaTse-4" source="a5w0BpjPUChfw1sf63NG-199" target="a5w0BpjPUChfw1sf63NG-201" edge="1">
          <mxGeometry x="0.8228" relative="1" as="geometry">
            <mxPoint as="offset" />
          </mxGeometry>
        </mxCell>
        <mxCell id="a5w0BpjPUChfw1sf63NG-202" value="add_option( maze_generators, &quot;--maze-block&quot;)" style="shape=process;whiteSpace=wrap;html=1;backgroundOutline=1;aspect=fixed;fontFamily=Helvetica;fontSize=10;fontColor=default;container=0;" parent="Wl16lkAcDqWU7XFoaTse-4" vertex="1">
          <mxGeometry x="835.0716394309801" y="592.5788553111133" width="98.75474230850175" height="65.83649487233447" as="geometry" />
        </mxCell>
        <mxCell id="a5w0BpjPUChfw1sf63NG-204" value="--maze-depth-first-search" style="edgeStyle=orthogonalEdgeStyle;shape=connector;rounded=0;orthogonalLoop=1;jettySize=auto;html=1;labelBackgroundColor=default;strokeColor=default;fontFamily=Helvetica;fontSize=10;fontColor=default;endArrow=none;endFill=0;" parent="Wl16lkAcDqWU7XFoaTse-4" source="a5w0BpjPUChfw1sf63NG-199" target="a5w0BpjPUChfw1sf63NG-202" edge="1">
          <mxGeometry x="0.8228" y="2" relative="1" as="geometry">
            <mxPoint as="offset" />
          </mxGeometry>
        </mxCell>
        <mxCell id="a5w0BpjPUChfw1sf63NG-205" value="5" style="ellipse;whiteSpace=wrap;html=1;aspect=fixed;fontFamily=Helvetica;fontSize=10;fontColor=default;container=0;" parent="Wl16lkAcDqWU7XFoaTse-4" vertex="1">
          <mxGeometry x="802.1533919948123" y="694.9923750015846" width="32.918247436167235" height="32.918247436167235" as="geometry" />
        </mxCell>
        <mxCell id="a5w0BpjPUChfw1sf63NG-206" style="edgeStyle=orthogonalEdgeStyle;shape=connector;rounded=0;orthogonalLoop=1;jettySize=auto;html=1;labelBackgroundColor=default;strokeColor=default;fontFamily=Helvetica;fontSize=10;fontColor=default;endArrow=none;endFill=0;" parent="Wl16lkAcDqWU7XFoaTse-4" source="a5w0BpjPUChfw1sf63NG-201" target="a5w0BpjPUChfw1sf63NG-205" edge="1">
          <mxGeometry relative="1" as="geometry">
            <Array as="points">
              <mxPoint x="752.5126414160659" y="679.0136391708224" />
              <mxPoint x="818.566528829254" y="679.0136391708224" />
            </Array>
          </mxGeometry>
        </mxCell>
        <mxCell id="a5w0BpjPUChfw1sf63NG-207" style="edgeStyle=orthogonalEdgeStyle;shape=connector;rounded=0;orthogonalLoop=1;jettySize=auto;html=1;labelBackgroundColor=default;strokeColor=default;fontFamily=Helvetica;fontSize=10;fontColor=default;endArrow=none;endFill=0;" parent="Wl16lkAcDqWU7XFoaTse-4" source="a5w0BpjPUChfw1sf63NG-202" target="a5w0BpjPUChfw1sf63NG-205" edge="1">
          <mxGeometry relative="1" as="geometry">
            <Array as="points">
              <mxPoint x="884.6204162424422" y="687.7119167052601" />
              <mxPoint x="818.566528829254" y="687.7119167052601" />
            </Array>
          </mxGeometry>
        </mxCell>
        <mxCell id="a5w0BpjPUChfw1sf63NG-208" value="5" style="ellipse;whiteSpace=wrap;html=1;aspect=fixed;fontFamily=Helvetica;fontSize=10;fontColor=default;container=0;" parent="Wl16lkAcDqWU7XFoaTse-4" vertex="1">
          <mxGeometry x="969.9051822695963" width="32.918247436167235" height="32.918247436167235" as="geometry" />
        </mxCell>
        <mxCell id="a5w0BpjPUChfw1sf63NG-211" value="Создать массив maze_record" style="rounded=0;whiteSpace=wrap;html=1;aspect=fixed;fontFamily=Helvetica;fontSize=10;fontColor=default;container=0;" parent="Wl16lkAcDqWU7XFoaTse-4" vertex="1">
          <mxGeometry x="936.9869348334291" y="70.68220324484219" width="98.75474230850175" height="65.83649487233447" as="geometry" />
        </mxCell>
        <mxCell id="a5w0BpjPUChfw1sf63NG-215" style="edgeStyle=orthogonalEdgeStyle;shape=connector;rounded=0;orthogonalLoop=1;jettySize=auto;html=1;labelBackgroundColor=default;strokeColor=default;fontFamily=Helvetica;fontSize=10;fontColor=default;endArrow=none;endFill=0;" parent="Wl16lkAcDqWU7XFoaTse-4" source="a5w0BpjPUChfw1sf63NG-208" target="a5w0BpjPUChfw1sf63NG-211" edge="1">
          <mxGeometry relative="1" as="geometry" />
        </mxCell>
        <mxCell id="a5w0BpjPUChfw1sf63NG-212" value="Создать массив maze_record" style="rounded=0;whiteSpace=wrap;html=1;aspect=fixed;fontFamily=Helvetica;fontSize=10;fontColor=default;container=0;" parent="Wl16lkAcDqWU7XFoaTse-4" vertex="1">
          <mxGeometry x="936.9869348334291" y="175.06153365809632" width="98.75474230850175" height="65.83649487233447" as="geometry" />
        </mxCell>
        <mxCell id="a5w0BpjPUChfw1sf63NG-216" style="edgeStyle=orthogonalEdgeStyle;shape=connector;rounded=0;orthogonalLoop=1;jettySize=auto;html=1;labelBackgroundColor=default;strokeColor=default;fontFamily=Helvetica;fontSize=10;fontColor=default;endArrow=none;endFill=0;" parent="Wl16lkAcDqWU7XFoaTse-4" source="a5w0BpjPUChfw1sf63NG-211" target="a5w0BpjPUChfw1sf63NG-212" edge="1">
          <mxGeometry relative="1" as="geometry" />
        </mxCell>
        <mxCell id="a5w0BpjPUChfw1sf63NG-213" value="Создать массив maze_record" style="rounded=0;whiteSpace=wrap;html=1;aspect=fixed;fontFamily=Helvetica;fontSize=10;fontColor=default;container=0;" parent="Wl16lkAcDqWU7XFoaTse-4" vertex="1">
          <mxGeometry x="936.9869348334291" y="279.4408640713509" width="98.75474230850175" height="65.83649487233447" as="geometry" />
        </mxCell>
        <mxCell id="a5w0BpjPUChfw1sf63NG-217" style="edgeStyle=orthogonalEdgeStyle;shape=connector;rounded=0;orthogonalLoop=1;jettySize=auto;html=1;labelBackgroundColor=default;strokeColor=default;fontFamily=Helvetica;fontSize=10;fontColor=default;endArrow=none;endFill=0;" parent="Wl16lkAcDqWU7XFoaTse-4" source="a5w0BpjPUChfw1sf63NG-212" target="a5w0BpjPUChfw1sf63NG-213" edge="1">
          <mxGeometry relative="1" as="geometry" />
        </mxCell>
        <mxCell id="a5w0BpjPUChfw1sf63NG-214" value="maze_option = начало maze_generators; конец maze_generators; 1" style="shape=hexagon;perimeter=hexagonPerimeter2;whiteSpace=wrap;html=1;fixedSize=1;aspect=fixed;fontFamily=Helvetica;fontSize=8;fontColor=default;container=0;" parent="Wl16lkAcDqWU7XFoaTse-4" vertex="1">
          <mxGeometry x="936.9869348334291" y="383.82019448460505" width="98.75474230850175" height="65.83649487233447" as="geometry" />
        </mxCell>
        <mxCell id="a5w0BpjPUChfw1sf63NG-218" style="edgeStyle=orthogonalEdgeStyle;shape=connector;rounded=0;orthogonalLoop=1;jettySize=auto;html=1;labelBackgroundColor=default;strokeColor=default;fontFamily=Helvetica;fontSize=10;fontColor=default;endArrow=none;endFill=0;" parent="Wl16lkAcDqWU7XFoaTse-4" source="a5w0BpjPUChfw1sf63NG-213" target="a5w0BpjPUChfw1sf63NG-214" edge="1">
          <mxGeometry relative="1" as="geometry" />
        </mxCell>
        <mxCell id="a5w0BpjPUChfw1sf63NG-223" style="edgeStyle=orthogonalEdgeStyle;shape=connector;rounded=0;orthogonalLoop=1;jettySize=auto;html=1;labelBackgroundColor=default;strokeColor=default;fontFamily=Helvetica;fontSize=10;fontColor=default;endArrow=none;endFill=0;" parent="Wl16lkAcDqWU7XFoaTse-4" source="a5w0BpjPUChfw1sf63NG-219" target="a5w0BpjPUChfw1sf63NG-214" edge="1">
          <mxGeometry relative="1" as="geometry">
            <Array as="points">
              <mxPoint x="903.0151696992793" y="418.06531313768664" />
            </Array>
          </mxGeometry>
        </mxCell>
        <mxCell id="a5w0BpjPUChfw1sf63NG-219" value="7" style="ellipse;whiteSpace=wrap;html=1;aspect=fixed;fontFamily=Helvetica;fontSize=10;fontColor=default;container=0;" parent="Wl16lkAcDqWU7XFoaTse-4" vertex="1">
          <mxGeometry x="886.2926665567002" y="349.575075831523" width="32.918247436167235" height="32.918247436167235" as="geometry" />
        </mxCell>
        <mxCell id="a5w0BpjPUChfw1sf63NG-220" value="8" style="ellipse;whiteSpace=wrap;html=1;aspect=fixed;fontFamily=Helvetica;fontSize=10;fontColor=default;container=0;" parent="Wl16lkAcDqWU7XFoaTse-4" vertex="1">
          <mxGeometry x="1053.5176979824926" y="452.31043179076823" width="32.918247436167235" height="32.918247436167235" as="geometry" />
        </mxCell>
        <mxCell id="a5w0BpjPUChfw1sf63NG-224" style="edgeStyle=orthogonalEdgeStyle;shape=connector;rounded=0;orthogonalLoop=1;jettySize=auto;html=1;labelBackgroundColor=default;strokeColor=default;fontFamily=Helvetica;fontSize=10;fontColor=default;endArrow=none;endFill=0;" parent="Wl16lkAcDqWU7XFoaTse-4" source="a5w0BpjPUChfw1sf63NG-214" target="a5w0BpjPUChfw1sf63NG-220" edge="1">
          <mxGeometry relative="1" as="geometry">
            <Array as="points">
              <mxPoint x="1070.4765467895056" y="417.8625752773082" />
            </Array>
          </mxGeometry>
        </mxCell>
        <mxCell id="a5w0BpjPUChfw1sf63NG-221" value="6" style="ellipse;whiteSpace=wrap;html=1;aspect=fixed;fontFamily=Helvetica;fontSize=10;fontColor=default;container=0;" parent="Wl16lkAcDqWU7XFoaTse-4" vertex="1">
          <mxGeometry x="969.9051822695963" y="486.5555504438503" width="32.918247436167235" height="32.918247436167235" as="geometry" />
        </mxCell>
        <mxCell id="a5w0BpjPUChfw1sf63NG-222" style="edgeStyle=orthogonalEdgeStyle;shape=connector;rounded=0;orthogonalLoop=1;jettySize=auto;html=1;labelBackgroundColor=default;strokeColor=default;fontFamily=Helvetica;fontSize=10;fontColor=default;endArrow=none;endFill=0;" parent="Wl16lkAcDqWU7XFoaTse-4" source="a5w0BpjPUChfw1sf63NG-214" target="a5w0BpjPUChfw1sf63NG-221" edge="1">
          <mxGeometry relative="1" as="geometry" />
        </mxCell>
        <mxCell id="a5w0BpjPUChfw1sf63NG-225" value="algorithm_option" style="rhombus;whiteSpace=wrap;html=1;aspect=fixed;fontFamily=Helvetica;fontSize=10;fontColor=default;container=0;" parent="Wl16lkAcDqWU7XFoaTse-4" vertex="1">
          <mxGeometry x="1103.6852074102305" y="70.67350496730751" width="98.75474230850175" height="65.83649487233447" as="geometry" />
        </mxCell>
        <mxCell id="a5w0BpjPUChfw1sf63NG-227" style="edgeStyle=orthogonalEdgeStyle;shape=connector;rounded=0;orthogonalLoop=1;jettySize=auto;html=1;labelBackgroundColor=default;strokeColor=default;fontFamily=Helvetica;fontSize=10;fontColor=default;endArrow=none;endFill=0;" parent="Wl16lkAcDqWU7XFoaTse-4" source="a5w0BpjPUChfw1sf63NG-226" target="a5w0BpjPUChfw1sf63NG-225" edge="1">
          <mxGeometry relative="1" as="geometry" />
        </mxCell>
        <mxCell id="a5w0BpjPUChfw1sf63NG-226" value="6" style="ellipse;whiteSpace=wrap;html=1;aspect=fixed;fontFamily=Helvetica;fontSize=10;fontColor=default;container=0;" parent="Wl16lkAcDqWU7XFoaTse-4" vertex="1">
          <mxGeometry x="1136.6034548463972" y="0.5479914846696374" width="32.918247436167235" height="32.918247436167235" as="geometry" />
        </mxCell>
        <mxCell id="a5w0BpjPUChfw1sf63NG-228" value="Добавить в algorithm_indexes&lt;br style=&quot;font-size: 10px;&quot;&gt;&quot;Dijkstra Algorithm&quot;" style="rounded=0;whiteSpace=wrap;html=1;aspect=fixed;fontFamily=Helvetica;fontSize=10;fontColor=default;container=0;" parent="Wl16lkAcDqWU7XFoaTse-4" vertex="1">
          <mxGeometry x="1103.6852074102305" y="173.4175592040874" width="98.75474230850175" height="65.83649487233447" as="geometry" />
        </mxCell>
        <mxCell id="a5w0BpjPUChfw1sf63NG-232" value="--dijkstra" style="edgeStyle=orthogonalEdgeStyle;shape=connector;rounded=0;orthogonalLoop=1;jettySize=auto;html=1;labelBackgroundColor=default;strokeColor=default;fontFamily=Helvetica;fontSize=10;fontColor=default;endArrow=none;endFill=0;" parent="Wl16lkAcDqWU7XFoaTse-4" source="a5w0BpjPUChfw1sf63NG-225" target="a5w0BpjPUChfw1sf63NG-228" edge="1">
          <mxGeometry x="0.5694" y="1" relative="1" as="geometry">
            <mxPoint as="offset" />
          </mxGeometry>
        </mxCell>
        <mxCell id="a5w0BpjPUChfw1sf63NG-229" value="Добавить в traversed элемент со значением пустой массив" style="rounded=0;whiteSpace=wrap;html=1;aspect=fixed;fontFamily=Helvetica;fontSize=10;fontColor=default;container=0;" parent="Wl16lkAcDqWU7XFoaTse-4" vertex="1">
          <mxGeometry x="1103.6852074102305" y="278.8928725866808" width="98.75474230850175" height="65.83649487233447" as="geometry" />
        </mxCell>
        <mxCell id="a5w0BpjPUChfw1sf63NG-233" style="edgeStyle=orthogonalEdgeStyle;shape=connector;rounded=0;orthogonalLoop=1;jettySize=auto;html=1;labelBackgroundColor=default;strokeColor=default;fontFamily=Helvetica;fontSize=10;fontColor=default;endArrow=none;endFill=0;" parent="Wl16lkAcDqWU7XFoaTse-4" source="a5w0BpjPUChfw1sf63NG-228" target="a5w0BpjPUChfw1sf63NG-229" edge="1">
          <mxGeometry relative="1" as="geometry" />
        </mxCell>
        <mxCell id="a5w0BpjPUChfw1sf63NG-230" value="dijkstra_path = DijkstraSearch &amp;lt;Grid&amp;gt;::search (grid, start, end, traversed.back())" style="shape=process;whiteSpace=wrap;html=1;backgroundOutline=1;aspect=fixed;fontFamily=Helvetica;fontSize=8;fontColor=default;container=0;" parent="Wl16lkAcDqWU7XFoaTse-4" vertex="1">
          <mxGeometry x="1103.6852074102305" y="383.82019448460505" width="98.75474230850175" height="65.83649487233447" as="geometry" />
        </mxCell>
        <mxCell id="a5w0BpjPUChfw1sf63NG-234" style="edgeStyle=orthogonalEdgeStyle;shape=connector;rounded=0;orthogonalLoop=1;jettySize=auto;html=1;labelBackgroundColor=default;strokeColor=default;fontFamily=Helvetica;fontSize=10;fontColor=default;endArrow=none;endFill=0;" parent="Wl16lkAcDqWU7XFoaTse-4" source="a5w0BpjPUChfw1sf63NG-229" target="a5w0BpjPUChfw1sf63NG-230" edge="1">
          <mxGeometry relative="1" as="geometry" />
        </mxCell>
        <mxCell id="a5w0BpjPUChfw1sf63NG-231" value="Добавить в path dijkstra_path" style="rounded=0;whiteSpace=wrap;html=1;aspect=fixed;fontFamily=Helvetica;fontSize=10;fontColor=default;container=0;" parent="Wl16lkAcDqWU7XFoaTse-4" vertex="1">
          <mxGeometry x="1103.6852074102305" y="488.74751638252883" width="98.75474230850175" height="65.83649487233447" as="geometry" />
        </mxCell>
        <mxCell id="a5w0BpjPUChfw1sf63NG-235" style="edgeStyle=orthogonalEdgeStyle;shape=connector;rounded=0;orthogonalLoop=1;jettySize=auto;html=1;labelBackgroundColor=default;strokeColor=default;fontFamily=Helvetica;fontSize=10;fontColor=default;endArrow=none;endFill=0;" parent="Wl16lkAcDqWU7XFoaTse-4" source="a5w0BpjPUChfw1sf63NG-230" target="a5w0BpjPUChfw1sf63NG-231" edge="1">
          <mxGeometry relative="1" as="geometry" />
        </mxCell>
        <mxCell id="bH5gxrtZCoXYvtPjqVJR-2" value="Добавить в algorithm_indexes&lt;br style=&quot;font-size: 10px;&quot;&gt;&quot;A* Algorithm&quot;" style="rounded=0;whiteSpace=wrap;html=1;aspect=fixed;fontFamily=Helvetica;fontSize=10;fontColor=default;container=0;" parent="Wl16lkAcDqWU7XFoaTse-4" vertex="1">
          <mxGeometry x="1237.4652325508644" y="173.4175592040874" width="98.75474230850175" height="65.83649487233447" as="geometry" />
        </mxCell>
        <mxCell id="bH5gxrtZCoXYvtPjqVJR-8" value="--a-star" style="edgeStyle=orthogonalEdgeStyle;shape=connector;rounded=0;orthogonalLoop=1;jettySize=auto;html=1;labelBackgroundColor=default;strokeColor=default;fontFamily=Helvetica;fontSize=10;fontColor=default;endArrow=none;endFill=0;" parent="Wl16lkAcDqWU7XFoaTse-4" source="a5w0BpjPUChfw1sf63NG-225" target="bH5gxrtZCoXYvtPjqVJR-2" edge="1">
          <mxGeometry x="0.9123" y="1" relative="1" as="geometry">
            <Array as="points">
              <mxPoint x="1153.016591680839" y="157.1169871045513" />
              <mxPoint x="1286.7966168214734" y="157.1169871045513" />
            </Array>
            <mxPoint as="offset" />
          </mxGeometry>
        </mxCell>
        <mxCell id="bH5gxrtZCoXYvtPjqVJR-4" value="Добавить в traversed элемент со значением пустой массив" style="rounded=0;whiteSpace=wrap;html=1;aspect=fixed;fontFamily=Helvetica;fontSize=10;fontColor=default;container=0;" parent="Wl16lkAcDqWU7XFoaTse-4" vertex="1">
          <mxGeometry x="1237.4652325508644" y="278.8928725866808" width="98.75474230850175" height="65.83649487233447" as="geometry" />
        </mxCell>
        <mxCell id="bH5gxrtZCoXYvtPjqVJR-1" style="edgeStyle=orthogonalEdgeStyle;shape=connector;rounded=0;orthogonalLoop=1;jettySize=auto;html=1;labelBackgroundColor=default;strokeColor=default;fontFamily=Helvetica;fontSize=10;fontColor=default;endArrow=none;endFill=0;" parent="Wl16lkAcDqWU7XFoaTse-4" source="bH5gxrtZCoXYvtPjqVJR-2" target="bH5gxrtZCoXYvtPjqVJR-4" edge="1">
          <mxGeometry relative="1" as="geometry" />
        </mxCell>
        <mxCell id="bH5gxrtZCoXYvtPjqVJR-6" value="a_star_path = AStarSearch &amp;lt;Grid&amp;gt;::search (grid, start, end, Grid::heuristic, traversed.back())" style="shape=process;whiteSpace=wrap;html=1;backgroundOutline=1;aspect=fixed;fontFamily=Helvetica;fontSize=8;fontColor=default;container=0;" parent="Wl16lkAcDqWU7XFoaTse-4" vertex="1">
          <mxGeometry x="1237.4652325508644" y="383.82019448460505" width="98.75474230850175" height="65.83649487233447" as="geometry" />
        </mxCell>
        <mxCell id="bH5gxrtZCoXYvtPjqVJR-3" style="edgeStyle=orthogonalEdgeStyle;shape=connector;rounded=0;orthogonalLoop=1;jettySize=auto;html=1;labelBackgroundColor=default;strokeColor=default;fontFamily=Helvetica;fontSize=10;fontColor=default;endArrow=none;endFill=0;" parent="Wl16lkAcDqWU7XFoaTse-4" source="bH5gxrtZCoXYvtPjqVJR-4" target="bH5gxrtZCoXYvtPjqVJR-6" edge="1">
          <mxGeometry relative="1" as="geometry" />
        </mxCell>
        <mxCell id="bH5gxrtZCoXYvtPjqVJR-7" value="Добавить в path a_star_path" style="rounded=0;whiteSpace=wrap;html=1;aspect=fixed;fontFamily=Helvetica;fontSize=10;fontColor=default;container=0;" parent="Wl16lkAcDqWU7XFoaTse-4" vertex="1">
          <mxGeometry x="1237.4652325508644" y="488.74751638252883" width="98.75474230850175" height="65.83649487233447" as="geometry" />
        </mxCell>
        <mxCell id="bH5gxrtZCoXYvtPjqVJR-5" style="edgeStyle=orthogonalEdgeStyle;shape=connector;rounded=0;orthogonalLoop=1;jettySize=auto;html=1;labelBackgroundColor=default;strokeColor=default;fontFamily=Helvetica;fontSize=10;fontColor=default;endArrow=none;endFill=0;" parent="Wl16lkAcDqWU7XFoaTse-4" source="bH5gxrtZCoXYvtPjqVJR-6" target="bH5gxrtZCoXYvtPjqVJR-7" edge="1">
          <mxGeometry relative="1" as="geometry" />
        </mxCell>
        <mxCell id="bH5gxrtZCoXYvtPjqVJR-9" value="7" style="ellipse;whiteSpace=wrap;html=1;aspect=fixed;fontFamily=Helvetica;fontSize=10;fontColor=default;container=0;" parent="Wl16lkAcDqWU7XFoaTse-4" vertex="1">
          <mxGeometry x="1202.439949718732" y="591.482872341774" width="32.918247436167235" height="32.918247436167235" as="geometry" />
        </mxCell>
        <mxCell id="bH5gxrtZCoXYvtPjqVJR-10" style="edgeStyle=orthogonalEdgeStyle;shape=connector;rounded=0;orthogonalLoop=1;jettySize=auto;html=1;labelBackgroundColor=default;strokeColor=default;fontFamily=Helvetica;fontSize=10;fontColor=default;endArrow=none;endFill=0;" parent="Wl16lkAcDqWU7XFoaTse-4" source="a5w0BpjPUChfw1sf63NG-231" target="bH5gxrtZCoXYvtPjqVJR-9" edge="1">
          <mxGeometry relative="1" as="geometry" />
        </mxCell>
        <mxCell id="bH5gxrtZCoXYvtPjqVJR-12" style="edgeStyle=orthogonalEdgeStyle;shape=connector;rounded=0;orthogonalLoop=1;jettySize=auto;html=1;labelBackgroundColor=default;strokeColor=default;fontFamily=Helvetica;fontSize=10;fontColor=default;endArrow=none;endFill=0;" parent="Wl16lkAcDqWU7XFoaTse-4" source="bH5gxrtZCoXYvtPjqVJR-7" target="bH5gxrtZCoXYvtPjqVJR-9" edge="1">
          <mxGeometry relative="1" as="geometry">
            <Array as="points">
              <mxPoint x="1286.7966168214734" y="583.332586292006" />
              <mxPoint x="1219.070479094027" y="583.332586292006" />
            </Array>
          </mxGeometry>
        </mxCell>
        <mxCell id="_DuoRv_LJ4IoIMc4XyXB-1" value="renderer .drawMazes (maze_record)" style="shape=process;whiteSpace=wrap;html=1;backgroundOutline=1;aspect=fixed;fontFamily=Helvetica;fontSize=10;fontColor=default;container=0;" parent="Wl16lkAcDqWU7XFoaTse-4" vertex="1">
          <mxGeometry x="1371.2452576914982" y="175.06153365809632" width="98.75474230850175" height="65.83649487233447" as="geometry" />
        </mxCell>
        <mxCell id="_DuoRv_LJ4IoIMc4XyXB-9" style="edgeStyle=orthogonalEdgeStyle;shape=connector;rounded=0;orthogonalLoop=1;jettySize=auto;html=1;labelBackgroundColor=default;strokeColor=default;fontFamily=Helvetica;fontSize=10;fontColor=default;endArrow=none;endFill=0;" parent="Wl16lkAcDqWU7XFoaTse-4" source="_DuoRv_LJ4IoIMc4XyXB-2" target="_DuoRv_LJ4IoIMc4XyXB-1" edge="1">
          <mxGeometry relative="1" as="geometry" />
        </mxCell>
        <mxCell id="_DuoRv_LJ4IoIMc4XyXB-2" value="renderer .createWindows (algorithm_ indexes)" style="shape=process;whiteSpace=wrap;html=1;backgroundOutline=1;aspect=fixed;fontFamily=Helvetica;fontSize=10;fontColor=default;container=0;" parent="Wl16lkAcDqWU7XFoaTse-4" vertex="1">
          <mxGeometry x="1371.2452576914982" y="70.68220324484219" width="98.75474230850175" height="65.83649487233447" as="geometry" />
        </mxCell>
        <mxCell id="_DuoRv_LJ4IoIMc4XyXB-8" style="edgeStyle=orthogonalEdgeStyle;shape=connector;rounded=0;orthogonalLoop=1;jettySize=auto;html=1;labelBackgroundColor=default;strokeColor=default;fontFamily=Helvetica;fontSize=10;fontColor=default;endArrow=none;endFill=0;" parent="Wl16lkAcDqWU7XFoaTse-4" source="_DuoRv_LJ4IoIMc4XyXB-3" target="_DuoRv_LJ4IoIMc4XyXB-2" edge="1">
          <mxGeometry relative="1" as="geometry" />
        </mxCell>
        <mxCell id="_DuoRv_LJ4IoIMc4XyXB-3" value="8" style="ellipse;whiteSpace=wrap;html=1;aspect=fixed;fontFamily=Helvetica;fontSize=10;fontColor=default;container=0;" parent="Wl16lkAcDqWU7XFoaTse-4" vertex="1">
          <mxGeometry x="1404.1635051276655" y="0.5479914846696374" width="32.918247436167235" height="32.918247436167235" as="geometry" />
        </mxCell>
        <mxCell id="_DuoRv_LJ4IoIMc4XyXB-4" value="Ожидать ввода любого символа" style="rounded=0;whiteSpace=wrap;html=1;aspect=fixed;fontFamily=Helvetica;fontSize=10;fontColor=default;container=0;" parent="Wl16lkAcDqWU7XFoaTse-4" vertex="1">
          <mxGeometry x="1371.2452576914982" y="279.4408640713509" width="98.75474230850175" height="65.83649487233447" as="geometry" />
        </mxCell>
        <mxCell id="_DuoRv_LJ4IoIMc4XyXB-10" style="edgeStyle=orthogonalEdgeStyle;shape=connector;rounded=0;orthogonalLoop=1;jettySize=auto;html=1;labelBackgroundColor=default;strokeColor=default;fontFamily=Helvetica;fontSize=10;fontColor=default;endArrow=none;endFill=0;" parent="Wl16lkAcDqWU7XFoaTse-4" source="_DuoRv_LJ4IoIMc4XyXB-1" target="_DuoRv_LJ4IoIMc4XyXB-4" edge="1">
          <mxGeometry relative="1" as="geometry" />
        </mxCell>
        <mxCell id="_DuoRv_LJ4IoIMc4XyXB-5" value="renderer .drawPath (is_parallel, algorith_indexes, traversed, path)" style="shape=process;whiteSpace=wrap;html=1;backgroundOutline=1;aspect=fixed;fontFamily=Helvetica;fontSize=10;fontColor=default;container=0;" parent="Wl16lkAcDqWU7XFoaTse-4" vertex="1">
          <mxGeometry x="1371.2452576914982" y="383.82019448460505" width="98.75474230850175" height="65.83649487233447" as="geometry" />
        </mxCell>
        <mxCell id="_DuoRv_LJ4IoIMc4XyXB-11" style="edgeStyle=orthogonalEdgeStyle;shape=connector;rounded=0;orthogonalLoop=1;jettySize=auto;html=1;labelBackgroundColor=default;strokeColor=default;fontFamily=Helvetica;fontSize=10;fontColor=default;endArrow=none;endFill=0;" parent="Wl16lkAcDqWU7XFoaTse-4" source="_DuoRv_LJ4IoIMc4XyXB-4" target="_DuoRv_LJ4IoIMc4XyXB-5" edge="1">
          <mxGeometry relative="1" as="geometry" />
        </mxCell>
        <mxCell id="_DuoRv_LJ4IoIMc4XyXB-6" value="Ожидать ввода любого символа" style="rounded=0;whiteSpace=wrap;html=1;aspect=fixed;fontFamily=Helvetica;fontSize=10;fontColor=default;container=0;" parent="Wl16lkAcDqWU7XFoaTse-4" vertex="1">
          <mxGeometry x="1371.2452576914982" y="486.0075589591811" width="98.75474230850175" height="65.83649487233447" as="geometry" />
        </mxCell>
        <mxCell id="_DuoRv_LJ4IoIMc4XyXB-12" style="edgeStyle=orthogonalEdgeStyle;shape=connector;rounded=0;orthogonalLoop=1;jettySize=auto;html=1;labelBackgroundColor=default;strokeColor=default;fontFamily=Helvetica;fontSize=10;fontColor=default;endArrow=none;endFill=0;" parent="Wl16lkAcDqWU7XFoaTse-4" source="_DuoRv_LJ4IoIMc4XyXB-5" target="_DuoRv_LJ4IoIMc4XyXB-6" edge="1">
          <mxGeometry relative="1" as="geometry" />
        </mxCell>
        <mxCell id="_DuoRv_LJ4IoIMc4XyXB-7" value="9" style="ellipse;whiteSpace=wrap;html=1;aspect=fixed;fontFamily=Helvetica;fontSize=10;fontColor=default;container=0;" parent="Wl16lkAcDqWU7XFoaTse-4" vertex="1">
          <mxGeometry x="1404.1635051276655" y="591.482872341774" width="32.918247436167235" height="32.918247436167235" as="geometry" />
        </mxCell>
        <mxCell id="_DuoRv_LJ4IoIMc4XyXB-13" style="edgeStyle=orthogonalEdgeStyle;shape=connector;rounded=0;orthogonalLoop=1;jettySize=auto;html=1;labelBackgroundColor=default;strokeColor=default;fontFamily=Helvetica;fontSize=10;fontColor=default;endArrow=none;endFill=0;" parent="Wl16lkAcDqWU7XFoaTse-4" source="_DuoRv_LJ4IoIMc4XyXB-6" target="_DuoRv_LJ4IoIMc4XyXB-7" edge="1">
          <mxGeometry relative="1" as="geometry" />
        </mxCell>
        <mxCell id="_DuoRv_LJ4IoIMc4XyXB-15" value="Начало" style="strokeWidth=1;html=1;shape=stencil(xVXBboMwDP0ajkxAtK49Tqw79rJJO7vUpVFDgpysdH+/0IBaoDCayyQO+Bne83NsJWCpPkCJQRJJKDBgb0GSfCIVXIJRZAObOTh4EbmwcuFq6ULQJWbGYScgDluBLqMNqSNWfGcaBi4PSNzUWbYOolf7Tf2wNFNSWhKupO5kbvKWDLi0/0ZnRxY9PTuZnyZ2UWkVCjRIHfRqbuOAIHn3VornKX14KHUdtbp/KX09rhT7Ka19uhf3xeKZHdx4GLsjt1zNPDAvuZb9cXdezRzIzXY3IsdSi4wtIEu3kB1zUt9yd7fIEurlHiTadKFOeK2+P99T/lsGweUNw8vycQagzL5QrwZqKFgTn0M4cx2SMlC3ocMvgHIMLU+4F5B3UrpCLG/g5uzvl7vwcNzr2TyKf7Tsc8aZUBonNsHigzm7oCPDydK9IpyY2j0Xwt1OYwsxILig7q68AL8=);whiteSpace=wrap;aspect=fixed;fontFamily=Helvetica;fontSize=10;fontColor=default;container=0;" parent="Wl16lkAcDqWU7XFoaTse-4" vertex="1">
          <mxGeometry x="335.5955543168516" y="695.5403664862542" width="98.75474230850175" height="32.918247436167235" as="geometry" />
        </mxCell>
        <mxCell id="_DuoRv_LJ4IoIMc4XyXB-16" value="add_option(vec, opt)" style="strokeWidth=1;html=1;shape=mxgraph.flowchart.annotation_2;align=left;labelPosition=right;pointerEvents=1;fontSize=10;container=0;" parent="Wl16lkAcDqWU7XFoaTse-4" vertex="1">
          <mxGeometry x="461.0143278861958" y="694.9923750015846" width="32.91824743616724" height="34.79311013775143" as="geometry" />
        </mxCell>
        <mxCell id="_DuoRv_LJ4IoIMc4XyXB-14" style="edgeStyle=orthogonalEdgeStyle;shape=connector;rounded=0;orthogonalLoop=1;jettySize=auto;html=1;labelBackgroundColor=default;strokeColor=default;fontFamily=Helvetica;fontSize=10;fontColor=default;endArrow=none;endFill=0;dashed=1;" parent="Wl16lkAcDqWU7XFoaTse-4" source="_DuoRv_LJ4IoIMc4XyXB-15" target="_DuoRv_LJ4IoIMc4XyXB-16" edge="1">
          <mxGeometry relative="1" as="geometry" />
        </mxCell>
        <mxCell id="_DuoRv_LJ4IoIMc4XyXB-23" value="Нет" style="edgeStyle=orthogonalEdgeStyle;shape=connector;rounded=0;orthogonalLoop=1;jettySize=auto;html=1;labelBackgroundColor=default;strokeColor=default;fontFamily=Helvetica;fontSize=11;fontColor=default;endArrow=none;endFill=0;" parent="Wl16lkAcDqWU7XFoaTse-4" source="_DuoRv_LJ4IoIMc4XyXB-17" edge="1">
          <mxGeometry x="-0.9273" y="9" relative="1" as="geometry">
            <mxPoint x="384.9729254711025" y="966.0567978072713" as="targetPoint" />
            <Array as="points">
              <mxPoint x="451.50758484963967" y="799.9196968995084" />
              <mxPoint x="451.50758484963967" y="957.3585202728336" />
              <mxPoint x="384.61757227932276" y="957.3585202728336" />
            </Array>
            <mxPoint as="offset" />
          </mxGeometry>
        </mxCell>
        <mxCell id="_DuoRv_LJ4IoIMc4XyXB-17" value="Аргумент opt существует" style="rhombus;whiteSpace=wrap;html=1;aspect=fixed;fontFamily=Helvetica;fontSize=10;fontColor=default;container=0;" parent="Wl16lkAcDqWU7XFoaTse-4" vertex="1">
          <mxGeometry x="335.5955543168516" y="765.9964145152007" width="98.75474230850175" height="65.83649487233447" as="geometry" />
        </mxCell>
        <mxCell id="_DuoRv_LJ4IoIMc4XyXB-20" style="edgeStyle=orthogonalEdgeStyle;shape=connector;rounded=0;orthogonalLoop=1;jettySize=auto;html=1;labelBackgroundColor=default;strokeColor=default;fontFamily=Helvetica;fontSize=10;fontColor=default;endArrow=none;endFill=0;" parent="Wl16lkAcDqWU7XFoaTse-4" source="_DuoRv_LJ4IoIMc4XyXB-15" target="_DuoRv_LJ4IoIMc4XyXB-17" edge="1">
          <mxGeometry relative="1" as="geometry" />
        </mxCell>
        <mxCell id="_DuoRv_LJ4IoIMc4XyXB-18" value="Добавить значение аргумента в vec" style="rounded=0;whiteSpace=wrap;html=1;aspect=fixed;fontFamily=Helvetica;fontSize=10;fontColor=default;container=0;" parent="Wl16lkAcDqWU7XFoaTse-4" vertex="1">
          <mxGeometry x="335.5955543168516" y="870.3757449284553" width="98.75474230850175" height="65.83649487233447" as="geometry" />
        </mxCell>
        <mxCell id="_DuoRv_LJ4IoIMc4XyXB-21" value="Да" style="edgeStyle=orthogonalEdgeStyle;shape=connector;rounded=0;orthogonalLoop=1;jettySize=auto;html=1;labelBackgroundColor=default;strokeColor=default;fontFamily=Helvetica;fontSize=10;fontColor=default;endArrow=none;endFill=0;" parent="Wl16lkAcDqWU7XFoaTse-4" source="_DuoRv_LJ4IoIMc4XyXB-17" target="_DuoRv_LJ4IoIMc4XyXB-18" edge="1">
          <mxGeometry x="-0.4542" relative="1" as="geometry">
            <mxPoint as="offset" />
          </mxGeometry>
        </mxCell>
        <mxCell id="_DuoRv_LJ4IoIMc4XyXB-19" value="Конец" style="strokeWidth=1;html=1;shape=stencil(xVXBboMwDP0ajkxAtK49Tqw79rJJO7vUpVFDgpysdH+/0IBaoDCayyQO+Bne83NsJWCpPkCJQRJJKDBgb0GSfCIVXIJRZAObOTh4EbmwcuFq6ULQJWbGYScgDluBLqMNqSNWfGcaBi4PSNzUWbYOolf7Tf2wNFNSWhKupO5kbvKWDLi0/0ZnRxY9PTuZnyZ2UWkVCjRIHfRqbuOAIHn3VornKX14KHUdtbp/KX09rhT7Ka19uhf3xeKZHdx4GLsjt1zNPDAvuZb9cXdezRzIzXY3IsdSi4wtIEu3kB1zUt9yd7fIEurlHiTadKFOeK2+P99T/lsGweUNw8vycQagzL5QrwZqKFgTn0M4cx2SMlC3ocMvgHIMLU+4F5B3UrpCLG/g5uzvl7vwcNzr2TyKf7Tsc8aZUBonNsHigzm7oCPDydK9IpyY2j0Xwt1OYwsxILig7q68AL8=);whiteSpace=wrap;aspect=fixed;fontFamily=Helvetica;fontSize=10;fontColor=default;container=0;" parent="Wl16lkAcDqWU7XFoaTse-4" vertex="1">
          <mxGeometry x="335.5955543168516" y="974.7550753417095" width="98.75474230850175" height="32.918247436167235" as="geometry" />
        </mxCell>
        <mxCell id="_DuoRv_LJ4IoIMc4XyXB-22" style="edgeStyle=orthogonalEdgeStyle;shape=connector;rounded=0;orthogonalLoop=1;jettySize=auto;html=1;labelBackgroundColor=default;strokeColor=default;fontFamily=Helvetica;fontSize=10;fontColor=default;endArrow=none;endFill=0;" parent="Wl16lkAcDqWU7XFoaTse-4" source="_DuoRv_LJ4IoIMc4XyXB-18" target="_DuoRv_LJ4IoIMc4XyXB-19" edge="1">
          <mxGeometry relative="1" as="geometry" />
        </mxCell>
      </root>
    </mxGraphModel>
  </diagram>
</mxfile>
